<svg xmlns="http://www.w3.org/2000/svg" viewBox="0 0 284.46 284.46"><defs><style>.cls-1{fill:#fff;}</style></defs><g id="Layer_2" data-name="Layer 2"><g id="Layer_1-2" data-name="Layer 1"><path class="cls-1" d="M142.23,0A142.23,142.23,0,1,0,284.46,142.23,142.23,142.23,0,0,0,142.23,0ZM100.65,178.25,48.1,147.91V89.6l52.55,30.23ZM51.93,83.73l50.54-29.17L155,84.9,104.56,114ZM148,216.89H133.6V133.81H148Zm66.06,0-53.73-27.4a17.67,17.67,0,0,1-6.4-5.87,16,16,0,0,1,0-17.16,17.45,17.45,0,0,1,6.38-5.87l52.53-26.78h31.61L163.23,175l82.34,41.85Z"/></g></g></svg>