<svg height="128" viewBox="0 0 173 128" width="173" xmlns="http://www.w3.org/2000/svg"><g fill="#fff" fill-rule="evenodd"><path d="m169 13h1v-6h-1z"/><path d="m167 11h6v-1h-6z"/><path d="m168.251267 13-.251267-.3140841 3.748733-4.6859159.251267.31428687z"/><path d="m171.748733 13-3.748733-4.68571313.251267-.31428687 3.748733 4.6859159z"/><path d="m148 87h1v-6h-1z"/><path d="m146 83h6v-1h-6z"/><path d="m147.251267 86-.251267-.3140841 3.748733-4.6859159.251267.3142869z"/><path d="m150.748733 86-3.748733-4.6857131.251267-.3142869 3.748733 4.6859159z"/><path d="m101 6h1v-6h-1z"/><path d="m99 4h6v-1h-6z"/><path d="m100.251429 5-.251429-.31408411 3.748733-4.68591589.251267.31428687z"/><path d="m103.748733 5-3.748733-4.68571313.251429-.31428687 3.748571 4.68591589z"/><g transform="translate(0 20)"><path d="m148.739296 34.2887834c-3.683692 3.8967972-8.891632 6.3267036-14.664315 6.3267036-8.002953 0-14.92022-4.6700173-18.195918-11.4450052 4.862012 1.8618302 10.720431 3.3777608 17.102031 4.2964159 5.634199.8110295 11.007089 1.0603467 15.758202.8218857"/><path d="m154.291859 20.3127036c0 2.7973311-.563252 5.4627037-1.582586 7.8879307-5.246894.5903501-12.115514.42339-19.533222-.6442565-7.555818-1.0878613-14.303289-2.911695-19.196426-5.0069324-.080332-.734662-.121523-1.4807418-.121523-2.2367418 0-3.4376568.850843-6.6755979 2.353098-9.5135459.22161-.4196464.457945-.83049565.707513-1.23198612 3.571675-5.73916118 9.920285-9.55715772 17.156268-9.55715772 9.115479 0 16.821895 6.05848181 19.344601 14.38440204v.0005616c.173524.5729428.322817 1.1573033.445831 1.7508353.279389 1.3448527.426446 2.7387453.426446 4.1668908"/><path d="m166.937841 26.4697518c-.632587 4.431182-8.056073 7.2964576-18.467852 7.8190503-4.751299.238461-10.124188-.0108562-15.758388-.8218856-6.381413-.9186551-12.240019-2.4345858-17.101844-4.296416-8.838139-3.3843119-14.382688-7.9120762-13.788496-12.0752236.555983-3.8952998 6.359978-6.5805129 14.828146-7.52799302-.249755.40149047-.485903.81233972-.707514 1.23198612-5.999885.6386413-9.946378 2.2504056-10.285783 4.6273414-.328595 2.3016915 2.790167 4.8691716 8.054209 7.1227591 4.893137 2.0952375 11.640608 3.9192583 19.196426 5.0069324 7.417708 1.0678337 14.286328 1.2346066 19.533036.6442565 5.846677-.6581074 9.67929-2.2567695 10.01329-4.5973934.345183-2.4164298-3.109257-5.1256014-8.856964-7.4572409-.123014-.5937192-.272307-1.1778925-.446017-1.7510225 8.837767 3.384312 14.381943 7.9122634 13.787751 12.0748492"/><path d="m87.895399 20.7993775c1.616135 3.5334904 2.3214118 7.3969705 2.3521652 11.2248873.0322444 3.856929.0799587 7.1143362-.0855502 9.9446101l-3.0811128.4451022c.1656953-2.830461.2035313-6.1342877.169423-9.9912166-.0307533-3.828104-.9628594-7.6307522-2.5791808-11.1642426zm34.300421 75.2395008c-.307906-.5965268-.696703-1.1640416-1.166391-1.6881317l-18.31949-27.3837088c-1.637755-1.8272028-10.0947398-4.3123258-18.0315266-5.7221283-.0035413 0-.007269-.0018717-.0108103-.0018717-.8260536-.1933518-1.6809966-.356007-2.5575602-.4860936.9790747-.1085615 1.1861473-.1897955 1.1861473-.1897955.5021183-.1355147.8008917-.1862392 1.0599654-.3940035.25926-.209636.3761227-.4428561.3761227-.7591819v-1.3047973c0-.3217539-.1582399-.6090676-.4210413-.817019-.2106138-.1716395-.4877667-.2891855-.8027555-.3253103 2.4332422-1.0139272 6.2289509-7.8838128 6.2289509-7.8838128 0-.0125407.4229051-.1735112.4229051-.1735112.6713549-.2691578 1.0672344-.3633068 1.4127902-.769851.3455558-.4067314.5021183-.8550156.5021183-1.4766239v-2.5412756c0-.618052-.2158326-1.1801386-.5613884-1.5885546-.2573962-.3000416-.5886005-.5151057-.9593181-.6092547.1655089-2.8302739.13401-6.1236188.1017656-9.9805477-.0307533-3.828104-.987462-7.5981837-2.5133872-11.1747244.3977433-.0344402.7846763-.1373865.8709721-.4228285.1459386-.4935805-1.2111228-3.6491646-1.5279755-3.9185095-.320394-.2674731-.9807522-.636208-1.5620837-.7193137-.3077199-.0451092-.5328717-.0849775-.7649196-.1265303-4.641519-6.57152861-11.6946596-11.48225305-19.2536462-12.63001041-1.1050704-.16621144-2.2190871-.25306066-3.3439141-.25306066-1.0923962 0-2.1793873.08329289-3.2557545.24407626-7.6182567 1.12791681-14.6589096 6.10714731-19.2752667 12.76739691-1.1354509.1100589-1.3084152.1969081-1.3084152.1969081-.5092009.1246586-.9896987.2204922-1.3046875.4898371-.3185301.2693449-1.4920033 3.6779896-1.1770145 3.9492062.2465859.2077643.5615748.3541352.9142132.4102877-.0143516.0233969-.0216206.0451092-.030567.0666344-.6245725 1.3772339-1.1499888 2.7960207-1.5604062 4.2402634h-1.1535302v-15.85428771c.9718058-.24033276 1.684538-1.04462392 1.684538-2.00090122 0-1.14401386-1.027721-2.07483535-2.2966228-2.07483535-1.2668516 0-2.2983002.93082149-2.2983002 2.07483535 0 .97256153.7416216 1.78939342 1.7404531 2.01344194v15.84174699h-.0540513c-.8763773 0-1.5872456.6433206-1.5872456 1.4369428v11.7858509c0 .788007.7108683 1.4313276 1.5872456 1.4313276h1.3732767c.030567.7629255.0719442 1.4964645.1241317 2.2015529 0 .0252686.0037277.0505372.0037277.0758059-.0145379.0018717-.0288895.005428-.0413772.0089844 0-.0233969 0-.0488527-.0037277-.0722496-.3634487.0904055-.6911116.3054697-.9447801.6019549-.3457422.408416-.5615748.9705026-.5615748 1.5885546v2.5412756c0 .6216083.134942 1.102461.4823616 1.5108769.3455558.4031751.8709721.549546 1.4325469.735598 0 0 .1008337.0488526.424769.128402-.0018639.0144125-.0018639.028825-.0018639.0451092 0 0 4.5641697 6.9855598 7.1090558 7.9760901-.4931719-.0651369-.6678136-.1066897-.6678136-.1066897-.3994208 0-.7557868.1300866-1.0185882.3397227-.2590736.2079514-.4193638.4952651-.4193638.817019v1.3047973c0 .3163258.1008337.5658301.363635.7773379.2572099.2058926.6532757.2818856 1.074317.3758475 0 0 .2376395.0795494 1.2202556.1824957-1.2776618.1897955-2.5051864.4464124-3.671577.7627383-8.1382679 1.3845338-17.0811552 3.9690468-18.7692344 5.852402l-18.32321764 27.3852063c-.46446875.520721-.8512154 1.0844922-1.16266294 1.6810191-2.02822991 2.5014072-1.46684152 6.7867799 1.41279018 9.8826549l1.36973549 1.68626h19.26072881l-4.7837299-6.963847 10.6887455-12.6661355-.0793995 19.6299825h67.513664l.4428482-18.9593344 10.3897854 11.5962424-4.95278 7.363092h16.616873l1.695535-2.085691c2.875904-3.094191 3.437478-7.3741356 1.41279-9.8753557z"/></g></g></svg>