<svg height="139" viewBox="0 0 173 139" width="173" xmlns="http://www.w3.org/2000/svg" xmlns:xlink="http://www.w3.org/1999/xlink"><mask id="a" fill="#fff"><path d="m.0000366.08773115h169.8660494v33.91226885h-169.8660494z" fill="#fff" fill-rule="evenodd"/></mask><mask id="b" fill="#fff"><path d="m.15704069.16127232h130.68338431v120.76339968h-130.68338431z" fill="#fff" fill-rule="evenodd"/></mask><mask id="c" fill="#fff"><path d="m0 139h173v-139h-173z" fill="#fff" fill-rule="evenodd"/></mask><g fill="#fff" fill-rule="evenodd"><path d="m64 26c0 2.2393261 1.0514838 4.2327826 2.686672 5.5131998 1.1887387.9322335 2.6857445 1.4868002 4.312957 1.4868002 3.8659513 0 7.000371-3.1336526 7.000371-7 0-2.4827387-1.2937202-4.6645022-3.2432962-5.9078898-1.0856121-.6911024-2.3745098-1.0921102-3.7570748-1.0921102-3.8657657 0-6.999629 3.13453-6.999629 7"/><path d="m71.9996395 18.4011468c-3.6419467 0-6.6047122 3.184469-6.6047122 7.0989447 0 2.4409199 1.145307 4.6814494 3.0638856 5.9935948 1.0575255.7230526 2.2819622 1.1053499 3.5408266 1.1053499 3.6423072 0 6.6054332-3.184652 6.6054332-7.0989447 0-2.1986214-.9257628-4.2380284-2.5400798-5.5953761-1.1701815-.9836515-2.5759495-1.5035686-4.0653534-1.5035686m0 14.5988532c-1.3378138 0-2.6384962-.405722-3.7614523-1.1737937-2.02781-1.3866284-3.2381872-3.7516013-3.2381872-6.3261148 0-4.1355457 3.1399511-7.5000915 6.9996395-7.5000915 1.582593 0 3.0754217.5517599 4.3173426 1.5958031 1.7051629 1.4336607 2.6830179 3.5857988 2.6830179 5.9042884 0 4.1355457-3.1403116 7.4999085-7.0003605 7.4999085"/><path d="m169.866086 34.0000372h-169.8660494c20.910366-20.8210055 51.2161141-33.91230605 84.9330248-33.91230605 33.7169106 0 64.0226586 13.09130055 84.9330246 33.91230605" mask="url(#a)" transform="translate(0 105)"/><path d="m29.3477637 27.5287814.0246653-8.283466s2.4681716.3589728 4.6867671-.0856702c1.760735-.3525658 2.890039-.7906187 2.890039-.7906187s.8007992 1.8120711.8978159 4.3420877c.0970168 2.5312981-.0478689 4.4288563-.0478689 4.4288563s-1.0686457.425056-3.4968047.6804191c-2.0490446.2163721-4.9546137-.2916082-4.9546137-.2916082zm-16.7267085 47.3809274-.1191241-.7141014c.0646778.1140439.1333752.225525.2044477.3329788-.0323389.1257595-.060841.2528003-.0853236.3811226zm-2.2639065-4.869472-1.64544772-10.8770031 2.19648812-4.4586944.5046332 15.1749743c0 .1737201.0051158.3461589.0142511.5171331-.3042051-.248773-.6831367-.3836853-1.0699247-.3564099zm107.6334003-61.68492137 1.670113-7.06394705h-45.6254547c-.0787462-.25005446-.2172371-.47301664-.3970196-.65314372-.2950697-.2956354-.6999456-.47704387-1.1473919-.47704387-.8965369 0-1.623523.72856278-1.623523 1.62535401v35.8377837l-3.1176904 1.2870665c-.6727224.2268064-1.0905704.8786687-1.0531157 1.5578064l-13.2805133 4.1229697c-.0193668-.0102511-.0387336-.0181225-.0581004-.0272753l-15.37359-6.7668472c-.0893431-.0389909-.1993319-.0701105-.3286875-.09464h-.0025579c-1.0194979-.5237231-2.2341255-.9138154-3.5704352-1.125062.433378-.0505234.5263752-.088233.5263752-.088233.2225356-.0648018.3544491-.0880499.4697364-.186534.1151046-.0972027.1668103-.206121.1668103-.35641v-.6145189c0-.150289-.0710725-.2850182-.1863598-.3835023-.0942762-.0803615-.2172371-.1361936-.355728-.1530348 1.0775983-.4755794 1.8086039-1.2235461 2.2949665-2.3912602.1023152-.0336823.182523-.0713918.2587113-.1361936.1410488-.1178881.2044477-.2513359.2044477-.4329274v-.7646248c.1461646-.0388079.1861771-.0635204.1861771-.0635204.2976276-.1270409.4722943-.1711574.6261325-.363.152742-.1905613.2225356-.4016249.2225356-.6934161v-1.1962708c0-.2903268-.0957378-.5548426-.2482971-.7465023-.1138257-.1413192-.2612692-.2423661-.4242427-.2864826.0723515-1.331183.0891604-2.8851452.0749094-4.6997791-.0142511-1.8003555-.4269833-3.5889954-1.1422762-5.2505945.1746667-.0155598.3467755-.0648018.3842301-.1982497.0646779-.2333963-.5369721-1.7159667-.6765592-1.8431906-.1410489-.1268578-.4346569-.2992965-.6920893-.3381044-.1359331-.0221497-.2355077-.0402723-.3376402-.0596762-2.0569009-3.0899849-5.1798898-5.40088352-8.5290683-5.94016642-.4889205-.07761574-.9831395-.11916944-1.4799163-.11916944-.4838048 0-.9650516.03880786-1.441.11532526-3.3751228.53013011-6.4928131 2.8721483-8.5369247 6.0036868-.5029889.0530863-.5793598.0931755-.5793598.0931755-.2278341.0583949-.4399554.1037928-.5795426.2308336-.1397699.1270409-.661212 1.7289637-.5214421 1.8572859.1087099.0972028.2497587.1671302.4061548.1931241-.0063947.0104342-.0102315.0206853-.0140683.0311195-.2767992.6480182-.509749 1.3154403-.6909931 1.994761h-.5108451v-7.4578835c.4295411-.1127625.7450739-.4913223.7450739-.9398094 0-.5390999-.4553027-.9758714-1.0167573-.9758714-.5614547 0-1.0167574.4367715-1.0167574.9758714 0 .4576399.327226.8413253.7708355.9462163v7.4514766h-.0244826c-.3893459 0-.7037824.3020423-.7037824.673829v5.5436672c0 .3719697.3144365.6740121.7037824.6740121h.6067657c.014251.3589728.0323389.7036672.0555425 1.0355477.0014617.0115325.0014617.0232481.0025579.0349637-.0063947.0012813-.0116932.0038441-.0180879.0051255-.0012789-.0115325-.0012789-.0232481-.0012789-.0349637-.1629735.0428351-.3078591.143882-.4191269.2839198-.1538382.1916597-.2482971.4561755-.2482971.7465023v1.1962708c0 .2917912.0593794.5184145.2134003.7089758.1538382.1905613.385509.2606717.6338061.3474403 0 0 .0440321.0221497.1876388.0596762v.768469c0 .1815915.0544463.3240091.1965913.4433616.1138257.0959213.2742413.1426006.4516486.1852526.5625509 1.1704599 1.3737643 1.9092738 2.5005104 2.3746021-.2174198-.0298381-.2963486-.049242-.2963486-.049242-.1757629 0-.3350823.0609576-.4500042.1594417-.1165663.0984841-.1863598.2332133-.1863598.3835023v.6145189c0 .150289.044032.2668956.1604156.3653797.1151046.0972028.2897712.1323495.4759484.1775643 0 0 .0971994.0351468.4865453.0790802-2.8228034.3849667-6.6079177 1.9273964-9.09819666 5.251876l-5.40096374 10.9575476-1.96244212 3.9829319c-.12423988.5196959-.1759456 1.0082723-.1344714 1.4205144.00767364.0712088.01808786.1400378.03105997.206121l3.32067643 13.2358624c-.79696235.2229621-1.27418968 1.1082208-1.06590516 2.0026323l2.23138493 7.4915658c.21358299.9150969 1.06736681 1.5034388 1.89922595 1.3090333l5.0697183-1.2572284c.279357-.0660832.5846583-.206121.8588995-.3992451v27.961251c0 .168595.0065775.335725.0208285.501574-.0686974 1.635605.1810614 3.185906.803357 4.147682l2.8834617 3.493074c1.2690739 1.964923 4.8135648 4.050296 7.4680962 4.050296.7129177 0 1.3622539-.151753 1.8862539-.495166 2.4720083-1.624073 1.2469665-6.967843-.3635844-9.460333l-.6067657-.937063c.0931799-.418649.1410488-.85414.1410488-1.300064v-31.4477351h2.0645746v31.4477351c0 .546971.0725342 1.077102.2095635 1.582519 0 .006407.0014616.011716.0040195.016841.1151046.425239.2755202.832173.4746695 1.215858.014251.023248.0285021.047961.044032.071209l.9003738 1.270225 2.7477113 3.875478c1.2690739 1.96474 4.8135649 4.050297 7.4680962 4.050297.7129178 0 1.3622539-.151754 1.8862539-.495167 2.47347-1.624072 1.2482455-6.967842-.3635844-9.460332l-1.0050642-1.553963c-.045311-.071391-.0931799-.144065-.1436066-.217836.0063947-.116607.0104142-.235776.0104142-.355129v-32.6921496c0-.5572224-.0750921-1.0977867-.2174198-1.6123571.8227238-1.2378245 1.282046-2.7839152 1.282046-4.437826l.4980558-21.5907201 9.7462538 4.2900998c.4889205.2150908.9948327.3135749 1.486311.307168.8188871.3395688 1.8707239.3589727 2.9145217-.025994l14.4370404-6.069587c.3816723.3717867.8525049.6013389 1.2950181.4523313l.3791144-.0986671v64.2306808c0 .898073.7269861 1.626635 1.623523 1.626635.8950753 0 1.6220614-.728562 1.6220614-1.626635v-65.0769486l3.3478996-.8722617c.8086555-.2734857 1.2484281-1.1600257.9754658-1.9702315l-2.1460614-6.3910333c-.2729623-.8100227-1.1578061-1.2508215-1.9662789-.9773358l-.2110251.0869516v-13.7661755l10.4993668-.0558321-1.0103626 5.5681967h39.7743036l7.46426-19.99392288z" mask="url(#b)" transform="translate(41)"/><path d="m15.7993566 48h.4012868v-6h-.4012868z" mask="url(#c)"/><path d="m13 46h6v-1h-6z" mask="url(#c)"/><path d="m14.3142741 47-.3142741-.3140841 4.6857259-4.6859159.3142741.3142869z" mask="url(#c)"/><path d="m18.6857259 47-4.6857259-4.6857131.3142741-.3142869 4.6857259 4.6859159z" mask="url(#c)"/><path d="m169.799357 72h.401286v-6h-.401286z" mask="url(#c)"/><path d="m167 70h6v-1h-6z" mask="url(#c)"/><path d="m167.314084 72-.314084-.3140841 4.685713-4.6859159.314287.3142869z" mask="url(#c)"/><path d="m171.685713 72-4.685713-4.6857131.314084-.3142869 4.685916 4.6859159z" mask="url(#c)"/><path d="m133.799448 100h.401104v-6h-.401104z" mask="url(#c)"/><path d="m132 97h6v-1h-6z" mask="url(#c)"/><path d="m132.314084 100-.314084-.3140841 4.685916-4.6859159.314084.3142869z" mask="url(#c)"/><path d="m136.685916 100-4.685916-4.6857131.314084-.3142869 4.685916 4.6859159z" mask="url(#c)"/><path d="m138.799448 53h.401104v-6h-.401104z" mask="url(#c)"/><path d="m137 51h6v-1h-6z" mask="url(#c)"/><path d="m137.314084 52-.314084-.3140841 4.685916-4.6859159.314084.3142869z" mask="url(#c)"/><path d="m141.685916 52-4.685916-4.6857131.314084-.3142869 4.685916 4.6859159z" mask="url(#c)"/></g></svg>