<?xml version="1.0" encoding="UTF-8"?>
<svg width="161px" height="129px" viewBox="0 0 161 129" version="1.1" xmlns="http://www.w3.org/2000/svg" xmlns:xlink="http://www.w3.org/1999/xlink">
    <!-- Generator: Sketch 52.6 (67491) - http://www.bohemiancoding.com/sketch -->
    <title>Group 28</title>
    <desc>Created with Sketch.</desc>
    <defs>
        <polygon id="path-1" points="3.401507e-05 0.0825704918 157.875539 0.0825704918 157.875539 32 3.401507e-05 32"></polygon>
        <polygon id="path-3" points="0.146251635 0.149276853 121.851388 0.149276853 121.851388 111.930275 0.146251635 111.930275"></polygon>
        <polygon id="path-5" points="0 129 161 129 161 0 0 0"></polygon>
    </defs>
    <g id="Page-1" stroke="none" stroke-width="1" fill="none" fill-rule="evenodd">
        <g id="About-Us" transform="translate(-229.000000, -2414.000000)">
            <g id="Group-28" transform="translate(229.000000, 2414.000000)">
                <path d="M60,24.5 C60,26.5793742 60.9763778,28.430441 62.4947668,29.6193998 C63.5985957,30.4850453 64.9886725,31 66.4996555,31 C70.0894674,31 73,28.0901798 73,24.5 C73,22.1945997 71.7986884,20.1686765 69.9883678,19.0141023 C68.9802994,18.3723644 67.7834658,18 66.4996555,18 C62.9100159,18 60,20.910635 60,24.5" id="Fill-1" fill="#FFFFFF"></path>
                <path d="M67.4996653,17.3744037 C64.1178576,17.3744037 61.3667182,20.3465748 61.3667182,24.0000854 C61.3667182,26.2782773 62.4302176,28.3694382 64.2117549,29.5941072 C65.1937428,30.2689563 66.3307197,30.6257671 67.4996653,30.6257671 C70.8818076,30.6257671 73.6332818,27.6534252 73.6332818,24.0000854 C73.6332818,21.9480388 72.7736449,20.0445922 71.2746363,18.7777344 C70.1880391,17.8596596 68.8826831,17.3744037 67.4996653,17.3744037 M67.4996653,31 C66.2574096,31 65.0496331,30.6213262 64.0068881,29.9044592 C62.1239217,28.6102727 61,26.4029647 61,24.0000854 C61,20.1402428 63.9156689,17 67.4996653,17 C68.9692159,17 70.3554139,17.5149759 71.5086262,18.4894162 C73.0919918,19.8274995 74,21.8361618 74,24.0000854 C74,27.859928 71.0839964,31 67.4996653,31" id="Fill-3" fill="#FFFFFF"></path>
                <g id="Group-7" transform="translate(0.000000, 97.000000)">
                    <mask id="mask-2" fill="white">
                        <use xlink:href="#path-1"></use>
                    </mask>
                    <g id="Clip-6"></g>
                    <path d="M157.875539,32.000035 L3.401507e-05,32.000035 C19.4343742,12.4037945 47.600893,0.0825704918 78.9377864,0.0825704918 C110.27468,0.0825704918 138.441199,12.4037945 157.875539,32.000035" id="Fill-5" fill="#FFFFFF" mask="url(#mask-2)"></path>
                </g>
                <g id="Group-10" transform="translate(38.000000, 0.000000)">
                    <mask id="mask-4" fill="white">
                        <use xlink:href="#path-3"></use>
                    </mask>
                    <g id="Clip-9"></g>
                    <path d="M27.3315052,25.4811861 L27.3544759,17.8138457 C27.3544759,17.8138457 29.6530784,18.146118 31.7192513,17.7345477 C33.3590198,17.4082057 34.4107381,17.0027352 34.4107381,17.0027352 C34.4107381,17.0027352 35.1565205,18.6800242 35.246872,21.0218578 C35.3372234,23.3648775 35.2022918,25.121295 35.2022918,25.121295 C35.2022918,25.121295 34.2070644,25.5147352 31.9457255,25.7511044 C30.037455,25.9513828 27.3315052,25.4811861 27.3315052,25.4811861 Z M11.7539598,69.3379123 L11.6430198,68.6769259 C11.7032541,68.7824871 11.7672318,68.8856762 11.8334215,68.9851377 C11.8033043,69.1015431 11.7767604,69.2191346 11.7539598,69.3379123 Z M9.64558884,64.8306324 L8.11318717,54.7626626 L10.1587715,50.6356067 L10.6287353,64.6818638 C10.6287353,64.8426626 10.6334996,65.0022753 10.6420073,65.1605325 C10.3587018,64.9302632 10.0058036,64.8053858 9.64558884,64.8306324 Z M109.884328,7.73384569 L111.4397,1.19531619 L68.948819,1.19531619 C68.8754828,0.963860817 68.7465066,0.757482602 68.5790756,0.590753404 C68.3042778,0.317107413 67.9272179,0.149192133 67.5105121,0.149192133 C66.6755693,0.149192133 65.9985289,0.823564297 65.9985289,1.65365204 L65.9985289,34.8258154 L63.095031,36.0171498 C62.4685261,36.2270862 62.0793852,36.8304629 62.1142667,37.4590862 L49.7461551,41.2753888 C49.7281188,41.2659002 49.7100826,41.2586142 49.6920463,41.2501422 L35.3746572,34.9866142 C35.2914522,34.9505234 35.1890198,34.9217186 35.0685512,34.8990136 L35.066169,34.8990136 C34.116713,34.4142451 32.9855331,34.0531679 31.741031,33.8576339 C32.1446349,33.8108684 32.231243,33.7759637 32.231243,33.7759637 C32.4384898,33.7159818 32.5613406,33.6944629 32.6687074,33.6033041 C32.775904,33.5133313 32.8240575,33.4125144 32.8240575,33.2734039 L32.8240575,32.704593 C32.8240575,32.5654826 32.7578678,32.4407746 32.650501,32.3496157 C32.5627018,32.2752315 32.4481886,32.2235522 32.3192123,32.2079637 C33.3227771,31.7677579 34.0035609,31.0754251 34.4565093,29.9945658 C34.5517953,29.9633888 34.6264926,29.9284841 34.6974466,29.8685023 C34.828805,29.7593828 34.8878483,29.6358608 34.8878483,29.4677761 L34.8878483,28.7600242 C35.023971,28.7241029 35.0612346,28.7012284 35.0612346,28.7012284 C35.3384145,28.5836369 35.5010812,28.5428018 35.6443503,28.3652284 C35.7865986,28.1888411 35.8515972,27.9934766 35.8515972,27.7233888 L35.8515972,26.6160968 C35.8515972,26.3473646 35.7624368,26.1025234 35.6203587,25.9251195 C35.5143531,25.7943116 35.3770393,25.7007806 35.2252625,25.6599455 C35.2926432,24.4277761 35.3082974,22.9893979 35.2950254,21.3097368 C35.2817534,19.643292 34.8973768,17.9876914 34.2312262,16.4496823 C34.3938929,16.4352799 34.5541774,16.3897005 34.5890589,16.2661785 C34.6492932,16.0501422 34.088978,14.6778457 33.9589808,14.5600847 C33.8276223,14.4426626 33.5541858,14.2830499 33.3144396,14.2471286 C33.1878455,14.2266263 33.0951119,14.2098517 32.9999961,14.1918911 C31.0844089,11.3317398 28.1759766,9.19272617 25.0568943,8.69355522 C24.6015637,8.62171256 24.1412987,8.58324962 23.6786516,8.58324962 C23.2280854,8.58324962 22.7799013,8.61917095 22.3366516,8.68999697 C19.1934075,9.18069592 16.2899096,11.3485144 14.3862332,14.2471286 C13.9178008,14.2962663 13.8466767,14.3333737 13.8466767,14.3333737 C13.6344954,14.3874251 13.4369473,14.4294463 13.3069501,14.5470378 C13.1767827,14.6646293 12.6911649,16.1474009 12.8213322,16.2661785 C12.9225735,16.3561513 13.0539319,16.4208775 13.1995833,16.444938 C13.1936279,16.4545961 13.1900547,16.4640847 13.1864815,16.4737428 C12.928699,17.0735613 12.7117534,17.6913404 12.5429612,18.3201331 L12.0672123,18.3201331 L12.0672123,11.4169682 C12.467243,11.312593 12.7610979,10.9621906 12.7610979,10.547062 C12.7610979,10.0480605 12.3370756,9.6437761 11.8141941,9.6437761 C11.2913127,9.6437761 10.8672904,10.0480605 10.8672904,10.547062 C10.8672904,10.9706626 11.1720351,11.3258094 11.5851676,11.4228986 L11.5851676,18.3201331 L11.5623671,18.3201331 C11.1997702,18.3201331 10.9069361,18.5997095 10.9069361,18.9438427 L10.9069361,24.075171 C10.9069361,24.4194735 11.1997702,24.6990499 11.5623671,24.6990499 L12.1274466,24.6990499 C12.1407185,25.0313222 12.1575637,25.3503782 12.1791732,25.6575734 C12.1805344,25.6682481 12.1805344,25.6790923 12.1815554,25.6899365 C12.1756,25.6911225 12.1706656,25.6934947 12.1647102,25.6946808 C12.1635191,25.6840061 12.1635191,25.6731619 12.1635191,25.6623177 C12.0117423,25.7019667 11.8768106,25.7954977 11.7731872,25.9251195 C11.629918,26.1025234 11.5419487,26.3473646 11.5419487,26.6160968 L11.5419487,27.7233888 C11.5419487,27.9934766 11.5972485,28.2032436 11.7406879,28.3796309 C11.883957,28.5560182 12.0997116,28.6209138 12.3309501,28.7012284 C12.3309501,28.7012284 12.371957,28.7217307 12.5056976,28.756466 L12.5056976,29.4677761 C12.5056976,29.6358608 12.5564033,29.7676853 12.6887827,29.8781604 C12.7947883,29.966947 12.944183,30.0101543 13.109402,30.0496339 C13.6333043,31.1330348 14.3887855,31.8168956 15.4381216,32.2476127 C15.2356391,32.2199939 15.1621328,32.2020333 15.1621328,32.2020333 C14.9984452,32.2020333 14.8500714,32.2584569 14.7430449,32.3496157 C14.634487,32.4407746 14.5694884,32.5654826 14.5694884,32.704593 L14.5694884,33.2734039 C14.5694884,33.4125144 14.6104954,33.5204478 14.7188831,33.6116067 C14.8260798,33.7015794 14.9887464,33.734112 15.1621328,33.7759637 C15.1621328,33.7759637 15.2526544,33.8084962 15.6152513,33.8491619 C12.986381,34.2054947 9.46131269,35.6331982 7.14212162,38.7104024 L2.11221646,48.8529259 L0.284598605,52.5396067 C0.168894282,53.0206475 0.120740865,53.4728835 0.15936569,53.8544629 C0.166512134,53.9203752 0.176210879,53.9840847 0.188291771,54.0452526 L3.28083013,66.2966293 C2.53862092,66.5030076 2.0941802,67.3224206 2.28815509,68.1503056 L4.36623877,75.0846475 C4.56514812,75.9316793 5.36027503,76.4762602 6.13498354,76.2963147 L10.8564006,75.1325991 C11.1165651,75.0714312 11.4008915,74.9418094 11.6562918,74.7630499 L11.6562918,100.644539 C11.6562918,100.800593 11.6624173,100.955292 11.6756893,101.108805 C11.6117116,102.622753 11.8443113,104.057743 12.4238538,104.947982 L15.1092151,108.181241 C16.2911007,110.000012 19.592077,111.930275 22.064236,111.930275 C22.7281746,111.930275 23.3328999,111.789809 23.8208999,111.471939 C26.1230756,109.968666 24.9821969,105.022366 23.4822946,102.715268 L22.9172151,101.847903 C23.0039933,101.460393 23.0485735,101.057295 23.0485735,100.644539 L23.0485735,71.5358911 L24.9713071,71.5358911 L24.9713071,100.644539 C24.9713071,101.150826 25.038858,101.641525 25.1664731,102.109349 C25.1664731,102.11528 25.1678343,102.120194 25.1702165,102.124938 C25.2774131,102.518548 25.4268078,102.895213 25.612275,103.25036 C25.625547,103.271879 25.638819,103.294753 25.653282,103.316272 L26.491798,104.492018 L29.0507353,108.079238 C30.2326209,109.89784 33.5335972,111.828272 36.0057562,111.828272 C36.6696948,111.828272 37.2744201,111.687806 37.7624201,111.369936 C40.065957,109.866663 38.9249082,104.920363 37.4238148,102.613265 L36.4878008,101.174887 C36.4456028,101.108805 36.4010226,101.041537 36.3540603,100.973253 C36.3600156,100.865319 36.363759,100.755014 36.363759,100.644539 L36.363759,70.3840363 C36.363759,69.8682602 36.2938259,69.3679032 36.1612764,68.8916067 C36.9274773,67.7458517 37.355243,66.3147595 37.355243,64.7838669 L37.8190812,44.7990681 L46.895745,48.7700696 C47.3510756,48.9691619 47.8222304,49.0603207 48.2799431,49.0543903 C49.0425707,49.368702 50.0221439,49.3866626 50.9942304,49.0303298 L64.4394131,43.4121997 C64.7948636,43.7563328 65.233349,43.9688109 65.6454605,43.8308865 L65.9985289,43.7395582 L65.9985289,103.19275 C65.9985289,104.024024 66.6755693,104.698396 67.5105121,104.698396 C68.3440937,104.698396 69.0211342,104.024024 69.0211342,103.19275 L69.0211342,42.956236 L72.1390254,42.1488533 C72.8921244,41.8957095 73.3016837,41.0751104 73.0474745,40.3251679 L71.0488524,34.4095008 C70.7946432,33.6597277 69.9705902,33.2517156 69.2176614,33.5048593 L69.0211342,33.5853434 L69.0211342,20.8430983 L78.7991704,20.7914191 L77.858222,25.9454523 L114.89994,25.9454523 L121.851388,7.43868079 L109.884328,7.73384569 Z" id="Fill-8" fill="#FFFFFF" mask="url(#mask-4)"></path>
                </g>
                <mask id="mask-6" fill="white">
                    <use xlink:href="#path-5"></use>
                </mask>
                <g id="Clip-12"></g>
                <polygon id="Fill-11" fill="#FFFFFF" mask="url(#mask-6)" points="14.8132741 45 15.1867259 45 15.1867259 39 14.8132741 39"></polygon>
                <polygon id="Fill-13" fill="#FFFFFF" mask="url(#mask-6)" points="12 43 18 43 18 42 12 42"></polygon>
                <polygon id="Fill-14" fill="#FFFFFF" mask="url(#mask-6)" points="13.3142741 44 13 43.6859159 17.6857259 39 18 39.3142869"></polygon>
                <polygon id="Fill-15" fill="#FFFFFF" mask="url(#mask-6)" points="17.6857259 44 13 39.3142869 13.3142741 39 18 43.6859159"></polygon>
                <polygon id="Fill-16" fill="#FFFFFF" mask="url(#mask-6)" points="157.813274 67 158.186726 67 158.186726 61 157.813274 61"></polygon>
                <polygon id="Fill-17" fill="#FFFFFF" mask="url(#mask-6)" points="155 65 161 65 161 64 155 64"></polygon>
                <polygon id="Fill-18" fill="#FFFFFF" mask="url(#mask-6)" points="155.314084 67 155 66.6859159 159.685713 62 160 62.3142869"></polygon>
                <polygon id="Fill-19" fill="#FFFFFF" mask="url(#mask-6)" points="159.685713 67 155 62.3142869 155.314084 62 160 66.6859159"></polygon>
                <polygon id="Fill-20" fill="#FFFFFF" mask="url(#mask-6)" points="124.813359 93 125.186641 93 125.186641 87 124.813359 87"></polygon>
                <polygon id="Fill-21" fill="#FFFFFF" mask="url(#mask-6)" points="123 90 129 90 129 89 123 89"></polygon>
                <polygon id="Fill-22" fill="#FFFFFF" mask="url(#mask-6)" points="123.314084 93 123 92.6859159 127.685916 88 128 88.3142869"></polygon>
                <polygon id="Fill-23" fill="#FFFFFF" mask="url(#mask-6)" points="127.685916 93 123 88.3142869 123.314084 88 128 92.6859159"></polygon>
                <polygon id="Fill-24" fill="#FFFFFF" mask="url(#mask-6)" points="128.813359 49 129.186641 49 129.186641 43 128.813359 43"></polygon>
                <polygon id="Fill-25" fill="#FFFFFF" mask="url(#mask-6)" points="127 47 133 47 133 46 127 46"></polygon>
                <polygon id="Fill-26" fill="#FFFFFF" mask="url(#mask-6)" points="127.314084 48 127 47.6859159 131.685916 43 132 43.3142869"></polygon>
                <polygon id="Fill-27" fill="#FFFFFF" mask="url(#mask-6)" points="131.685916 48 127 43.3142869 127.314084 43 132 47.6859159"></polygon>
            </g>
        </g>
    </g>
</svg>