<svg height="128" viewBox="0 0 198 128" width="198" xmlns="http://www.w3.org/2000/svg" xmlns:xlink="http://www.w3.org/1999/xlink"><mask id="a" fill="#fff"><path d="m0 .2049611h71.9296298v89.611167h-71.9296298z" fill="#fff" fill-rule="evenodd"/></mask><mask id="b" fill="#fff"><path d="m0 128h198v-128h-198z" fill="#fff" fill-rule="evenodd"/></mask><g fill="#fff" fill-rule="evenodd"><path d="m127.662497 61.9139508c.886211-.2696799 1.973291.6388455 3.732747.6805719 1.76069-.0417264 3.196204-.9502518 4.082209-.6805719.898765.2733798.694603.8115064.373748.993417-.158473.0900304-2.106037.8100676-4.270524.8100676-2.163252 0-4.133455-.7200372-4.291722-.8100676-.321061-.1819106-.525429-.7200372.373542-.993417m-9.662497-4.913848c0 6.078076 2.703705 11.4889409 6.90837 14.9643589 3.057077 2.5298938 6.906311 4.0355383 11.090601 4.0355383 9.940956 0 18.001029-8.5054011 18.001029-18.9998972 0-6.7391208-3.326481-12.6611854-8.339973-16.0358845-2.791378-1.8756322-6.105716-2.9642183-9.661056-2.9642183-9.94075 0-17.998971 8.5076621-17.998971 19.0001028"/><path d="m82.5823801 12-2.5823801 2.6665976c3.4487257 3.5616807 5.3479831 8.2967722 5.3479831 13.3334024s-1.8992574 9.7719289-5.3479831 13.3334024l2.5823801 2.6665976c4.1384708-4.2737682 6.4176199-9.9559608 6.4176199-16s-2.2791491-11.7262318-6.4176199-16"/><path d="m87.791608 7-2.6607836 2.77312403c4.2926897 4.61327577 7.8515263 11.30971947 7.8515263 17.83347257 0 6.5239546-3.6898671 13.1778806-7.9823507 17.7909549l2.9224324 2.6024485c5.1513924-5.5355682 9.0775676-12.4040979 9.0775676-20.2328032 0-7.8287052-4.0572056-15.231427-9.208392-20.7671968"/><path d="m77.6329036 17-2.6329036 2.6260715c2.1127481 2.1074698 3.2764477 4.9037553 3.2764477 7.8739285s-1.1636996 5.7664587-3.2764477 7.8739285l2.6329036 2.6260715c2.8162472-2.8087352 4.3670964-6.5377281 4.3670964-10.4997959 0-3.9622719-1.5508492-7.6914689-4.3670964-10.5002041"/><path d="m69 24.7508552c.7314327.7360841 1.1342199 1.7124698 1.1342199 2.7491448s-.4027872 2.0128469-1.1342199 2.748931l2.7336846 2.751069c1.4613783-1.4706717 2.2663154-3.4240846 2.2663154-5.5s-.8049371-4.0293283-2.2663154-5.5z"/><path d="m50.2813858 63.4071141c-.226595.3636138-3.3388292 2.4509499-6.4345987 2.4509499-3.0978276 0-6.1773382-2.0873361-6.4039332-2.4509499-.4595701-.7356549-.4595701-2.0873361.826938-3.1929768 1.2681912-1.0908412 3.3225703-.0450149 5.842488.1239453 2.5178596-.1689602 4.0739767-1.2147865 5.341962-.1239453 1.2865082 1.1056407 1.2865082 2.4573219.8271439 3.1929768m-11.2805626-26.4071141c-3.5551337 0-6.8694717 1.0885802-9.6610564 2.9642023-5.0132861 3.3748864-8.3397668 9.2969189-8.3397668 16.0357977 0 10.4944394 8.0600732 19 18.0008232 19 4.18429 0 8.0337297-1.5056363 11.0906015-4.035722 4.2046649-3.4753992 6.9085753-8.8862348 6.9085753-14.964278 0-10.4923839-8.0582209-19-17.9991768-19"/><path d="m16.5397616 47.1948467s-.6878166-.9881465-1.3919312-3.1860412c-.7798281-2.4314417-1.5802866-6.344897-1.4880688-12.0402288.1124355-5.4267735 1.2875416-10.0484897 2.1001719-12.6315103.0041261-.0135927.0082522-.0271854.0121719-.040984 3.8770659-.2411671 10.1573639-.4588559 20.1713467-.4588559 10.0302809 0 16.3369857.2255149 20.2282866.470595.002063.0078261.0061891.0175057.0082521.0253318.8433697 2.6375973 1.9815473 7.0626316 2.088 11.9798856.0367221 1.6922883-.0369283 3.2910755-.1821662 4.7753547 0 .0154462 0 .0310984-.004126.0465446-.6692493 6.7028375-2.8104757 11.0599085-2.8104757 11.0599085zm49.1671289 19.5561556c-2.6078853-1.5386499-5.8872894-2.6765218-9.559702-3.2502975 1.019553-.1128604 1.2671175-.1983295 1.2671175-.1983295.4361261-.1050343.845639-.1867964 1.1136275-.4123112.2723209-.2296339.3767106-.5000458.3767106-.8462472v-1.4237299c0-.3501145-.1658682-.6633639-.4359197-.8909383-.2702579-.2275743-.6428425-.3694736-1.0544184-.3694736 0 0-.1842292.044691-.6937994.1147139 2.6363553-1.0795881 4.536-2.7912357 5.8522178-5.5046224.415702-.0992677.7924126-.2082151 1.0583381-.4300229.3317364-.278032.4606762-.6067277.4606762-1.0289245v-1.7312128c0-.0172998 0-.0329519-.0020631-.0504577.3356562-.085675.4400459-.1381922.4400459-.1381922.5813639-.2022425 1.1237364-.3616476 1.484149-.8032036.3581433-.4434097.4994613-.9687872.4994613-1.6455378v-2.7718764c0-.6748971-.2232206-1.2875973-.5813639-1.7312128-.2620057-.3247827-.601788-.5581236-.9805616-.6592449-.002063.0271854-.002063.0543707-.0039198.0815561-.0144412-.0039131-.0288825-.0096797-.0431174-.0115332.002063-.0273913.004126-.0545767.0061891-.081762.0532263-.7681922.0961375-1.5676888.1289398-2.4003433h1.4226705c.9087679 0 1.6456848-.7002288 1.6456848-1.5617162v-12.8514646c0-.8635469-.7369169-1.5637757-1.6456848-1.5637757h-.0573525v-17.2746453c1.035851-.2430206 1.8035072-1.13395881 1.8035072-2.1939817 0-1.24887872-1.0665902-2.26215103-2.380745-2.26215103-1.3141547 0-2.380745 1.01327231-2.380745 2.26215103 0 1.04066362.73898 1.91780321 1.7461548 2.18038902v17.28823798h-1.1953238c-.4258109-1.5755149-.9704527-3.1219908-1.6172149-4.6235698-.0103152-.0253318-.0204241-.0486041-.0328023-.0739359.3663954-.0603433.6940057-.2197483.9477593-.4473227.3276103-.2957437-.8904069-4.0108695-1.2198739-4.3066132-.3255473-.2916248-.8229456-.3987186-1.3552092-.5327918 0 0-.1780401-.0935011-1.3552092-.2160412-4.7837707-7.26116704-12.0813524-12.68979404-19.980722-13.91910755-1.1156906-.1771167-2.24149-.26649885-3.3755416-.26649885-1.1627278 0-2.3192664.09535469-3.4634269.27617849-7.8380974 1.25073226-15.147851 6.60562929-19.9605043 13.76938211-.2395186.0446911-.4749112.0895881-.792.1381923-.6019943.0914416-1.2898109.4920137-1.6192779.7856979-.32761035.2938902-1.73583958 3.7326316-1.58441265 4.2716018.08809169.31119.49120917.4240504.90072207.4609154-1.67456734 3.853318-2.64068768 7.9982608-2.67348998 12.1724485-.03280229 4.2073455.00412608 7.809611.17618339 10.8945309-.38289972.1013272-.72680803.3365217-.99500287.6652174-.35814327.4436155-.58115759 1.0563157-.58115759 1.7312128v2.7718764c0 .6767506.16359885 1.1650572.52194842 1.6084668.35814327.4436156.76744986.5465904 1.46351863.8402746 0 0 .09613753.0564302.43818911.1478719-.00206304.0135927-.00206304.0271853-.00206304.040778v1.7312128c0 .4221968.1493639.7294737.47903725 1.0056522.17783381.1478718.36825215.2354005.60591404.3132494 1.14003442 2.7094737 2.84926072 4.4406865 5.37111752 5.5454005-.323278.0389245-.6118969.1672311-.8309914.3540274-.2702579.2275744-.4359198.5408238-.4359198.8909383v1.4237299c0 .3462014.1206877.5991076.3888825.826682.2700516.2275743.5793009.281945 1.0991863.4318764 0 0 .2170315.0875286 1.2322521.2040961-3.6579713.5739817-6.92499713 1.7118535-9.52463037 3.2445309-3.84426361 2.2660641-6.22294556 5.3995881-6.22294556 8.8581007v7.3699084c0 3.4585126 12.66477933 6.6424943 18.53164473 6.6424943l14.719977.1946224 2.7143382-.0350114 2.712275.0350114 14.7199771-.1946224c5.866659 0 18.5314384-3.1839817 18.5314384-6.6424943v-7.3699084c0-3.4585126-2.3784756-6.5920366-6.2227393-8.8581007z" mask="url(#a)" transform="translate(0 23)"/><path d="m117.674858 70.19378s-2.143314-4.3759768-2.813423-11.1078987c-.00413-.0157201-.00413-.0312333-.00413-.0467465-.145379-1.4907197-.219102-3.0964442-.182137-4.7960755.10635-4.9385906 1.245637-9.3830325 2.089829-12.0318677.002065-.00786.006196-.0175817.008261-.0254417 3.895302-.2461435 10.208157-.4728438 20.248219-.4728438 10.023748 0 16.309963.2188402 20.19081.4610537.00413.0138585.00826.0275102.01239.0411618.813423 2.5942286 1.989469 7.2357922 2.10222 12.6863199.092101 5.7198376-.708931 9.6504808-1.489726 12.0924727-.704801 2.2074317-1.393289 3.1998658-1.393289 3.1998658zm-16.674858 28.5375489v7.4018871c0 3.473313 12.677336 6.671317 18.549716 6.671317l14.734331.195467 2.71492-.035163 2.716986.035163 14.734331-.195467c5.87238 0 18.549716-3.198004 18.549716-6.671317v-7.4018871c0-3.4735194-2.381002-6.6206402-6.229014-8.8965369-2.602375-1.5393278-5.87238-2.6823439-9.533918-3.2586093 1.01621-.1170733 1.233453-.2051886 1.233453-.2051886.520393-.150375.829737-.2049817 1.100259-.4335435.268456-.2285619.389261-.4825654.389261-.830269v-1.4299077c0-.3518404-.16603-.6662423-.436345-.8948041-.219308-.1876069-.508208-.3164702-.831801-.3555636 2.524316-1.1095075 4.235209-2.8482322 5.376355-5.5694626.237894-.0781868.428291-.1660952.606505-.3146087.329995-.2773768.479504-.5861939.479504-1.0100158v-1.7387247c0-.0136517 0-.0273033-.002065-.040955.342179-.0918384.438617-.1485135.438617-.1485135.696541-.2949585 1.106453-.3983802 1.464945-.8439206.358493-.4453336.522458-.9357591.522458-1.6154461v-2.783904c0-.6778254-.223232-1.2931842-.581931-1.7387247-.268456-.3301219-.612494-.5665438-.995767-.6681038.172225-3.0983058.208983-6.7162019.176149-10.9418035-.032834-4.1923-.999897-8.3552281-2.675891-12.2252662.409706-.0372318.813423-.1503751.901601-.4631221.151574-.5411021-1.258028-3.9949714-1.585958-4.28993-.329995-.2949585-1.018276-.6974756-1.620857-.7891071-.317604-.0490219-.553226-.0939069-.792979-.1387919-4.81714-7.1948372-12.134228-12.5729697-19.979762-13.829129-1.145276-.1816085-2.303149-.2773769-3.466805-.2773769-1.135157 0-2.262054.08977-3.378833.2676552-7.907073 1.2346477-15.211771 6.6868301-20.000413 13.9795042-1.17811.1230717-1.356531.2169786-1.356531.2169786-.532576.134655-1.030459.2422135-1.356324.5351036-.329995.2970269-1.548993 4.0282732-1.22127 4.3250933.254208.2285618.581931.3888654.94889.4494705-.01239.0254417-.022715.048815-.032834.0742567-.647599 1.5080945-1.192566 3.0610739-1.618792 4.6434251h-1.196489v-17.3630467c1.00795-.2637252 1.747651-1.1448776 1.747651-2.1900568 0-1.2540909-1.067424-2.2719668-2.38286-2.2719668-1.315643 0-2.383067 1.0178759-2.383067 2.2719668 0 1.0648293.768405 1.9596334 1.805266 2.2037085v17.349395h-.057409c-.90986 0-1.647496.7034741-1.647496 1.570768v12.9070217c0 .8654323.737636 1.5686995 1.647496 1.5686995h1.424058c.032835.8362675.075788 1.6390263.129066 2.4107586.002065.0273034.00413.0546067.006195.0821168-.014455.0018616-.028704.0076532-.04316.0115833-.002065-.0273034-.002065-.0546067-.00413-.0821168-.378936.1017669-.71905.3361203-.981517.6623122-.358493.4455405-.581725 1.0608993-.581725 1.7387247v2.783904c0 .679687.14125 1.2071374.499949 1.6526779.360557.443472.903665.6035687 1.485389.8066888 0 0 .104492.0527451.440475.1387919-.001858.0175817-.001858.0330949-.001858.0506766v1.7387247c0 .4238219.129065.7541507.461125 1.0333891.266185.2227703.643263.3321904 1.059164.4318888 1.317501 2.7251605 3.218998 4.4442351 5.858131 5.5285076-.510274-.0703267-.694682-.1154185-.694682-.1154185-.411771 0-.784719.1427219-1.05524.3712837-.270522.2285618-.436345.5429637-.436345.8948041v1.4299077c0 .3477036.104491.6192888.376871.8499191.268456.2264934.678369.3084034 1.114714.4138934 0 0 .248012.0860468 1.268353.199397-3.675788.5762654-6.95839 1.7190746-9.568818 3.2644009-3.848012 2.2758967-6.229014 5.4230175-6.229014 8.8965369z"/><path d="m50 6h1v-6h-1z" mask="url(#b)"/><path d="m48 4h6v-1h-6z" mask="url(#b)"/><path d="m48.3140841 6-.3140841-.31428687 4.6859159-4.68571313.3140841.31408411z" mask="url(#b)"/><path d="m52.6859159 6-4.6859159-4.68591589.3140841-.31408411 4.6859159 4.68571313z" mask="url(#b)"/><path d="m194 31h1v-6h-1z" mask="url(#b)"/><path d="m192 28h6v-1h-6z" mask="url(#b)"/><path d="m192.314084 30-.314084-.3140841 4.685916-4.6859159.314084.3142869z" mask="url(#b)"/><path d="m196.685916 30-4.685916-4.6857131.314084-.3142869 4.685916 4.6859159z" mask="url(#b)"/><path d="m61 128h1v-6h-1z" mask="url(#b)"/><path d="m59 125h6v-1h-6z" mask="url(#b)"/><path d="m59.3142869 127-.3142869-.314287 4.6859159-4.685713.3140841.314084z" mask="url(#b)"/><path d="m63.6859159 127-4.6859159-4.685916.3142869-.314084 4.6857131 4.685713z" mask="url(#b)"/></g></svg>