<?xml version="1.0" encoding="UTF-8"?>
<svg width="216px" height="129px" viewBox="0 0 216 129" version="1.1" xmlns="http://www.w3.org/2000/svg" xmlns:xlink="http://www.w3.org/1999/xlink">
    <!-- Generator: Sketch 52.6 (67491) - http://www.bohemiancoding.com/sketch -->
    <title>Group 32</title>
    <desc>Created with Sketch.</desc>
    <defs>
        <polygon id="path-1" points="0 129 216 129 216 0 0 0"></polygon>
    </defs>
    <g id="Page-1" stroke="none" stroke-width="1" fill="none" fill-rule="evenodd">
        <g id="About-Us" transform="translate(-204.000000, -1919.000000)">
            <g id="Group-32" transform="translate(204.000000, 1919.000000)">
                <path d="M193.945255,39.3470681 C193.266693,42.8155155 190.351547,47.4506791 186.979517,49.1669988 C181.802387,51.8016785 176.720262,52.3732923 172.957326,51.9146872 C178.694921,57.0863137 187.196578,64.2814201 186.87742,65.5412701 C186.330479,67.7035471 176.479285,75 176.479285,75 L155,53.2436893 C155,53.2436893 164.302769,44.3248716 166.35594,45.5403721 C166.762022,45.7815012 167.830667,46.6238102 169.281312,47.8393108 C173.674319,47.9544549 183.078196,47.6617492 186.255597,43.5812809 C189.693437,39.1668784 190.56102,30.0982584 191.67222,22.9056158 C193.30067,12.3649261 194.318349,0 194.318349,0 L199,0 C199,0 197.473317,15.8785441 196.116358,27.5002081 C195.126719,35.9770106 194.27332,37.6696773 193.945255,39.3470681" id="Fill-1" fill="#FFFFFF"></path>
                <path d="M34,63 L25.673154,73 C24.2650258,72.007779 22.9376073,71.0092078 22,70.169392 L29.5540927,64.8352119 L29.55581,64.8352119 L34,63 Z" id="Fill-3" fill="#FFFFFF"></path>
                <path d="M46.450545,51.5137092 C46.450545,51.5137092 46.5413104,51.5663325 46.9335467,51.6863793 C46.218769,51.6682901 45.5283034,51.706113 44.8783581,51.8014927 C42.9382471,51.2012587 40.6496617,50.9660985 38.3156935,51.5317985 L30.6638438,55 C27.4886746,54.7089276 23.9455813,53.8686 20.3603469,52.2241232 C16.6114105,50.505645 13.3730297,45.866576 12.6177317,42.3934411 C12.2530492,40.7144303 11.3048746,39.0189747 10.2059646,30.5334746 C8.69698934,18.897157 7,3 7,3 L12.202804,3 C12.202804,3 13.3341302,15.3796211 15.1445764,25.9322286 C16.3796345,33.1333924 17.3440172,42.2125486 21.1642692,46.6329022 C24.6960169,50.7177825 35.1453868,51.0104994 40.028891,50.895386 C41.6399773,49.6784732 42.8280319,48.8348566 43.2786174,48.5931185 C43.8183476,48.3053351 44.810284,48.5848961 46.0080635,49.1801967 C46.2852223,49.5058031 46.6158677,49.7886531 47,50.0386136 C46.8055027,49.9728345 46.7358078,49.9415895 46.7358078,49.9415895 C46.5753475,49.9119889 46.4181288,49.9415895 46.2949471,50.012302 C46.1717655,50.0830145 46.0842417,50.1948389 46.0599295,50.3362639 L45.9561976,50.9036084 C45.9318854,51.0417444 45.952956,51.1568578 46.0437214,51.2686822 C46.132866,51.3772177 46.2868431,51.4397078 46.450545,51.5137092" id="Fill-5" fill="#FFFFFF"></path>
                <path d="M69.9506341,44 C69.631685,45.4581197 69.3230913,46.7247863 69,47.8239316 C69.1076971,47.8649573 69.2050387,47.9247863 69.2858116,48 C69.8657191,46.7777778 70.1142509,45.4136752 69.9506341,44" id="Fill-7" fill="#FFFFFF"></path>
                <path d="M55.4098419,44.6920967 C55.675218,47.310678 57.2347041,49.594628 59.5813658,50.8016391 C60.8754757,51.4672172 62.324487,51.7493069 63.7714711,51.6173126 C65.7968435,51.4327769 67.6215368,50.4681292 68.9092277,48.9011773 C70.1994525,47.3313421 70.7962532,45.3451802 70.5898307,43.3085593 C70.3508064,40.949962 69.0654804,38.8588775 67.0635881,37.5714524 C65.6117052,36.6382014 63.9393794,36.2273211 62.2273569,36.3835036 C58.0424882,36.7647493 54.984159,40.4921468 55.4098419,44.6920967 M63.0760201,52 C61.8023497,52 60.5462471,51.6970859 59.4048425,51.1101597 C56.949733,49.8474035 55.3184552,47.4607734 55.0412545,44.7257361 C54.5961456,40.3329207 57.8039706,36.4339626 62.1920523,36.033975 C63.9909005,35.8701035 65.7471805,36.3011674 67.2713619,37.2808727 C69.3648098,38.6272467 70.7087517,40.8120408 70.9582492,43.27492 C71.1737934,45.4012458 70.5497963,47.4759912 69.2012935,49.1169496 C67.850257,50.7607913 65.9345148,51.7728545 63.8067758,51.9668412 C63.5630216,51.9889471 63.3190985,52 63.0760201,52" id="Fill-9" fill="#210BBE"></path>
                <mask id="mask-2" fill="white">
                    <use xlink:href="#path-1"></use>
                </mask>
                <g id="Clip-12"></g>
                <polygon id="Fill-11" fill="#FFFFFF" mask="url(#mask-2)" points="31.8193679 23 32.1806321 23 32.1806321 18 31.8193679 18"></polygon>
                <polygon id="Fill-13" fill="#FFFFFF" mask="url(#mask-2)" points="30 20.1809469 35 20.1809469 35 19.8190531 30 19.8190531"></polygon>
                <polygon id="Fill-14" fill="#FFFFFF" mask="url(#mask-2)" points="30.2512673 22 30 21.7487327 33.7485705 18 34 18.2512673"></polygon>
                <polygon id="Fill-15" fill="#FFFFFF" mask="url(#mask-2)" points="33.7485705 22 30 18.2512673 30.2512673 18 34 21.7487327"></polygon>
                <polygon id="Fill-16" fill="#FFFFFF" mask="url(#mask-2)" points="70.8192855 103 71.1807145 103 71.1807145 98 70.8192855 98"></polygon>
                <polygon id="Fill-17" fill="#FFFFFF" mask="url(#mask-2)" points="69 101.181029 74 101.181029 74 100.818971 69 100.818971"></polygon>
                <polygon id="Fill-18" fill="#FFFFFF" mask="url(#mask-2)" points="69.2512673 103 69 102.748733 72.7485705 99 73 99.2514295"></polygon>
                <polygon id="Fill-19" fill="#FFFFFF" mask="url(#mask-2)" points="72.7485705 103 69 99.2514295 69.2512673 99 73 102.748733"></polygon>
                <polygon id="Fill-20" fill="#FFFFFF" mask="url(#mask-2)" points="164.819285 13 165.180715 13 165.180715 8 164.819285 8"></polygon>
                <polygon id="Fill-21" fill="#FFFFFF" mask="url(#mask-2)" points="162 11.1809469 167 11.1809469 167 10.8190531 162 10.8190531"></polygon>
                <polygon id="Fill-22" fill="#FFFFFF" mask="url(#mask-2)" points="163.251429 13 163 12.7485705 166.748733 9 167 9.25126729"></polygon>
                <polygon id="Fill-23" fill="#FFFFFF" mask="url(#mask-2)" points="166.748733 13 163 9.25126729 163.251429 9 167 12.7485705"></polygon>
                <path d="M10.0478513,111 L9.95848334,112 C9.93803754,111.666156 9.9668925,111.330523 10.0478513,111" id="Fill-24" fill="#FFBE07" mask="url(#mask-2)"></path>
                <path d="M73.1173985,64.000991 L73.0433649,64.0986082 C72.9938992,64.0340256 72.939487,63.9687823 72.8826015,63.9013918 L73.1173985,64.000991 Z" id="Fill-25" fill="#FFBE07" mask="url(#mask-2)"></path>
                <path d="M11.2135267,109 C11.013026,109.321628 10.8705649,109.65765 10.7864733,110 L10.7894412,109.967986 C10.838742,109.637052 10.9881282,109.311081 11.2135267,109" id="Fill-26" fill="#FFBE07" mask="url(#mask-2)"></path>
                <path d="M69.1310319,38.032086 C69.482832,39.558455 69.5918405,41.1228181 69.3820818,42.6624024 C68.9840356,40.893202 68.0459018,39.3635291 66.7774392,38.2583983 L69.1310319,38.032086 Z M98.7929059,51.1169009 L96.6044776,46.6203896 C96.1882634,45.9216298 95.2765559,45.6903617 94.5779105,46.1049923 L89.0052637,49.9440416 C88.3925038,50.3091147 88.1381507,51.0557801 88.3677292,51.7049825 C87.7995636,52.2699373 87.2627794,52.9670452 86.8333519,53.5947727 L77.5197316,65.8073768 L77.4421043,65.9097955 C77.3892517,65.842067 77.3330958,65.7726866 77.271985,65.7033062 C75.1215446,63.1461425 68.4769809,57.9888654 67.3472564,57.0059762 C66.4206841,56.1998419 65.1984676,55.5043859 63.7780538,55.0038558 C64.1926164,55.0335903 64.2851085,55.0137673 64.2851085,55.0137673 C64.5047771,54.9922924 64.6319537,54.9922924 64.7574787,54.9212601 C64.8813519,54.8502278 64.9490694,54.7577205 64.973844,54.6189597 L65.0778976,54.0473973 C65.1043239,53.9086365 65.0613811,53.7698757 64.9705407,53.6591974 C64.8962167,53.5683421 64.7905115,53.4956579 64.6633349,53.4560119 C65.75342,53.1983132 66.5643772,52.6317066 67.2200798,51.6306464 C67.3224817,51.617431 67.4050639,51.5959562 67.4859945,51.5497025 C67.6395974,51.4621511 67.7205279,51.3514728 67.7519092,51.1813256 L67.8790858,50.4875215 C67.8807374,50.4825658 67.882389,50.47761 67.8807374,50.4726543 C68.0244304,50.459439 68.0673732,50.4445717 68.0673732,50.4445717 C68.3679724,50.3784951 68.5397433,50.3669317 68.7148176,50.2166075 C68.8915435,50.0646314 68.9922938,49.879617 69.0434947,49.608703 L69.246647,48.4986164 C69.2978479,48.2277024 69.2516019,47.9666999 69.1425934,47.7618625 C69.1079089,47.7007417 69.0682694,47.6429247 69.0203717,47.5933673 C68.9559576,47.520683 68.8783304,47.462866 68.7924449,47.4232201 C69.0501013,46.361039 69.2961963,45.1369704 69.5505494,43.7278873 L69.5505494,43.7245835 C69.5901889,43.5114865 69.6281767,43.2934338 69.6678162,43.0704253 C69.9618088,41.395384 69.8825299,39.6641776 69.4960452,37.9957439 C69.6628612,38.0106111 69.8313289,37.9957439 69.8907881,37.878458 C69.9915384,37.6736206 69.6810293,36.1918532 69.5720208,36.0497886 C69.4613607,35.9077239 69.2169174,35.6962789 68.9823839,35.6153351 C68.8585106,35.5740372 68.7676702,35.5376951 68.6751781,35.501353 C67.279539,32.2768158 64.7508721,29.5941066 61.7085439,28.5154065 C61.2642517,28.3584746 60.8100496,28.2362329 60.3426343,28.1486814 C59.8900839,28.0660857 59.4325785,28.0181802 58.9734215,28.0066168 C55.7246378,27.9190653 52.4046683,29.5561126 49.9570971,32.1132763 C49.4764687,32.0752822 49.3988414,32.100061 49.3988414,32.100061 C49.1758695,32.1149282 48.969414,32.1215359 48.8174627,32.2140431 C48.6638598,32.3082022 47.9039384,33.7073738 48.0131121,33.8494384 C48.0973459,33.9584648 48.2162643,34.0460163 48.3581405,34.0988775 C48.351534,34.108789 48.3467442,34.1153967 48.3401376,34.1253082 C47.9701694,34.6803514 47.6381889,35.2585215 47.3524545,35.8598184 L46.8734778,35.7722669 L48.1485469,28.8441374 C48.5713678,28.8127511 48.9314262,28.5154065 49.0090534,28.099124 C49.0998938,27.5985939 48.7480937,27.1145829 48.2228709,27.01712 C47.6974829,26.919657 47.1953832,27.248388 47.1047079,27.7472662 C47.025429,28.1734601 47.266569,28.5864388 47.6629636,28.7598898 L46.3895461,35.6814117 L46.3664231,35.6781078 C46.0030614,35.6103793 45.6562162,35.8366916 45.5934537,36.1835937 L44.6454101,41.3326112 C44.5809959,41.6778614 44.8254392,42.0115481 45.1871493,42.0792766 L45.7568013,42.1833472 C45.7089036,42.5203378 45.666126,42.844113 45.6314415,43.1546729 C45.6297899,43.1662363 45.6297899,43.1777997 45.6281382,43.1877112 L45.6099701,43.1893632 C45.6116218,43.1777997 45.6132734,43.1678883 45.6149251,43.1563249 C45.4563672,43.1695402 45.3025992,43.2372687 45.1739361,43.3495989 C44.9972102,43.4999231 44.8634271,43.7295392 44.8138777,44.0004532 L44.6090739,45.1105397 C44.5593594,45.3814537 44.576041,45.6028103 44.6867012,45.8059958 C44.7990129,46.0108332 45.0038168,46.1132519 45.2218338,46.2371454 C45.2218338,46.2371454 45.2598216,46.2668799 45.3886498,46.3246969 C45.3851814,46.3329565 45.3836949,46.3395641 45.3820433,46.3445199 L45.2547015,47.038324 C45.2234854,47.2084712 45.2515634,47.3505358 45.3638752,47.4843409 C45.453064,47.5933673 45.5951053,47.6643996 45.7553148,47.7354319 C45.9502088,48.4441032 46.2557629,49.0239252 46.6785838,49.5095881 C46.9610149,49.8366672 47.2979503,50.1207965 47.6893899,50.3718875 C47.4910274,50.3058109 47.4201719,50.2744245 47.4201719,50.2744245 C47.2566592,50.2446901 47.0964497,50.2744245 46.9709248,50.3454569 C46.8453998,50.4164892 46.756211,50.5288194 46.7314364,50.670884 L46.6257312,51.2407945 C46.6009565,51.3795554 46.6224279,51.4951894 46.7149199,51.6075196 C46.8057604,51.7165459 46.9626665,51.7793187 47.1294826,51.8536548 C47.1294826,51.8536548 47.2219746,51.9065161 47.6216725,52.0271058 C46.8932975,52.0089348 46.1896972,52.0469288 45.5273879,52.1427399 C43.5503701,51.5397911 41.2180837,51.3035673 38.8398815,51.8718259 L31.0424703,55.3557136 L25.4367907,57.860016 L24.2608202,58.3853248 L23.5421899,59.1204268 L13.5300893,69.3755121 C12.9999116,69.1525037 12.413578,69.1095539 12.0566578,69.4581079 L7.85157221,75.5305457 C7.27201035,76.0988043 7.26210048,77.0387436 7.82861436,77.6185656 L11.2822019,80.567233 C11.8502023,81.1487069 12.7918045,81.1586184 13.3731832,80.5903598 L17.8887778,75.5503686 C18.4123489,75.0382751 18.4734597,74.2222294 18.0622004,73.6407554 L21.9353055,70.6821765 L29.2008873,65.1317437 L29.2023738,65.1317437 L33.4769935,63.2221306 L25.4681719,73.6275401 L24.7315387,74.5839986 C23.6893514,75.8477132 23.041907,77.3129614 22.8866524,78.7633424 C22.4968644,79.0458198 22.1368061,79.3811584 21.8180388,79.7677064 L2.22128309,103.537104 C2.11557788,103.665954 2.01647924,103.798107 1.92398718,103.931912 C0.885103122,105.084948 0.131953473,106.37179 0.00973181907,107.45049 L0.0295515467,111.742164 C-0.0117395525,112.102281 -0.00843626458,112.500393 0.0312031906,112.924935 C0.305376089,115.782747 2.33194324,119.724215 4.76151151,119.998433 C7.55278982,120.312296 9.86509138,115.677024 10.1789037,112.883637 L10.2978221,111.826412 C10.6248476,111.572017 10.9287501,111.277976 11.202923,110.945941 L30.074607,88.0570135 L31.5908161,89.3075128 L12.7191322,112.19644 C12.4086231,112.573077 12.1542699,112.977796 11.9527694,113.400686 C11.9511177,113.405642 11.9494661,113.408946 11.9461628,113.412249 C11.7347523,113.863222 11.5844527,114.334018 11.4969156,114.814725 L11.4011203,116.175902 L11.4026067,116.177554 L11.0873079,120.726927 C11.0460168,121.088696 11.0493201,121.486808 11.0889596,121.91135 C11.3647841,124.769162 13.3896996,128.71063 15.8207544,128.984848 C18.6121978,129.298711 20.9228477,124.663439 21.2366601,121.870052 L21.4332057,120.128934 C21.4431156,120.049642 21.4513738,119.965394 21.459632,119.879495 C21.5422142,119.790291 21.6214931,119.699436 21.7007721,119.605277 L41.2991794,95.835879 C41.6410697,95.4212484 41.9152426,94.9735796 42.1216981,94.5044359 C43.4727428,94.1013687 44.7412054,93.2522846 45.7371467,92.0447351 L61.3022395,74.035563 C62.1677009,72.9865973 63.4460733,71.1876624 64.584056,69.2103207 L77.1695831,74.537745 C78.48264,75.0927883 79.9063571,74.7838803 80.8411876,73.8687196 L80.8428393,73.8687196 C81.4275212,73.5829384 81.9808219,73.1104909 82.4152043,72.4778076 L91.9633581,57.0852681 C92.3878306,57.3479225 92.8651557,57.4602527 93.2417305,57.2355923 L98.2792446,53.1421481 C98.97789,52.7258657 99.2091202,51.8140089 98.7929059,51.1169009 Z" id="Fill-27" fill="#FFFFFF" mask="url(#mask-2)"></path>
                <path d="M97.4257037,33.8272034 L97.0702105,33.3231096 L107.57839,26.1750573 L107.933228,26.678989 L97.4257037,33.8272034 Z M95.2526086,36.6548921 L93.764616,36.392718 L93.2489053,35.0538152 L94.2005456,33.9736838 L95.6885382,34.23602 L96.204249,35.5747607 L95.2526086,36.6548921 Z M113.990372,24.4378703 C113.978905,24.2687048 113.830482,24.1408584 113.660108,24.152363 C113.603425,24.1562518 113.549528,24.175048 113.503822,24.206645 L111.26143,25.7519815 L109.84126,24.9881442 L109.606995,23.4066737 L111.849059,21.8593928 C111.989454,21.7620092 112.023856,21.5708068 111.926055,21.432104 C111.893618,21.3860858 111.849059,21.3494657 111.797291,21.3271048 C109.92743,20.4911615 107.727304,21.3126836 106.882803,23.1621615 C106.754367,23.4426457 106.662299,23.7378751 106.608894,24.0412063 C106.566628,24.2790751 106.548607,24.5213188 106.555488,24.7625902 L96.0833485,31.8861751 C95.8562917,31.7962452 95.6208799,31.7294864 95.3807172,31.6860608 C93.3540788,31.3287716 91.4195082,32.6637855 91.0584452,34.6676836 C90.6973821,36.6715818 92.0466178,38.5849019 94.0732561,38.9421911 C96.0992393,39.2993182 98.033646,37.9647904 98.3947091,35.9608923 C98.4369751,35.7230236 98.4549955,35.4807799 98.4479511,35.2396704 L103.427967,31.9023787 L106.522559,29.7704722 L106.523542,29.7719305 L107.033683,29.4209607 L107.032209,29.4195024 L108.92009,28.1165716 C109.147147,28.2058534 109.382723,28.2726122 109.623541,28.3163619 C111.640514,28.6789983 113.573774,27.3545167 113.94057,25.3588824 C113.995942,25.0553891 114.012816,24.7455765 113.990372,24.4378703 Z" id="Fill-28" fill="#FFFFFF" mask="url(#mask-2)"></path>
                <path d="M136.020551,39.4911562 C135.838753,42.0451536 136.875573,44.3951195 138.635605,45.9743175 C139.91511,47.1238374 141.576546,47.8652941 143.431369,47.983521 C147.838283,48.2645148 151.665727,44.9184621 151.979505,40.508858 C152.18085,37.6773055 150.883355,35.0948157 148.761803,33.5351039 C147.580375,32.6680515 146.143635,32.1168714 144.56765,32.0164931 C140.160909,31.7353356 136.334157,35.0823708 136.020551,39.4911562" id="Fill-29" fill="#FFFFFF" mask="url(#mask-2)"></path>
                <path d="M144.052524,32.3510259 C140.065164,32.3510259 136.67748,35.4694496 136.390061,39.5140631 C136.203518,42.1384014 137.351671,44.6315707 139.461096,46.1836556 C140.624456,47.0393763 142.006294,47.5406687 143.457073,47.6333998 C143.620974,47.6438101 143.784537,47.6489351 143.946749,47.6490953 C147.934615,47.6492554 151.322469,44.5305115 151.609887,40.4858979 C151.778012,38.1222958 150.867432,35.8613546 149.111831,34.2831641 C147.838809,33.139 146.258599,32.476269 144.542031,32.3667213 C144.37813,32.356151 144.214566,32.3510259 144.052524,32.3510259 M143.946918,48 C143.776089,48 143.604922,47.9945547 143.432234,47.9835038 C141.907616,47.8862883 140.455992,47.3596909 139.234,46.4608879 C137.027079,44.8372128 135.825701,42.2314528 136.020523,39.49052 L136.205377,39.5023716 L136.020523,39.49052 C136.333456,35.0884352 140.167222,31.7353811 144.566869,32.0164572 C146.370458,32.1316104 148.030252,32.8273339 149.366638,34.0285139 C151.2025,35.6789354 152.154816,38.0412562 151.979425,40.509441 C151.678827,44.7388762 148.127241,47.9996797 143.946918,48" id="Fill-30" fill="#FFFFFF" mask="url(#mask-2)"></path>
                <path d="M215.98985,97.6305408 C215.952032,98.1849915 215.807396,98.6896333 215.530896,99.1082567 C213.989992,101.441734 208.92226,100.284334 206.559817,98.7622166 L205.969828,98.3814413 C205.906965,98.3416271 204.28744,97.3574116 204.224079,97.396079 C203.338681,97.9320152 200.353076,98.0603056 200.293032,97.9962423 C200.353076,98.0786562 201.677524,99.1375849 201.733587,99.2232757 L201.974425,99.435127 C202.92335,100.477671 203.427752,101.404869 203.573714,102.389084 C203.574378,102.397604 203.575041,102.406288 203.575705,102.414808 L203.678542,106.64872 C203.679372,106.654946 203.67904,106.661009 203.679869,106.665924 C203.729961,107.020648 203.73925,107.413056 203.710721,107.831024 C203.517154,110.670454 201.597244,114.636316 199.164805,114.976294 C196.370777,115.367064 193.918766,110.836101 193.523173,108.077283 L193.384674,107.108305 C193.378205,107.060134 193.351501,107.015569 193.311361,106.985913 C192.998702,106.753417 192.705947,106.486678 192.440228,106.183729 L186.277774,99.2181965 L185.34245,98.156974 C183.389035,98.3257341 181.132913,98.5356192 180.020609,98.6915995 C179.963717,98.7074924 179.906824,98.7232215 179.850098,98.7391144 C178.151123,99.2100043 176.255927,98.9234398 174.746206,97.7996286 L165.013798,90.5562157 C164.959394,90.515746 164.888237,90.5073899 164.825705,90.5339328 C162.249957,91.5951553 159.241463,90.697286 157.230326,88.4236123 L141.087824,71.0078975 C140.211051,70.0168005 138.919445,68.330838 137.745937,66.4580924 C137.695679,66.3776446 137.59251,66.3463503 137.504269,66.385673 L125.174052,71.9554117 C124.580746,72.2231341 123.959906,72.3140679 123.366932,72.2488577 C123.343545,72.2460723 123.319991,72.2482023 123.297268,72.2541007 C122.703298,72.422697 122.020922,72.4518613 121.314494,72.3070226 L103.86297,67.9274522 C103.766767,67.9025478 103.667579,67.9572719 103.635235,68.0504996 C103.497731,68.44897 103.251419,68.773055 102.884355,68.8672657 C102.871584,68.8702149 102.859144,68.8716895 102.846704,68.873328 L96.3805468,69.4113942 C96.3744097,69.4122134 96.3669457,69.4130326 96.3604769,69.4149987 C95.5689599,69.5911319 94.7721351,69.0999253 94.5875252,68.3188773 L93.0421429,63.6119451 C93.0401525,63.6044082 93.0381621,63.5970352 93.0363376,63.5894983 C92.8576989,62.8087781 93.3551339,62.0216678 94.1458215,61.8393086 L100.850495,60.745481 C101.512802,60.5935969 102.181411,60.9099812 102.491251,61.4740987 C102.523097,61.5325912 102.585297,61.5660156 102.652142,61.5679817 C103.425082,61.5912477 104.253255,61.7138035 104.96582,61.8591338 L121.990734,64.4437849 C122.031205,64.4501749 122.071345,64.4431295 122.107172,64.4259258 C122.129067,64.4151121 122.150795,64.4042983 122.172524,64.3947953 L124.778459,63.2178984 C124.80533,63.2049547 124.828883,63.1869318 124.846465,63.1648127 C126.961268,60.5573872 133.430908,55.2979705 134.532762,54.2963875 C135.439225,53.470446 136.6474,52.7452691 138.058264,52.2099883 C137.642933,52.2496387 137.548555,52.233582 137.548555,52.233582 C137.328947,52.2189998 137.201064,52.2227682 137.073015,52.155428 C136.946292,52.0882517 136.876794,51.9991201 136.84644,51.8624736 L136.72486,51.2998307 C136.694672,51.1607265 136.735144,51.0226053 136.823219,50.9108632 C136.824712,50.9098802 136.824712,50.9085694 136.826039,50.9074225 C136.910133,50.8004319 136.867505,50.6446155 136.736305,50.6052927 C135.848087,50.3465819 135.147299,49.8458723 134.553662,49.0289423 C134.525464,48.989128 134.481509,48.9604552 134.43374,48.9524268 C134.362583,48.9416131 134.300715,48.9227709 134.237353,48.8891827 C134.08177,48.8077519 133.996183,48.6992867 133.959195,48.5328204 L133.811241,47.8484408 C133.810412,47.8435255 133.809583,47.8372994 133.808753,47.832384 C133.664117,47.8251749 133.621655,47.8114119 133.621655,47.8114119 C133.318451,47.753247 133.145285,47.7465294 132.964325,47.602346 C132.783364,47.4568519 132.676545,47.2782611 132.619321,47.0100472 L132.381634,45.9145811 C132.324244,45.6488249 132.360569,45.3879841 132.466226,45.1820312 C132.52345,45.0707806 132.601905,44.9755868 132.695952,44.9048059 C132.75865,44.8563078 132.789998,44.7788093 132.769099,44.7027853 L141.811501,43.5673411 C141.492705,42.3904442 141.180046,41.0144759 140.84599,39.4094527 C140.517242,37.8316277 140.531174,36.192197 140.828242,34.598479 L132.036631,35.5844968 C131.739563,37.1782148 131.675373,38.8269846 132.004121,40.4046458 C132.338177,42.0098329 132.642543,43.5018032 132.961339,44.6785363 L132.769099,44.7027853 C132.450303,43.5270353 132.137644,42.1499201 131.804749,40.5448969 C131.476166,38.9670718 131.489933,37.3289519 131.787001,35.735234 C131.806573,35.6300456 131.736743,35.5261681 131.628598,35.5140435 C131.541352,35.5033936 131.468039,35.470297 131.431714,35.4031206 C131.325062,35.2037216 131.593103,33.725678 131.699589,33.58215 C131.806076,33.4374751 132.046417,33.2220192 132.277967,33.13469 C132.368199,33.1014295 132.44201,33.0721013 132.510844,33.0435923 C132.55679,33.0247501 132.59411,32.9867381 132.61335,32.941517 C133.928675,29.7360581 136.37571,27.0355688 139.376243,25.8886555 C139.817615,25.7208785 140.271758,25.5858704 140.735688,25.4882189 C141.188339,25.3922059 141.646132,25.3320749 142.106081,25.3088089 C145.339325,25.1297266 148.688179,26.6331661 151.213005,29.0621646 C151.253643,29.1016512 151.308047,29.1211488 151.364276,29.1150865 C151.767332,29.0757638 151.836499,29.0950974 151.836499,29.0950974 C152.060419,29.1026343 152.268582,29.102962 152.422341,29.1904551 C152.579915,29.2804059 153.384038,30.6450689 153.278712,30.7899076 C153.232269,30.852824 153.17405,30.9090228 153.107537,30.9558824 C153.088131,31.0587769 153.078013,31.115631 153.059934,31.2183617 C153.378232,31.6741778 153.670656,32.147853 153.932228,32.6377488 C153.97187,32.7113151 154.057126,32.7512932 154.140059,32.733598 L154.288344,32.7031229 C154.391513,32.6805123 154.45786,32.5808947 154.436297,32.4791471 L153.025433,25.9632049 C153.00951,25.8886555 152.948969,25.8319652 152.873001,25.8183661 C152.503118,25.7546305 152.194108,25.4880551 152.113994,25.116619 C152.006347,24.6234463 152.345876,24.1330589 152.871509,24.0224637 C153.395814,23.9117046 153.908841,24.2212074 154.015161,24.715527 C154.096104,25.0918784 153.918129,25.4669191 153.596845,25.6718889 C153.529503,25.713997 153.494339,25.7924786 153.511423,25.8694857 L154.959939,32.5604141 L154.982497,32.5558264 C155.345912,32.4783279 155.700701,32.6929645 155.774014,33.0345808 L156.872717,38.1132768 C156.947357,38.4535824 156.712489,38.7917579 156.348909,38.8692565 L155.960283,38.9523258 C155.861094,38.9726426 155.795079,39.0686556 155.812993,39.1689286 C155.857943,39.4364871 155.898414,39.696181 155.934573,39.9483381 C155.936232,39.9594795 155.938057,39.970621 155.939715,39.9815986 C155.946018,39.9809432 155.952155,39.9812709 155.958292,39.9817624 C155.956468,39.9717679 155.953482,39.9606265 155.951824,39.949485 C156.112383,39.9576773 156.267966,40.0205936 156.40066,40.1274204 C156.58162,40.2729146 156.722607,40.4952519 156.779997,40.7623189 L157.017519,41.8577849 C157.075075,42.1248519 157.063796,42.3444039 156.959134,42.5505206 C156.852315,42.7551627 156.650289,42.8641194 156.434496,42.9930653 C156.434496,42.9930653 156.39784,43.0223935 156.270786,43.0849822 C156.272942,43.0912083 156.274932,43.0974344 156.275762,43.1036605 L156.423715,43.78804 C156.460703,43.9545063 156.437316,44.096232 156.329005,44.2333701 C156.254365,44.3264339 156.143234,44.3936103 156.01618,44.4575097 C155.968742,44.4812672 155.933412,44.5253414 155.920143,44.5771164 C155.885145,44.708356 155.846664,44.8354996 155.803539,44.9587108 C155.768043,45.0616053 155.671177,45.2999995 155.6249,45.3984702 C155.284209,46.1238109 154.772012,46.6920245 154.075869,47.1611121 C154.273914,47.0909865 154.34308,47.057726 154.34308,47.057726 C154.507786,47.0233186 154.668345,47.0475677 154.796395,47.114744 C154.923283,47.1819204 155.016002,47.2921879 155.046356,47.4301452 L155.167936,47.9927881 C155.19829,48.1294346 155.17905,48.2456005 155.089647,48.3584896 C155.002733,48.4702317 154.845657,48.5369165 154.680619,48.6152343 C154.680619,48.6152343 154.588729,48.6702861 154.191975,48.8005427 C154.908355,48.7625307 155.601181,48.7792429 156.256853,48.8523177 C156.282562,48.8552669 156.308935,48.8521538 156.334147,48.8439616 C158.289055,48.2003794 160.601737,47.906278 162.985079,48.3942077 C162.997354,48.3974846 163.009462,48.4005977 163.02157,48.4051853 L176.62946,53.9564096 L177.790694,54.4302486 C177.812423,54.4390963 177.833654,54.4526954 177.850074,54.4685883 L178.56662,55.152804 L188.822836,64.9503929 C188.876411,65.0016763 188.9547,65.0142924 189.024862,64.9870941 C189.512511,64.7967065 190.032503,64.7652483 190.374189,65.0609881 C190.386132,65.0703273 190.396416,65.0821241 190.405538,65.0935932 L194.777625,70.9643148 C194.783264,70.9720155 194.790231,70.97988 194.797197,70.9865977 C195.383371,71.5323646 195.421189,72.4492398 194.879135,73.0387533 C194.873662,73.0444878 194.868354,73.0503862 194.861885,73.0548101 L191.487654,76.0669321 C190.934156,76.6593947 189.991037,76.6969152 189.391262,76.1501652 L184.712985,71.2800436 C184.212398,70.8245552 184.104253,70.1011806 184.402316,69.5310008 C184.44511,69.4480954 184.420893,69.3473309 184.344097,69.2919513 L173.079575,61.287971 C173.067965,61.2786319 173.054695,61.2715865 173.041426,61.2671627 L169.411096,59.7855146 C169.227813,59.7108014 169.06543,59.9277318 169.190162,60.0804351 L177.816403,70.5163632 C178.878449,71.7170176 179.563314,73.1226418 179.774794,74.5285937 C179.782424,74.5780748 179.810456,74.6226406 179.853084,74.6524603 C180.226948,74.9124819 180.575268,75.219527 180.88942,75.5747424 L191.530945,87.6063546 C191.567934,87.6468243 191.619518,87.6710733 191.67525,87.6710733 L200.340138,87.6723841 C200.37862,87.6723841 200.414115,87.6614065 200.445298,87.6414174 C202.488613,86.2813421 205.507391,85.6841279 207.28449,86.8282559 L212.162802,90.2744027 C214.101289,91.5235551 216.162517,95.0981562 215.98985,97.6305408" id="Fill-31" fill="#FFFFFF" mask="url(#mask-2)"></path>
            </g>
        </g>
    </g>
</svg>