<svg viewBox="0 0 363.48 155.17" xmlns="http://www.w3.org/2000/svg"><g fill="#fff"><path d="m28.94 31.61-.6-7.32h-2.77l-.57 7.32h-1.87l2.38-25h3.07l2.21 25zm-1.68-20.36c-.14-1.52-.2-2.48-.2-3.2h-.13c0 .72-.07 1.68-.2 3.2l-1.06 11.29h2.58z"/><path d="m37.15 31.61v-25h4.1c1.45 0 2.11.29 2.6 1.58.4 1 .57 2.18.57 5.15s-.2 4-.53 4.59a1.48 1.48 0 0 1 -.7.66v.16a1.8 1.8 0 0 1 .76.6c.5.62.66 1.42.66 5.51 0 3.1-.13 4-.59 5.12a2.23 2.23 0 0 1 -2.54 1.61zm3.67-13.61c1 0 1.29-.16 1.48-.62s.33-1.06.33-4.19c0-2.88-.1-3.54-.36-4.13s-.53-.69-1.15-.69h-2.18v9.63zm.4 11.85a1.1 1.1 0 0 0 1.22-.72c.26-.66.36-1.36.36-4.43 0-3.36 0-3.86-.33-4.52-.23-.49-.46-.66-1.55-.66h-2v10.34z"/><path d="m51.64 31.61-.59-7.32h-2.77l-.63 7.32h-1.82l2.38-25h3.07l2.21 25zm-1.64-20.36c-.13-1.52-.2-2.48-.2-3.2h-.13c0 .72-.07 1.68-.2 3.2l-1 11.29h2.53z"/><path d="m55.47 31.61v-25h3.83c1.71 0 2.51.49 3 2s.7 2.94.7 10.49c0 8-.17 9.15-.63 10.6s-1.26 1.91-3.07 1.91zm3.8-1.85a1.29 1.29 0 0 0 1.51-1.18c.3-1.19.4-2.28.4-9.48 0-6.89 0-8.18-.4-9.37-.29-1-.66-1.29-1.51-1.29h-2v21.32z"/><path d="m69.59 31.61v-25h6.08v1.83h-4.29v9.56h4.22v1.75h-4.22v10h4.25v1.88z"/><path d="m83.62 31.61c-1.85-9.7-2-10.63-2.08-11.45h-.13c-.07.82-.27 1.75-2.21 11.45h-1.82l2.77-13.13-2.41-11.69v-.16h1.82c1.65 8.55 1.85 9.5 1.88 10.2h.13c.07-.7.23-1.65 1.88-10.2h1.75v.16l-2.47 11.59 2.77 13.23z"/><path d="m92.79 31.61-.59-7.32h-2.77l-.63 7.32h-1.8l2.38-25h3.07l2.21 25zm-1.68-20.36c-.13-1.52-.2-2.48-.2-3.2h-.13c0 .72-.07 1.68-.2 3.2l-1.06 11.29h2.58z"/><path d="m105.79 31.61v-18.91c0-1.12 0-2.08 0-2.94h-.13c-.14 1.36-.47 3.5-3.21 21.85h-.95c-2.74-18.38-3.13-20.56-3.2-21.85h-.13v2.94 18.91h-1.58v-25h3c2.18 16.9 2.28 17.66 2.31 18.28h.13c0-.62.14-1.38 2.38-18.28h3v25z"/><path d="m109.85 31.61v-25h4c1.52 0 2.31.53 2.7 2.24a24 24 0 0 1 .5 5.94 24.69 24.69 0 0 1 -.5 6.17c-.36 1.66-1.12 2.28-2.74 2.28h-2.21v8.35zm3.76-10.13c.6 0 1-.23 1.23-1.22a19.9 19.9 0 0 0 .42-5.48 20.79 20.79 0 0 0 -.42-5.12c-.24-1-.66-1.22-1.23-1.22h-2v13z"/><path d="m119.19 31.61v-25h1.81v23.1h4v1.88z"/><path d="m126.75 31.61v-25h6.07v1.83h-4.29v9.56h4.22v1.75h-4.22v10h4.26v1.88z"/><path d="m22.91 68.46v-18.17h3c1.06 0 1.54.21 1.9 1.15a9.94 9.94 0 0 1 .41 3.74c0 2.26-.15 2.91-.39 3.34a1.1 1.1 0 0 1 -.5.48v.12a1.21 1.21 0 0 1 .55.43c.36.46.48 1 .48 4a8.88 8.88 0 0 1 -.43 3.72 1.64 1.64 0 0 1 -1.85 1.18zm2.66-9.89c.77 0 .94-.12 1.08-.46s.24-.77.24-3c0-2.09-.07-2.57-.26-3a.75.75 0 0 0 -.84-.5h-1.59v7zm.29 8.61a.79.79 0 0 0 .89-.53c.19-.48.26-1 .26-3.21 0-2.45 0-2.81-.24-3.29s-.34-.48-1.13-.48h-1.44v7.51z"/><path d="m33.59 50.29h1.29v13.44c0 2.42 0 3.09-.41 3.86s-1.12 1.18-2.28 1.18-1.89-.29-2.28-1.18-.43-1.42-.43-3.86v-13.44h1.35v13.44c0 2.13 0 2.56.28 3.09a1.09 1.09 0 0 0 1.11.58 1.05 1.05 0 0 0 1.08-.58c.24-.53.29-1 .29-3.09z"/><path d="m36.35 68.46v-18.17h1.34v18.17z"/><path d="m39.25 68.46v-18.17h1.3v16.8h2.9v1.37z"/><path d="m44.89 68.46v-16.85h-2v-1.32h5.21v1.32h-1.89v16.85z"/><path d="m53.6 68.46v-16.85h-2v-1.32h5.21v1.32h-1.89v16.85z"/><path d="m57.92 68.46v-18.17h1.34v18.17z"/><path d="m62.29 68.46v-16.85h-2v-1.32h5.21v1.32h-1.89v16.85z"/><path d="m66.58 68.46v-18.17h1.3v16.8h2.91v1.37z"/><path d="m71.86 68.46v-18.17h1.35v18.17z"/><path d="m79.43 68.46c-2.81-12.29-3.17-13.66-3.41-15h-.1v4.35 10.65h-1.18v-18.17h1.71c2.18 10.36 2.35 11.3 2.45 12h.1c0-.69 0-1.61 0-3.21v-8.79h1.23v18.17z"/><path d="m83.77 60v-1.31h3.07v2.66c0 3.74-.19 5-.48 5.93-.36 1.15-.91 1.49-2.21 1.49s-1.85-.36-2.21-1.49-.48-2.21-.48-8.07c0-5.61.15-6.69.43-7.6a2 2 0 0 1 2.31-1.61c1.32 0 1.9.44 2.21 1.47a12.43 12.43 0 0 1 .41 3.45 7.3 7.3 0 0 1 0 .94h-1.27c0-.17 0-.38 0-.94a14.46 14.46 0 0 0 -.24-2.52c-.17-.76-.39-1.1-1.13-1.1s-.94.26-1.13 1.1-.29 1.66-.29 6.84c0 5.43.12 6.36.34 7.25.17.72.43 1 1.1 1s.94-.24 1.11-1a18.89 18.89 0 0 0 .33-4.87c0-.94 0-1.37 0-1.63z"/><path d="m92.19 62.38a16 16 0 0 0 -.07 1.83 5.91 5.91 0 0 0 .34 2.71.84.84 0 0 0 .88.53c.48 0 .82-.07 1-.51a8.8 8.8 0 0 0 .39-3.24 7.86 7.86 0 0 0 -.17-2.64 1.78 1.78 0 0 0 -.51-.67c-.52-.53-1.75-1.34-2.13-1.75a3.26 3.26 0 0 1 -.75-1.08 10.91 10.91 0 0 1 -.26-3.51 9.34 9.34 0 0 1 .26-2.61 1.92 1.92 0 0 1 2.2-1.44c1.27 0 1.82.41 2.13 1.18a7.3 7.3 0 0 1 .36 2.64 12.36 12.36 0 0 1 -.12 2.14h-1.15a13.45 13.45 0 0 0 .1-1.85 7.45 7.45 0 0 0 -.19-1.87c-.17-.7-.49-.94-1.13-.94s-.89.24-1.06 1a8.65 8.65 0 0 0 -.17 2c0 2.4 0 2.54.2 2.93a1.74 1.74 0 0 0 .43.62c.41.43 1.68 1.22 2.2 1.73a2.53 2.53 0 0 1 .73 1c.16.38.26.69.26 3.21a10.44 10.44 0 0 1 -.53 4c-.38.86-1 1.08-2.09 1.08a1.87 1.87 0 0 1 -2.06-1.37 8.73 8.73 0 0 1 -.34-3 18.08 18.08 0 0 1 .1-2z"/><path d="m101.53 68.46v-8.62h-2.91v8.62h-1.32v-18.17h1.32v8.28h2.91v-8.28h1.32v18.17z"/><path d="m106.88 68.77c-1.27 0-1.85-.36-2.21-1.49s-.48-2.21-.48-7.92.12-6.77.48-7.9.94-1.49 2.21-1.49 1.87.39 2.21 1.49.48 2.19.48 7.9-.15 6.81-.48 7.92-.94 1.49-2.21 1.49zm1.39-9.44c0-5.32-.07-6.16-.29-7.1-.14-.7-.45-1-1.1-1s-.94.26-1.08.94c-.22 1-.31 1.75-.31 7.12s.07 6.24.31 7.13c.17.72.46.94 1.08.94s.91-.22 1.08-.94c.22-.85.31-1.76.31-7.09z"/><path d="m114.92 50.29h1.3v13.44c0 2.42 0 3.09-.41 3.86a2.16 2.16 0 0 1 -2.28 1.18c-1.16 0-1.9-.29-2.28-1.18s-.44-1.42-.44-3.86v-13.44h1.35v13.44c0 2.13 0 2.56.29 3.09a1.08 1.08 0 0 0 1.1.58 1.05 1.05 0 0 0 1.08-.58c.24-.53.29-1 .29-3.09z"/><path d="m117.65 68.46v-18.17h1.35v16.8h2.9v1.37z"/><path d="m122.91 68.46v-18.17h2.78a1.94 1.94 0 0 1 2.21 1.44c.39 1.08.48 2.13.48 7.63 0 5.78-.12 6.65-.45 7.7s-.92 1.4-2.24 1.4zm2.76-1.35a.94.94 0 0 0 1.1-.86c.22-.87.29-1.66.29-6.89 0-5 0-6-.29-6.82-.21-.69-.48-.93-1.1-.93h-1.46v15.5z"/><path d="m135.22 68.77c-1.27 0-1.85-.36-2.21-1.49s-.48-2.21-.48-7.92.12-6.77.48-7.9.99-1.46 2.21-1.46 1.87.39 2.21 1.49.48 2.19.48 7.9-.14 6.81-.48 7.92-.94 1.46-2.21 1.46zm1.39-9.44c0-5.32-.07-6.16-.28-7.1-.15-.7-.46-1-1.11-1s-.93.26-1.08.94c-.21 1-.31 1.75-.31 7.12s.07 6.24.31 7.13c.17.72.46.94 1.08.94s.91-.22 1.08-.94c.22-.85.31-1.76.31-7.09z"/><path d="m143.93 68.46c-2.8-12.29-3.16-13.66-3.4-15h-.1v4.35 10.65h-1.23v-18.17h1.8c2.18 10.36 2.35 11.3 2.45 12h.09c0-.69-.05-1.61-.05-3.21v-8.79h1.23v18.17z"/><path d="m146.19 68.46v-18.17h1.3v16.8h2.9v1.37z"/><path d="m151.81 68.46v-8.57l-2.21-9.48v-.12h1.32c1.2 5.61 1.44 6.88 1.49 7.51h.09c.05-.63.31-1.9 1.61-7.51h1.27v.12l-2.18 9.45v8.6z"/><path d="m159.39 68.46v-18.17h3c1 0 1.53.21 1.89 1.15a9.94 9.94 0 0 1 .41 3.74c0 2.26-.14 2.91-.38 3.34a1.12 1.12 0 0 1 -.51.48v.12a1.21 1.21 0 0 1 .55.43c.36.46.48 1 .48 4 0 2.25-.09 2.9-.43 3.72a1.62 1.62 0 0 1 -1.85 1.18zm2.66-9.89c.77 0 .94-.12 1.08-.46s.24-.77.24-3c0-2.09-.07-2.57-.26-3s-.38-.5-.84-.5h-1.58v7zm.29 8.61a.79.79 0 0 0 .89-.53c.19-.48.26-1 .26-3.21 0-2.45 0-2.81-.24-3.29s-.33-.48-1.12-.48h-1.44v7.51z"/><path d="m166.08 68.46v-18.17h4.42v1.32h-3.12v7h3.07v1.27h-3.07v7.25h3.1v1.37z"/><path d="m178.83 50.29h1.3v13.44c0 2.42 0 3.09-.41 3.86a2.16 2.16 0 0 1 -2.28 1.18c-1.16 0-1.9-.29-2.28-1.18s-.44-1.42-.44-3.86v-13.44h1.35v13.44c0 2.13.05 2.56.29 3.09a1.08 1.08 0 0 0 1.1.58 1 1 0 0 0 1.08-.58c.24-.53.29-1 .29-3.09z"/><path d="m182.6 62.38a15.42 15.42 0 0 0 -.08 1.83 5.91 5.91 0 0 0 .34 2.71.86.86 0 0 0 .89.53c.48 0 .81-.07 1-.51a8.87 8.87 0 0 0 .38-3.24c0-2.18-.07-2.37-.17-2.64a1.64 1.64 0 0 0 -.5-.67c-.53-.53-1.75-1.34-2.14-1.75a3.24 3.24 0 0 1 -.74-1.08 10.75 10.75 0 0 1 -.27-3.51 9.27 9.27 0 0 1 .27-2.61c.31-1.06.93-1.47 2.18-1.47s1.83.41 2.14 1.18a7.3 7.3 0 0 1 .36 2.64 13.51 13.51 0 0 1 -.12 2.14h-1.14a16 16 0 0 0 .09-1.85 7.45 7.45 0 0 0 -.19-1.87c-.17-.7-.48-.94-1.13-.94s-.89.24-1.05 1a8.65 8.65 0 0 0 -.17 2c0 2.4 0 2.54.19 2.93a1.87 1.87 0 0 0 .43.62c.41.43 1.68 1.22 2.21 1.73a2.6 2.6 0 0 1 .72 1c.17.38.26.69.26 3.21a10.7 10.7 0 0 1 -.52 4c-.39.86-1 1.08-2.09 1.08a1.87 1.87 0 0 1 -2.07-1.37 9.08 9.08 0 0 1 -.33-3c0-1 .05-1.58.09-2z"/><path d="m187.73 68.46v-18.17h4.42v1.32h-3.15v7h3.07v1.27h-3.07v7.25h3.09v1.37z"/><path d="m193.54 68.46v-18.17h2.78a1.94 1.94 0 0 1 2.21 1.44c.39 1.08.48 2.13.48 7.63 0 5.78-.12 6.65-.45 7.7s-.92 1.4-2.24 1.4zm2.76-1.35a.94.94 0 0 0 1.1-.86c.22-.87.29-1.66.29-6.89 0-5 0-6-.29-6.82-.21-.69-.48-.93-1.1-.93h-1.46v15.5z"/><path d="m203.33 68.46v-18.17h4.37v1.32h-3.07v7.08h3v1.31h-3v8.5z"/><path d="m211.35 68.77c-1.27 0-1.85-.36-2.21-1.49s-.48-2.21-.48-7.92.12-6.77.48-7.9.94-1.49 2.21-1.49 1.87.39 2.2 1.49.49 2.19.49 7.9-.15 6.81-.49 7.92-.93 1.49-2.2 1.49zm1.39-9.44c0-5.32-.07-6.16-.29-7.1-.14-.7-.45-1-1.1-1s-.94.26-1.08.94c-.22 1-.31 1.75-.31 7.12s.07 6.24.31 7.13c.16.72.45.94 1.08.94s.91-.22 1.08-.94c.21-.85.31-1.76.31-7.09z"/><path d="m219.56 68.46a13.89 13.89 0 0 1 -.32-3.41c-.09-2.84-.14-3.29-.33-3.89a.91.91 0 0 0 -1-.7h-1.21v8h-1.3v-18.17h2.93a1.82 1.82 0 0 1 1.71.84c.38.57.64 1.32.64 4a11 11 0 0 1 -.33 3.75 1.28 1.28 0 0 1 -.82.93v.19a1.35 1.35 0 0 1 .63.89 16.8 16.8 0 0 1 .4 3.93c.15 2.91.17 3.12.32 3.58v.1zm-1.68-9.2c.57 0 .86-.07 1.12-.5s.36-1.08.36-3.58c0-2.28 0-2.61-.31-3.09a.86.86 0 0 0 -.81-.51h-1.54v7.68z"/><path d="m226.54 68.46v-16.85h-2v-1.32h5.21v1.32h-1.92v16.85z"/><path d="m230.86 68.46v-18.17h1.34v18.17z"/><path d="m235.23 68.46v-16.85h-2v-1.32h5.21v1.32h-1.92v16.85z"/><path d="m239.52 68.46v-18.17h1.3v16.8h2.9v1.37z"/><path d="m244.78 68.46v-18.17h4.41v1.32h-3.12v7h3.08v1.27h-3.08v7.25h3.1v1.37z"/><path d="m251.62 62.38a16 16 0 0 0 -.07 1.83 6 6 0 0 0 .33 2.71.86.86 0 0 0 .89.53c.48 0 .82-.07 1-.51a8.87 8.87 0 0 0 .38-3.24c0-2.18-.07-2.37-.17-2.64a1.64 1.64 0 0 0 -.5-.67c-.53-.53-1.75-1.34-2.14-1.75a3.39 3.39 0 0 1 -.74-1.08 10.91 10.91 0 0 1 -.26-3.51 9.34 9.34 0 0 1 .26-2.61c.31-1.06.94-1.47 2.18-1.47s1.83.41 2.14 1.18a7.3 7.3 0 0 1 .36 2.64 13.51 13.51 0 0 1 -.12 2.14h-1.16a14 14 0 0 0 .09-1.85 7.45 7.45 0 0 0 -.19-1.87c-.17-.7-.48-.94-1.13-.94s-.88.24-1 1a8.65 8.65 0 0 0 -.17 2c0 2.4 0 2.54.19 2.93a1.87 1.87 0 0 0 .43.62c.41.43 1.68 1.22 2.21 1.73a2.5 2.5 0 0 1 .72 1c.17.38.27.69.27 3.21a10.65 10.65 0 0 1 -.53 4c-.39.86-1 1.08-2.09 1.08a1.86 1.86 0 0 1 -2.06-1.37 8.73 8.73 0 0 1 -.34-3 18.08 18.08 0 0 1 .1-2z"/><path d="m256.35 68.46v-2.72h1.29v2.72z"/><path d="m266.81 68.46c-2.81-12.29-3.17-13.66-3.41-15h-.1c.05 1.37.05 2.43.05 4.35v10.65h-1.22v-18.17h1.7c2.19 10.36 2.36 11.3 2.45 12h.1c0-.69-.05-1.61-.05-3.21v-8.79h1.22v18.17z"/><path d="m269.06 68.46v-18.17h4.42v1.32h-3.12v7h3.07v1.27h-3.07v7.25h3.1v1.37z"/><path d="m276.29 68.46-1.75-18.17h1.39c1.37 15.6 1.41 16.41 1.41 17h.1c0-.58.05-1.39 1.42-17h1.36l-1.82 18.17z"/><path d="m281.45 68.46v-18.17h4.41v1.32h-3.12v7h3.08v1.27h-3.08v7.25h3.1v1.37z"/><path d="m291.41 68.46a13.65 13.65 0 0 1 -.31-3.41c-.1-2.84-.15-3.29-.34-3.89a.91.91 0 0 0 -1-.7h-1.23v8h-1.29v-18.17h2.92a1.82 1.82 0 0 1 1.71.84c.38.57.65 1.32.65 4a10.88 10.88 0 0 1 -.34 3.75 1.28 1.28 0 0 1 -.82.93v.19a1.35 1.35 0 0 1 .63.89 16.58 16.58 0 0 1 .41 3.93c.14 2.91.16 3.12.31 3.58v.1zm-1.68-9.2c.57 0 .86-.07 1.13-.5s.36-1.08.36-3.58c0-2.28-.05-2.61-.32-3.09a.85.85 0 0 0 -.81-.51h-1.54v7.68z"/><path d="m300.91 50.29h1.3v13.44c0 2.42 0 3.09-.41 3.86s-1.13 1.18-2.28 1.18-1.9-.29-2.28-1.18-.43-1.42-.43-3.86v-13.44h1.34v13.44c0 2.13.05 2.56.29 3.09a1.08 1.08 0 0 0 1.1.58 1 1 0 0 0 1.08-.58c.24-.53.29-1 .29-3.09z"/><path d="m304.68 62.38a16 16 0 0 0 -.07 1.83 6 6 0 0 0 .33 2.71.86.86 0 0 0 .89.53c.48 0 .82-.07 1-.51a8.87 8.87 0 0 0 .38-3.24c0-2.18-.07-2.37-.17-2.64a1.64 1.64 0 0 0 -.5-.67c-.53-.53-1.75-1.34-2.14-1.75a3.39 3.39 0 0 1 -.74-1.08 10.91 10.91 0 0 1 -.26-3.51 9.34 9.34 0 0 1 .26-2.61c.31-1.06.94-1.47 2.18-1.47s1.83.41 2.14 1.18a7.3 7.3 0 0 1 .36 2.64 13.51 13.51 0 0 1 -.12 2.14h-1.15a14 14 0 0 0 .09-1.85 7.45 7.45 0 0 0 -.19-1.87c-.17-.7-.48-.94-1.13-.94s-.88.24-1.05 1a8.65 8.65 0 0 0 -.17 2c0 2.4 0 2.54.19 2.93a1.87 1.87 0 0 0 .43.62c.41.43 1.68 1.22 2.21 1.73a2.5 2.5 0 0 1 .72 1c.17.38.27.69.27 3.21a10.65 10.65 0 0 1 -.53 4c-.39.86-1 1.08-2.09 1.08a1.86 1.86 0 0 1 -2.06-1.37 8.73 8.73 0 0 1 -.34-3 18.08 18.08 0 0 1 .1-2z"/><path d="m309.81 68.46v-18.17h4.42v1.32h-3.12v7h3.07v1.27h-3.07v7.25h3.1v1.37z"/><path d="m318.57 68.46v-18.17h3c1.06 0 1.54.21 1.9 1.15a10.24 10.24 0 0 1 .4 3.74c0 2.26-.14 2.91-.38 3.34a1.1 1.1 0 0 1 -.5.48v.12a1.21 1.21 0 0 1 .55.43c.36.46.48 1 .48 4a8.88 8.88 0 0 1 -.43 3.72 1.64 1.64 0 0 1 -1.85 1.18zm2.67-9.89c.77 0 .93-.12 1.08-.46s.24-.77.24-3c0-2.09-.07-2.57-.27-3s-.38-.5-.84-.5h-1.58v7zm.29 8.61c.48 0 .72-.12.88-.53s.27-1 .27-3.21c0-2.45 0-2.81-.24-3.29s-.34-.48-1.13-.48h-1.44v7.51z"/><path d="m329.25 50.29h1.3v13.44c0 2.42-.05 3.09-.41 3.86s-1.13 1.18-2.28 1.18-1.9-.29-2.28-1.18-.43-1.42-.43-3.86v-13.44h1.34v13.44c0 2.13.05 2.56.29 3.09a1.08 1.08 0 0 0 1.1.58 1.06 1.06 0 0 0 1.09-.58c.23-.53.28-1 .28-3.09z"/><path d="m332 68.46v-18.17h1.35v18.17z"/><path d="m334.92 68.46v-18.17h1.29v16.8h2.91v1.37z"/><path d="m340.56 68.46v-16.85h-2v-1.32h5.21v1.32h-1.92v16.85z"/><path d="m24.37 97.26v-16.85h-2v-1.32h5.21v1.32h-1.89v16.85z"/><path d="m28.69 97.26v-18.17h1.31v18.17z"/><path d="m33.06 97.26v-16.85h-2v-1.32h5.24v1.32h-1.92v16.85z"/><path d="m37.35 97.26v-18.17h1.3v16.8h2.9v1.37z"/><path d="m42.63 97.26v-18.17h1.37v18.17z"/><path d="m50.19 97.26c-2.81-12.26-3.19-13.66-3.4-15.01h-.1c.05 1.37.05 2.43.05 4.35v10.66h-1.23v-18.17h1.71c2.18 10.36 2.35 11.3 2.45 12h.09c0-.69 0-1.61 0-3.21v-8.79h1.23v18.17z"/><path d="m54.54 88.76v-1.27h3.07v2.66c0 3.75-.19 5-.48 5.93-.36 1.15-.92 1.49-2.21 1.49s-1.85-.36-2.21-1.49-.48-2.21-.48-8.07c0-5.61.15-6.69.43-7.6a2 2 0 0 1 2.34-1.64c1.32 0 1.9.44 2.21 1.47a12.43 12.43 0 0 1 .41 3.45 7.3 7.3 0 0 1 0 .94h-1.31a6.29 6.29 0 0 0 0-.94 14.46 14.46 0 0 0 -.24-2.52c-.17-.76-.39-1.1-1.13-1.1s-.94.26-1.13 1.1-.29 1.66-.29 6.84c0 5.43.12 6.37.34 7.25.17.72.43 1 1.1 1s.94-.24 1.11-1a19.41 19.41 0 0 0 .33-4.87c0-.94 0-1.37 0-1.63z"/><path d="m61.93 97.26v-18.17h4.37v1.32h-3.08v7.08h3v1.27h-3v8.5z"/><path d="m69.94 97.57c-1.27 0-1.84-.36-2.2-1.49s-.48-2.21-.48-7.92.12-6.77.48-7.9.93-1.49 2.2-1.49 1.88.39 2.21 1.49.48 2.19.48 7.9-.14 6.82-.48 7.92-.93 1.49-2.21 1.49zm1.4-9.44c0-5.32-.08-6.16-.29-7.1-.15-.7-.46-1-1.11-1s-.93.26-1.08.94c-.21 1-.31 1.75-.31 7.12s.07 6.25.31 7.13c.17.72.46.94 1.08.94s.92-.22 1.08-.94c.22-.84.32-1.76.32-7.09z"/><path d="m78.15 97.26a14.28 14.28 0 0 1 -.31-3.41c-.09-2.84-.14-3.29-.33-3.89a.92.92 0 0 0 -1-.7h-1.21v8h-1.3v-18.17h2.93a1.8 1.8 0 0 1 1.7.84c.39.57.65 1.32.65 4a11.28 11.28 0 0 1 -.28 3.8 1.3 1.3 0 0 1 -.82.93v.1a1.31 1.31 0 0 1 .62.89 16.58 16.58 0 0 1 .41 3.93c.14 2.91.17 3.12.31 3.58v.1zm-1.68-9.2c.58 0 .87-.07 1.13-.5s.4-1.08.4-3.56c0-2.28 0-2.61-.31-3.09a.86.86 0 0 0 -.82-.51h-1.57v7.68z"/><path d="m84.7 91.18c0 .41-.07 1-.07 1.83a5.91 5.91 0 0 0 .37 2.71.86.86 0 0 0 .89.53c.48 0 .81-.07 1-.51a8.8 8.8 0 0 0 .39-3.24c0-2.18-.07-2.37-.17-2.64a1.84 1.84 0 0 0 -.5-.67c-.53-.53-1.76-1.34-2.14-1.75a3.1 3.1 0 0 1 -.74-1.08c-.2-.55-.27-1.13-.27-3.51a8.91 8.91 0 0 1 .27-2.61c.31-1.06.93-1.47 2.18-1.47s1.8.41 2.09 1.23a7.3 7.3 0 0 1 .36 2.64 13.51 13.51 0 0 1 -.12 2.14h-1.14a13.45 13.45 0 0 0 .1-1.85 7.45 7.45 0 0 0 -.2-1.93c-.17-.7-.48-.94-1.13-.94s-.89.24-1.06 1a8.74 8.74 0 0 0 -.16 2c0 2.4 0 2.54.19 2.93a1.74 1.74 0 0 0 .43.62c.41.43 1.68 1.22 2.21 1.73a2.6 2.6 0 0 1 .72 1c.17.38.26.69.26 3.21a10.41 10.41 0 0 1 -.53 4c-.38.86-1 1.08-2.08 1.08a1.87 1.87 0 0 1 -2.07-1.37 9.08 9.08 0 0 1 -.33-3 18.68 18.68 0 0 1 .09-2z"/><path d="m89.84 97.26v-18.17h4.42v1.32h-3.12v7h3.07v1.27h-3.07v7.25h3.09v1.37z"/><path d="m100.3 97.26c-2.8-12.29-3.16-13.66-3.4-15h-.1v4.35 10.65h-1.18v-18.17h1.71c2.18 10.36 2.35 11.3 2.45 12h.09c0-.69-.05-1.61-.05-3.21v-8.79h1.23v18.17z"/><path d="m104 97.26v-16.85h-2v-1.32h5.2v1.32h-1.92v16.85z"/><path d="m108.32 97.26v-18.17h4.42v1.32h-3.12v7h3.07v1.27h-3.07v7.25h3.09v1.37z"/><path d="m118.78 97.26c-2.8-12.29-3.16-13.66-3.4-15h-.1v4.35 10.65h-1.18v-18.17h1.71c2.18 10.36 2.35 11.3 2.45 12h.09c0-.69 0-1.61 0-3.21v-8.79h1.23v18.17z"/><path d="m126.18 90.29v1.52a14.24 14.24 0 0 1 -.46 4.34 1.86 1.86 0 0 1 -2.11 1.42c-1.32 0-1.92-.39-2.28-1.49s-.48-2.45-.48-8.07c0-6 .22-6.91.48-7.77.34-1.08.94-1.47 2.21-1.47a2 2 0 0 1 2.26 1.66 14.6 14.6 0 0 1 .36 3.7v1.6h-1.26c0-.33 0-.69 0-1.58a14.35 14.35 0 0 0 -.27-3.14c-.16-.75-.52-.94-1.1-.94s-.91.24-1.08.94c-.24.88-.31 1.82-.31 7s.09 6.39.31 7.25c.17.7.46.94 1.15.94s.82-.22 1-.87a14.62 14.62 0 0 0 .33-3.5c0-.6 0-1 0-1.54z"/><path d="m127.64 97.26v-18.17h4.42v1.32h-3.12v7h3.06v1.27h-3.07v7.25h3.07v1.37z"/><path d="m134.48 91.18a16 16 0 0 0 -.07 1.83 6 6 0 0 0 .33 2.71.86.86 0 0 0 .89.53c.48 0 .82-.07 1-.51a8.87 8.87 0 0 0 .37-3.24 8.12 8.12 0 0 0 -.16-2.64 1.78 1.78 0 0 0 -.51-.67c-.53-.53-1.75-1.34-2.13-1.75a3.26 3.26 0 0 1 -.75-1.08 10.91 10.91 0 0 1 -.26-3.51 9.34 9.34 0 0 1 .26-2.61c.31-1.06.94-1.47 2.19-1.47s1.82.41 2.13 1.18a7.3 7.3 0 0 1 .36 2.64 13.51 13.51 0 0 1 -.12 2.14h-1.15a14 14 0 0 0 .09-1.85 7.45 7.45 0 0 0 -.19-1.87c-.16-.7-.48-.94-1.12-.94s-.89.24-1.06 1a8.65 8.65 0 0 0 -.17 2c0 2.4 0 2.54.19 2.93a1.87 1.87 0 0 0 .43.62c.41.43 1.69 1.22 2.21 1.73a2.4 2.4 0 0 1 .72 1c.17.38.27.69.27 3.21a10.61 10.61 0 0 1 -.53 4c-.38.86-1 1.08-2.09 1.08a1.87 1.87 0 0 1 -2.06-1.37 8.73 8.73 0 0 1 -.34-3 18.08 18.08 0 0 1 .1-2z"/><path d="m145.09 97.57c-1.27 0-1.85-.36-2.21-1.49s-.48-2.21-.48-7.92.12-6.77.48-7.9.94-1.49 2.21-1.49 1.87.39 2.21 1.49.48 2.19.48 7.9-.15 6.82-.48 7.92-.94 1.49-2.21 1.49zm1.39-9.44c0-5.32-.07-6.16-.29-7.1-.14-.7-.45-1-1.1-1s-.94.26-1.08.94c-.22 1-.31 1.75-.31 7.12s.07 6.25.31 7.13c.17.72.45.94 1.08.94s.91-.22 1.08-.94c.21-.84.31-1.76.31-7.09z"/><path d="m153.3 97.26a13.89 13.89 0 0 1 -.32-3.41c-.09-2.84-.14-3.29-.33-3.89a.91.91 0 0 0 -1-.7h-1.22v8h-1.3v-18.17h2.93a1.82 1.82 0 0 1 1.71.84c.38.57.64 1.32.64 4a11 11 0 0 1 -.33 3.75 1.28 1.28 0 0 1 -.82.93v.1a1.35 1.35 0 0 1 .63.89 16.8 16.8 0 0 1 .4 3.93c.15 2.91.17 3.12.32 3.58v.1zm-1.68-9.2c.57 0 .86-.07 1.12-.5s.36-1.08.36-3.58c0-2.28 0-2.61-.31-3.09a.85.85 0 0 0 -.81-.51h-1.54v7.68z"/><path d="m158.81 97.26v-18.17h2.93c1.11 0 1.68.38 2 1.63a17.5 17.5 0 0 1 .36 4.32 18.15 18.15 0 0 1 -.36 4.49 1.76 1.76 0 0 1 -2 1.65h-1.61v6.08zm2.74-7.37c.43 0 .7-.17.89-.89a14.19 14.19 0 0 0 .31-4 15.18 15.18 0 0 0 -.31-3.72c-.17-.72-.48-.88-.89-.88h-1.44v9.48z"/><path d="m168.27 97.26-.43-5.33h-2l-.45 5.33h-1.32l1.73-18.17h2.2l1.61 18.17zm-1.22-14.81c-.1-1.11-.15-1.8-.15-2.33h-.09c0 .53-.05 1.22-.15 2.33l-.76 8.2h1.87z"/><path d="m175 97.26a13.65 13.65 0 0 1 -.31-3.41c-.1-2.84-.15-3.29-.34-3.89a.91.91 0 0 0 -1-.7h-1.23v8h-1.3v-18.17h2.93a1.82 1.82 0 0 1 1.71.84c.38.57.65 1.32.65 4a10.88 10.88 0 0 1 -.34 3.75 1.28 1.28 0 0 1 -.82.93v.1a1.35 1.35 0 0 1 .63.89 16.58 16.58 0 0 1 .41 3.93c.14 2.91.16 3.12.31 3.58v.1zm-1.68-9.2c.57 0 .86-.07 1.13-.5s.36-1.08.36-3.58c0-2.28-.05-2.61-.32-3.09a.85.85 0 0 0 -.81-.51h-1.54v7.68z"/><path d="m181.42 97.26-.42-5.33h-2l-.45 5.33h-1.35l1.73-18.17h2.23l1.61 18.17zm-1.22-14.81c-.1-1.11-.15-1.8-.15-2.33h-.05c0 .53-.05 1.22-.15 2.33l-.76 8.2h1.87z"/><path d="m185.72 88.76v-1.27h3.07c0 .57.05 1.39.05 2.66 0 3.75-.19 5-.48 5.93-.36 1.15-.91 1.49-2.21 1.49s-1.85-.36-2.21-1.49-.48-2.21-.48-8.07c0-5.61.15-6.69.43-7.6a2 2 0 0 1 2.26-1.64c1.32 0 1.9.44 2.21 1.47a12.43 12.43 0 0 1 .41 3.45 7.3 7.3 0 0 1 0 .94h-1.27c0-.17 0-.38 0-.94a14.46 14.46 0 0 0 -.24-2.52c-.17-.76-.39-1.1-1.13-1.1s-.93.26-1.13 1.1-.29 1.66-.29 6.84c0 5.43.12 6.37.34 7.25.17.72.43 1 1.11 1s.93-.24 1.1-1a18.89 18.89 0 0 0 .33-4.87c0-.94 0-1.37 0-1.63z"/><path d="m194.31 97.26a13.65 13.65 0 0 1 -.31-3.41c-.1-2.84-.15-3.29-.34-3.89a.91.91 0 0 0 -1-.7h-1.23v8h-1.29v-18.17h2.93a1.8 1.8 0 0 1 1.7.84c.38.57.65 1.32.65 4a10.88 10.88 0 0 1 -.34 3.75 1.29 1.29 0 0 1 -.81.93v.1a1.37 1.37 0 0 1 .62.89 16.58 16.58 0 0 1 .41 3.93c.14 2.91.17 3.12.31 3.58v.1zm-1.68-9.2c.58 0 .86-.07 1.13-.5s.36-1.08.36-3.58c0-2.28-.05-2.61-.31-3.09a.87.87 0 0 0 -.82-.51h-1.54v7.68z"/><path d="m200.77 97.26-.44-5.33h-2l-.46 5.33h-1.32l1.73-18.17h2.23l1.61 18.17zm-1.23-14.81c-.09-1.11-.14-1.8-.14-2.33h-.1c0 .53-.05 1.22-.14 2.33l-.77 8.2h1.87z"/><path d="m203.31 97.26v-18.17h2.93a1.75 1.75 0 0 1 2 1.63 18 18 0 0 1 .36 4.32 18.65 18.65 0 0 1 -.36 4.49 1.77 1.77 0 0 1 -2 1.65h-1.6v6.08zm2.74-7.37c.43 0 .69-.17.88-.89a14.11 14.11 0 0 0 .32-4 14.64 14.64 0 0 0 -.32-3.72c-.16-.72-.48-.88-.88-.88h-1.44v9.48z"/><path d="m214.06 97.26v-8.62h-2.9v8.62h-1.32v-18.17h1.32v8.28h2.9v-8.28h1.32v18.17z"/><path d="m217.93 91.18a15.42 15.42 0 0 0 -.08 1.83 5.91 5.91 0 0 0 .34 2.71.86.86 0 0 0 .89.53c.48 0 .81-.07 1-.51a8.87 8.87 0 0 0 .38-3.24c0-2.18-.07-2.37-.17-2.64a1.64 1.64 0 0 0 -.5-.67c-.53-.53-1.75-1.34-2.14-1.75a3.24 3.24 0 0 1 -.74-1.08c-.2-.55-.27-1.13-.27-3.51a8.91 8.91 0 0 1 .27-2.61c.31-1.06.93-1.47 2.18-1.47s1.83.41 2.14 1.18a7.3 7.3 0 0 1 .36 2.64 13.51 13.51 0 0 1 -.12 2.14h-1.15a16 16 0 0 0 .09-1.85 7.45 7.45 0 0 0 -.19-1.87c-.17-.7-.48-.94-1.13-.94s-.89.24-1 1a8.65 8.65 0 0 0 -.17 2c0 2.4 0 2.54.19 2.93a1.87 1.87 0 0 0 .43.62c.41.43 1.68 1.22 2.21 1.73a2.6 2.6 0 0 1 .72 1c.17.38.26.69.26 3.21a10.67 10.67 0 0 1 -.52 4c-.39.86-1 1.08-2.09 1.08a1.87 1.87 0 0 1 -2.12-1.44 9.08 9.08 0 0 1 -.33-3 18.68 18.68 0 0 1 .09-2z"/><path d="m222.65 97.26v-2.72h1.35v2.72z"/><path d="m232.44 79.09h1.3v13.44c0 2.42-.05 3.09-.41 3.86s-1.12 1.18-2.28 1.18-1.89-.29-2.28-1.18-.43-1.41-.43-3.86v-13.44h1.34v13.44c0 2.13 0 2.57.29 3.09a1.08 1.08 0 0 0 1.11.58 1 1 0 0 0 1.08-.58c.24-.52.28-1 .28-3.09z"/><path d="m239.84 97.26c-2.81-12.29-3.17-13.66-3.41-15h-.1v4.35 10.65h-1.22v-18.17h1.7c2.19 10.36 2.35 11.3 2.45 12h.09c0-.69 0-1.61 0-3.21v-8.79h1.22v18.17z"/><path d="m242.09 97.26v-18.17h2.79a1.94 1.94 0 0 1 2.21 1.44c.38 1.08.47 2.13.47 7.63 0 5.78-.12 6.65-.45 7.7s-.91 1.4-2.23 1.4zm2.76-1.35a1 1 0 0 0 1.11-.86c.21-.87.29-1.66.29-6.89 0-5 0-6-.29-6.82-.22-.69-.48-.93-1.11-.93h-1.46v15.5z"/><path d="m248.93 97.26v-18.17h4.42v1.32h-3.12v7h3.07v1.27h-3.07v7.25h3.09v1.37z"/><path d="m258.89 97.26a14.28 14.28 0 0 1 -.31-3.41c-.1-2.84-.14-3.29-.34-3.89a.9.9 0 0 0 -1-.7h-1.24v8h-1.3v-18.17h2.93a1.8 1.8 0 0 1 1.7.84c.39.57.65 1.32.65 4a10.88 10.88 0 0 1 -.34 3.75 1.29 1.29 0 0 1 -.81.93v.1a1.34 1.34 0 0 1 .62.89 16.58 16.58 0 0 1 .41 3.93c.14 2.91.17 3.12.31 3.58v.1zm-1.68-9.2c.58 0 .87-.07 1.13-.5s.36-1.08.36-3.58c0-2.28-.05-2.61-.31-3.09a.86.86 0 0 0 -.82-.51h-1.57v7.68z"/><path d="m268.3 97.26-.43-5.33h-2l-.45 5.33h-1.32l1.72-18.17h2.18l1.6 18.17zm-1.22-14.81c-.1-1.11-.15-1.8-.15-2.33h-.09c0 .53 0 1.22-.15 2.33l-.77 8.2h1.88z"/><path d="m275.5 97.26c-2.81-12.29-3.17-13.66-3.41-15h-.09v4.35 10.65h-1.22v-18.17h1.7c2.19 10.36 2.36 11.3 2.45 12h.1c0-.69-.05-1.61-.05-3.21v-8.79h1.22v18.17z"/><path d="m279.46 97.26v-8.57l-2.21-9.48v-.12h1.32c1.2 5.61 1.44 6.88 1.49 7.51h.1c0-.63.31-1.9 1.6-7.51h1.24v.12l-2.19 9.45v8.6z"/><path d="m292.18 90.29v1.52a14.4 14.4 0 0 1 -.45 4.34 1.87 1.87 0 0 1 -2.12 1.42c-1.32 0-1.91-.39-2.28-1.49s-.48-2.45-.48-8.07c0-6 .22-6.91.48-7.77.34-1.08.94-1.47 2.21-1.47a2 2 0 0 1 2.26 1.66 14.14 14.14 0 0 1 .36 3.7v1.6h-1.25c0-.33 0-.69 0-1.58a15.2 15.2 0 0 0 -.26-3.14c-.17-.75-.53-.94-1.11-.94s-.91.24-1.08.94c-.24.88-.31 1.82-.31 7s.1 6.39.31 7.25c.17.7.46.94 1.15.94s.82-.22 1-.87a14 14 0 0 0 .34-3.5c0-.6 0-1 0-1.54z"/><path d="m293.67 97.26v-18.17h1.33v18.17z"/><path d="m300.72 97.26a14.28 14.28 0 0 1 -.31-3.41c-.1-2.84-.14-3.29-.34-3.89a.9.9 0 0 0 -1-.7h-1.22v8h-1.3v-18.17h2.93a1.8 1.8 0 0 1 1.7.84c.39.57.65 1.32.65 4a10.88 10.88 0 0 1 -.34 3.75 1.29 1.29 0 0 1 -.81.93v.1a1.34 1.34 0 0 1 .62.89 16.58 16.58 0 0 1 .41 3.93c.14 2.91.17 3.12.31 3.58v.1zm-1.72-9.2c.58 0 .87-.07 1.13-.5s.36-1.08.36-3.58c0-2.28 0-2.61-.31-3.09a.86.86 0 0 0 -.82-.51h-1.53v7.68z"/><path d="m308.28 90.29v1.52a14.24 14.24 0 0 1 -.46 4.34 1.86 1.86 0 0 1 -2.11 1.42c-1.32 0-1.92-.39-2.28-1.49s-.43-2.45-.43-8.08c0-6 .21-6.91.48-7.77.33-1.08.93-1.47 2.21-1.47a2 2 0 0 1 2.25 1.66 14.14 14.14 0 0 1 .36 3.7v1.6h-1.3c0-.33 0-.69 0-1.58a15.2 15.2 0 0 0 -.26-3.14c-.17-.75-.53-.94-1.1-.94s-.92.24-1.08.94c-.24.88-.32 1.82-.32 7s.1 6.39.32 7.25c.16.7.45.94 1.15.94s.81-.22 1-.87a14 14 0 0 0 .34-3.5c0-.6 0-1 0-1.54z"/><path d="m313.73 79.09h1.27v13.44c0 2.42 0 3.09-.41 3.86a2.16 2.16 0 0 1 -2.28 1.18c-1.15 0-1.9-.29-2.28-1.18s-.43-1.41-.43-3.86v-13.44h1.4v13.44c0 2.13 0 2.57.29 3.09a1.06 1.06 0 0 0 1.1.58 1 1 0 0 0 1.08-.58c.24-.52.29-1 .29-3.09z"/><path d="m323.14 97.26v-13.76c0-.81 0-1.51 0-2.13h-.09c-.1 1-.34 2.54-2.33 15.89h-.72c-2-13.37-2.3-15-2.35-15.89h-.1v2.13 13.76h-1.18v-18.17h2.21c1.58 12.29 1.66 12.84 1.68 13.29h.1c0-.45.09-1 1.72-13.29h2.19v18.17z"/><path d="m326.88 91.18a16 16 0 0 0 -.07 1.83 5.91 5.91 0 0 0 .34 2.71.85.85 0 0 0 .88.53c.48 0 .82-.07 1-.51a8.8 8.8 0 0 0 .39-3.24 7.86 7.86 0 0 0 -.17-2.64 1.78 1.78 0 0 0 -.51-.67c-.52-.53-1.75-1.34-2.13-1.75a3.26 3.26 0 0 1 -.75-1.08 10.91 10.91 0 0 1 -.26-3.51 9.34 9.34 0 0 1 .26-2.61 1.92 1.92 0 0 1 2.19-1.47c1.27 0 1.82.41 2.13 1.18a7.3 7.3 0 0 1 .36 2.64 12.36 12.36 0 0 1 -.12 2.14h-1.15a13.45 13.45 0 0 0 .1-1.85 7.45 7.45 0 0 0 -.19-1.87c-.17-.7-.48-.94-1.13-.94s-.89.24-1.06 1a8.65 8.65 0 0 0 -.17 2c0 2.4 0 2.54.2 2.93a1.74 1.74 0 0 0 .43.62c.41.43 1.68 1.22 2.21 1.73a2.6 2.6 0 0 1 .72 1c.16.38.26.69.26 3.21a10.41 10.41 0 0 1 -.53 4c-.38.86-1 1.08-2.09 1.08a1.87 1.87 0 0 1 -2.02-1.44 8.73 8.73 0 0 1 -.34-3 18.08 18.08 0 0 1 .1-2z"/><path d="m333.1 97.26v-16.85h-2v-1.32h5.21v1.32h-1.92v16.85z"/><path d="m340.32 97.26-.43-5.33h-2l-.45 5.33h-1.34l1.73-18.17h2.23l1.61 18.17zm-1.22-14.81c-.1-1.11-.15-1.8-.15-2.33h-.09c0 .53-.05 1.22-.15 2.33l-.76 8.2h1.87z"/><path d="m347.52 97.26c-2.81-12.29-3.17-13.66-3.41-15h-.11v4.35 10.65h-1.22v-18.17h1.71c2.18 10.36 2.35 11.3 2.44 12h.1c0-.69 0-1.61 0-3.21v-8.79h1.23v18.17z"/><path d="m354.91 90.29v1.52a14.24 14.24 0 0 1 -.46 4.34 1.86 1.86 0 0 1 -2.11 1.42c-1.32 0-1.92-.39-2.28-1.49s-.48-2.45-.48-8.07c0-6 .22-6.91.48-7.77.34-1.08.94-1.47 2.21-1.47a2 2 0 0 1 2.25 1.66 14.14 14.14 0 0 1 .36 3.7v1.6h-1.25c0-.33 0-.69 0-1.58a14.35 14.35 0 0 0 -.23-3.15c-.17-.75-.53-.94-1.1-.94s-.92.24-1.08.94c-.24.88-.31 1.82-.31 7s.09 6.39.31 7.25c.16.7.45.94 1.15.94s.82-.22 1-.87a14 14 0 0 0 .34-3.5c0-.6 0-1 0-1.54z"/><path d="m356.38 97.26v-18.17h4.41v1.32h-3.12v7h3.08v1.27h-3.08v7.25h3.1v1.37z"/><path d="m362.18 97.26v-2.72h1.3v2.72z"/><path d="m24.37 126.06v-16.85h-2v-1.32h5.21v1.32h-1.89v16.85z"/><path d="m32.87 126.06v-8.62h-2.87v8.62h-1.36v-18.17h1.36v8.28h2.91v-8.28h1.32v18.17z"/><path d="m35.72 126.06v-18.17h1.35v18.17z"/><path d="m39.66 120a16 16 0 0 0 -.07 1.83 6 6 0 0 0 .33 2.71.86.86 0 0 0 .89.53c.48 0 .82-.07 1-.51a8.87 8.87 0 0 0 .38-3.24c0-2.18-.07-2.37-.17-2.64a1.64 1.64 0 0 0 -.5-.67c-.53-.53-1.75-1.34-2.14-1.75a3.39 3.39 0 0 1 -.74-1.08 10.91 10.91 0 0 1 -.26-3.51 9.34 9.34 0 0 1 .26-2.61c.31-1.06.94-1.47 2.18-1.47s1.83.41 2.14 1.18a7.3 7.3 0 0 1 .36 2.64 13.51 13.51 0 0 1 -.12 2.14h-1.14a14 14 0 0 0 .09-1.85 7.45 7.45 0 0 0 -.19-1.87c-.17-.7-.48-.94-1.13-.94s-.88.24-1 1a8.65 8.65 0 0 0 -.17 2c0 2.4 0 2.54.19 2.93a1.87 1.87 0 0 0 .43.62c.41.43 1.68 1.22 2.21 1.73a2.5 2.5 0 0 1 .72 1c.17.38.27.69.27 3.21a10.65 10.65 0 0 1 -.53 4c-.39.86-1 1.08-2.09 1.08a1.86 1.86 0 0 1 -2.11-1.46 8.73 8.73 0 0 1 -.34-3 18.08 18.08 0 0 1 .1-2z"/><path d="m47.77 126.06v-18.17h1.34v18.17z"/><path d="m51.7 120c0 .41-.07 1-.07 1.83a5.91 5.91 0 0 0 .34 2.71.86.86 0 0 0 .89.53c.48 0 .81-.07 1-.51a8.8 8.8 0 0 0 .39-3.24c0-2.18-.07-2.37-.17-2.64a1.84 1.84 0 0 0 -.5-.67c-.53-.53-1.76-1.34-2.14-1.75a3.1 3.1 0 0 1 -.74-1.08c-.2-.55-.27-1.13-.27-3.51a8.91 8.91 0 0 1 .27-2.67c.31-1.06.93-1.47 2.18-1.47s1.83.41 2.14 1.18a7.3 7.3 0 0 1 .36 2.64 13.51 13.51 0 0 1 -.12 2.14h-1.16a13.45 13.45 0 0 0 .1-1.85 7.45 7.45 0 0 0 -.19-1.87c-.17-.7-.48-.94-1.13-.94s-.89.24-1.06 1a8.74 8.74 0 0 0 -.16 2c0 2.4 0 2.54.19 2.93a1.74 1.74 0 0 0 .43.62c.41.43 1.68 1.22 2.21 1.73a2.6 2.6 0 0 1 .72 1c.17.38.26.69.26 3.21a10.44 10.44 0 0 1 -.53 4c-.38.86-1 1.08-2.08 1.08a1.87 1.87 0 0 1 -2.07-1.4 9.08 9.08 0 0 1 -.33-3 18.68 18.68 0 0 1 .09-2z"/><path d="m63.68 126.06-.43-5.33h-2l-.45 5.33h-1.34l1.72-18.17h2.24l1.58 18.17zm-1.22-14.81c-.1-1.11-.15-1.8-.15-2.33h-.09c0 .53 0 1.22-.15 2.33l-.77 8.2h1.88z"/><path d="m70.88 126.06c-2.81-12.29-3.17-13.66-3.41-15h-.09v4.35 10.66h-1.18v-18.18h1.7c2.19 10.36 2.36 11.3 2.45 12h.1c0-.69 0-1.61 0-3.21v-8.76h1.22v18.17z"/><path d="m76.09 126.06v-18.17h4.41v1.32h-3.12v7h3.08v1.27h-3.08v7.25h3.1v1.37z"/><path d="m86.05 126.06c-1.35-7.06-1.47-7.73-1.52-8.33h-.09c0 .6-.19 1.27-1.61 8.33h-1.32l2-9.56-1.74-8.5v-.12h1.32c1.2 6.21 1.35 6.91 1.37 7.41h.1c0-.5.17-1.2 1.37-7.41h1.27v.12l-1.8 8.42 2 9.63z"/><path d="m92.48 126.06-.43-5.33h-2.05l-.46 5.33h-1.29l1.75-18.17h2.24l1.6 18.17zm-1.22-14.81c-.1-1.11-.15-1.8-.15-2.33h-.11c0 .53 0 1.22-.14 2.33l-.77 8.2h1.91z"/><path d="m101.69 126.06v-13.76c0-.81 0-1.51 0-2.13h-.1c-.09 1-.33 2.54-2.33 15.89h-.66c-2-13.37-2.31-15-2.35-15.89h-.1v2.13 13.76h-1.15v-18.17h2.21c1.58 12.28 1.65 12.84 1.68 13.29h.11c0-.45.1-1 1.73-13.29h2.18v18.17z"/><path d="m104.41 126.06v-18.17h2.92c1.11 0 1.68.38 2 1.63a17.5 17.5 0 0 1 .36 4.32 18.15 18.15 0 0 1 -.36 4.49 1.76 1.76 0 0 1 -2 1.65h-1.63v6.08zm2.73-7.37c.43 0 .7-.17.89-.89a14.19 14.19 0 0 0 .31-4 15.18 15.18 0 0 0 -.31-3.72c-.17-.72-.48-.88-.89-.88h-1.44v9.48z"/><path d="m111 126.06v-18.17h1.29v16.8h2.91v1.37z"/><path d="m116.21 126.06v-18.17h4.42v1.32h-3.12v7h3.07v1.27h-3.07v7.25h3.1v1.37z"/><path d="m127.49 126.37c-1.27 0-1.84-.36-2.2-1.49s-.49-2.21-.49-7.92.13-6.77.49-7.9.93-1.49 2.2-1.49 1.88.39 2.21 1.49.48 2.19.48 7.9-.14 6.81-.48 7.92-.93 1.49-2.21 1.49zm1.4-9.44c0-5.32-.08-6.16-.29-7.1-.15-.7-.46-1-1.11-1s-.93.26-1.08.94c-.21 1-.31 1.75-.31 7.12s.07 6.24.31 7.13c.17.72.46.94 1.08.94s.92-.22 1.08-.94c.22-.85.32-1.76.32-7.09z"/><path d="m131.55 126.06v-18.17h4.37v1.32h-3.07v7.08h3v1.27h-3v8.5z"/><path d="m145.59 126.06c-1.18-13.4-1.22-14.31-1.22-14.74h-.1c0 .43-.07 1.34-1.22 14.74h-2l-1.37-18.17h1.32c.93 14.06 1.08 16.53 1.08 17h.09c0-.46.22-2.93 1.49-17h1.27c1.3 14.06 1.51 16.53 1.51 17h.1c0-.46.12-2.93 1.06-17h1.27l-1.37 18.17z"/><path d="m154.33 126.06v-8.62h-2.91v8.62h-1.32v-18.17h1.32v8.28h2.91v-8.28h1.31v18.17z"/><path d="m161.05 126.06-.44-5.33h-2l-.46 5.33h-1.32l1.73-18.17h2.23l1.61 18.17zm-1.23-14.81c-.1-1.11-.14-1.8-.14-2.33h-.1c0 .53-.05 1.22-.14 2.33l-.77 8.2h1.87z"/><path d="m164.09 126.06v-16.85h-2v-1.32h5.21v1.32h-1.92v16.85z"/><path d="m173 126.06v-8.57l-2.2-9.48v-.12h1.32c1.2 5.61 1.44 6.88 1.48 7.51h.1c0-.63.31-1.9 1.61-7.51h1.27v.11l-2.18 9.45v8.6z"/><path d="m179.72 126.37c-1.28 0-1.85-.36-2.21-1.49s-.51-2.21-.51-7.88.12-6.77.48-7.9.93-1.49 2.21-1.49 1.87.39 2.2 1.49.48 2.19.48 7.9-.14 6.81-.48 7.92-.89 1.45-2.17 1.45zm1.39-9.44c0-5.32-.07-6.16-.29-7.1-.14-.7-.46-1-1.1-1s-.94.26-1.08.94c-.22 1-.32 1.75-.32 7.12s.08 6.24.32 7.13c.16.72.45.94 1.08.94s.91-.22 1.08-.94c.2-.85.31-1.76.31-7.09z"/><path d="m187.76 107.89h1.29v13.44c0 2.42 0 3.09-.41 3.86s-1.12 1.18-2.28 1.18-1.89-.29-2.28-1.18-.43-1.42-.43-3.86v-13.44h1.35v13.44c0 2.13 0 2.57.28 3.09a1.08 1.08 0 0 0 1.11.58 1 1 0 0 0 1.08-.58c.24-.52.29-1 .29-3.09z"/><path d="m194.48 120a15.42 15.42 0 0 0 -.08 1.83 5.91 5.91 0 0 0 .34 2.71.86.86 0 0 0 .89.53c.48 0 .81-.07 1-.51a8.87 8.87 0 0 0 .38-3.24c0-2.18-.07-2.37-.17-2.64a1.64 1.64 0 0 0 -.5-.67c-.53-.53-1.75-1.34-2.14-1.75a3.24 3.24 0 0 1 -.74-1.08 10.75 10.75 0 0 1 -.27-3.51 9.27 9.27 0 0 1 .27-2.61c.31-1.06.93-1.47 2.18-1.47s1.83.41 2.14 1.18a7.3 7.3 0 0 1 .36 2.64 13.51 13.51 0 0 1 -.12 2.14h-1.15a16 16 0 0 0 .09-1.85 7.45 7.45 0 0 0 -.19-1.87c-.17-.7-.48-.94-1.13-.94s-.89.24-1.05 1a8.65 8.65 0 0 0 -.17 2c0 2.4 0 2.54.19 2.93a1.87 1.87 0 0 0 .43.62c.41.43 1.68 1.22 2.21 1.73a2.6 2.6 0 0 1 .72 1c.17.38.26.69.26 3.21a10.7 10.7 0 0 1 -.52 4c-.39.86-1 1.08-2.09 1.08a1.87 1.87 0 0 1 -2.07-1.37 9.08 9.08 0 0 1 -.33-3c0-1 .05-1.58.09-2z"/><path d="m203.81 126.06v-8.62h-2.9v8.62h-1.32v-18.17h1.32v8.28h2.9v-8.28h1.32v18.17z"/><path d="m209.16 126.37c-1.27 0-1.84-.36-2.2-1.49s-.48-2.21-.48-7.92.12-6.77.48-7.9.93-1.49 2.2-1.49 1.88.39 2.21 1.49.48 2.19.48 7.9-.14 6.81-.48 7.92-.93 1.49-2.21 1.49zm1.4-9.44c0-5.32-.08-6.16-.29-7.1-.15-.7-.46-1-1.11-1s-.93.26-1.08.94c-.21 1-.31 1.75-.31 7.12s.07 6.24.31 7.13c.17.72.46.94 1.08.94s.92-.22 1.08-.94c.22-.85.32-1.76.32-7.09z"/><path d="m217.2 107.89h1.3v13.44c0 2.42-.05 3.09-.41 3.86s-1.13 1.18-2.28 1.18-1.89-.29-2.28-1.18-.43-1.42-.43-3.86v-13.44h1.34v13.44c0 2.13.05 2.57.29 3.09a1.07 1.07 0 0 0 1.11.58 1 1 0 0 0 1.08-.58c.24-.52.28-1 .28-3.09z"/><path d="m219.94 126.06v-18.17h1.3v16.8h2.9v1.37z"/><path d="m225.2 126.06v-18.17h2.8a1.94 1.94 0 0 1 2.21 1.44c.38 1.08.48 2.13.48 7.63 0 5.78-.12 6.65-.46 7.7s-.91 1.4-2.23 1.4zm2.76-1.35a1 1 0 0 0 1.1-.86c.22-.87.29-1.66.29-6.89 0-5 0-5.95-.29-6.82-.22-.69-.48-.93-1.1-.93h-1.47v15.5z"/><path d="m239.64 126.06c-2.8-12.29-3.17-13.66-3.4-15h-.1c.05 1.37.05 2.43.05 4.35v10.66h-1.19v-18.18h1.71c2.18 10.36 2.35 11.3 2.45 12h.09c0-.69-.05-1.61-.05-3.21v-8.76h1.23v18.17z"/><path d="m244.42 126.37c-1.27 0-1.85-.36-2.21-1.49s-.48-2.21-.48-7.92.12-6.77.48-7.9.94-1.49 2.21-1.49 1.87.39 2.21 1.49.48 2.19.48 7.9-.15 6.81-.48 7.92-.94 1.49-2.21 1.49zm1.39-9.44c0-5.32-.07-6.16-.29-7.1-.14-.7-.45-1-1.1-1s-.94.26-1.08.94c-.22 1-.31 1.75-.31 7.12s.07 6.24.31 7.13c.17.72.46.94 1.08.94s.91-.22 1.08-.94c.22-.85.31-1.76.31-7.09z"/><path d="m249.44 126.06v-16.85h-2v-1.32h5.21v1.32h-1.92v16.85z"/><path d="m256.68 126.06v-18.17h2.79a1.94 1.94 0 0 1 2.21 1.44c.38 1.08.47 2.13.47 7.63 0 5.78-.12 6.65-.45 7.7s-.91 1.4-2.23 1.4zm2.76-1.35a1 1 0 0 0 1.11-.86c.21-.87.29-1.66.29-6.89 0-5 0-5.95-.29-6.82-.22-.69-.48-.93-1.11-.93h-1.44v15.5z"/><path d="m266 126.37c-1.27 0-1.85-.36-2.21-1.49s-.48-2.21-.48-7.92.12-6.77.48-7.9.94-1.49 2.21-1.49 1.87.39 2.21 1.49.48 2.19.48 7.9-.14 6.81-.48 7.92-.9 1.49-2.21 1.49zm1.39-9.44c0-5.32-.07-6.16-.28-7.1-.15-.7-.46-1-1.11-1s-.93.26-1.08.94c-.21 1-.31 1.75-.31 7.12s.07 6.24.31 7.13c.17.72.46.94 1.08.94s.91-.22 1.08-.94c.26-.85.35-1.76.35-7.09z"/><path d="m269.86 126.06v-2.72h1.29v2.72z"/><path d="m275.66 126.06v-18.17h3c1.06 0 1.54.21 1.9 1.15a9.94 9.94 0 0 1 .41 3.74c0 2.26-.15 2.91-.39 3.34a1.1 1.1 0 0 1 -.5.48v.12a1.21 1.21 0 0 1 .55.43c.36.46.48 1 .48 4 0 2.26-.1 2.9-.43 3.72a1.64 1.64 0 0 1 -1.85 1.18zm2.67-9.89c.77 0 .93-.12 1.08-.46s.24-.77.24-3c0-2.09-.07-2.57-.27-3s-.38-.5-.83-.5h-1.55v7zm.29 8.61a.79.79 0 0 0 .89-.53c.19-.48.26-1 .26-3.21 0-2.45 0-2.81-.24-3.29s-.34-.48-1.13-.48h-1.4v7.51z"/><path d="m286.34 107.89h1.3v13.44c0 2.42-.05 3.09-.41 3.86s-1.13 1.18-2.28 1.18-1.89-.29-2.28-1.18-.43-1.42-.43-3.86v-13.44h1.34v13.44c0 2.13.05 2.57.29 3.09a1.07 1.07 0 0 0 1.13.58 1 1 0 0 0 1.08-.58c.24-.52.28-1 .28-3.09z"/><path d="m289.1 126.06v-18.17h1.35v18.17z"/><path d="m292 126.06v-18.17h1.29v16.8h2.91v1.37z"/><path d="m297.65 126.06v-16.85h-2v-1.32h5.21v1.32h-1.86v16.85z"/><path d="m306.36 126.06v-16.85h-2v-1.32h5.21v1.32h-1.92v16.85z"/><path d="m310.68 126.06v-18.17h1.32v18.17z"/><path d="m315.05 126.06v-16.85h-2v-1.32h5.21v1.32h-1.92v16.85z"/><path d="m319.34 126.06v-18.17h1.3v16.8h2.9v1.37z"/><path d="m324.62 126.06v-18.17h1.38v18.17z"/><path d="m332.18 126.06c-2.81-12.29-3.17-13.66-3.41-15h-.09c.05 1.37.05 2.43.05 4.35v10.66h-1.23v-18.18h1.71c2.18 10.36 2.35 11.3 2.44 12h.1c0-.69-.05-1.61-.05-3.21v-8.76h1.23v18.17z"/><path d="m336.53 117.56v-1.27h3.07v2.66c0 3.74-.2 5-.48 5.93-.36 1.15-.92 1.49-2.21 1.49s-1.85-.36-2.21-1.49-.48-2.21-.48-8.07c0-5.61.14-6.69.43-7.6a2 2 0 0 1 2.26-1.64c1.32 0 1.89.44 2.21 1.47a12.41 12.41 0 0 1 .4 3.45v.94h-1.22a6.29 6.29 0 0 0 0-.94 14.46 14.46 0 0 0 -.24-2.52c-.17-.76-.39-1.1-1.13-1.1s-.94.26-1.13 1.1-.29 1.66-.29 6.84c0 5.43.12 6.36.34 7.25.17.72.43 1 1.1 1s.94-.24 1.11-1a19.41 19.41 0 0 0 .33-4.87c0-.94 0-1.37 0-1.63z"/><path d="m23.94 148.78a16 16 0 0 0 -.07 1.83 6 6 0 0 0 .33 2.71.86.86 0 0 0 .89.53c.48 0 .82-.07 1-.51a8.87 8.87 0 0 0 .38-3.24c0-2.18-.07-2.37-.17-2.64a1.64 1.64 0 0 0 -.5-.67c-.53-.53-1.75-1.34-2.14-1.75a3.39 3.39 0 0 1 -.74-1.08 10.91 10.91 0 0 1 -.26-3.51 9.34 9.34 0 0 1 .26-2.61c.31-1.06.94-1.47 2.18-1.47s1.83.41 2.14 1.18a7.3 7.3 0 0 1 .36 2.64 13.51 13.51 0 0 1 -.12 2.14h-1.14a14 14 0 0 0 .09-1.85 7.45 7.45 0 0 0 -.19-1.87c-.17-.7-.48-.94-1.13-.94s-.88.24-1.05 1a8.65 8.65 0 0 0 -.17 2c0 2.4 0 2.54.19 2.93a1.87 1.87 0 0 0 .43.62c.41.43 1.68 1.22 2.21 1.73a2.5 2.5 0 0 1 .72 1c.17.38.27.69.27 3.21a10.61 10.61 0 0 1 -.53 4c-.39.86-1 1.08-2.09 1.08a1.86 1.86 0 0 1 -2.09-1.44 8.73 8.73 0 0 1 -.34-3 18.08 18.08 0 0 1 .1-2z"/><path d="m33.27 154.86v-8.62h-2.9v8.62h-1.32v-18.17h1.32v8.31h2.9v-8.28h1.32v18.17z"/><path d="m38.63 155.17c-1.28 0-1.85-.36-2.21-1.49s-.48-2.21-.48-7.92.12-6.77.48-7.9.93-1.49 2.21-1.49 1.87.39 2.2 1.49.48 2.19.48 7.9-.14 6.82-.48 7.92-.93 1.49-2.2 1.49zm1.37-9.44c0-5.32-.07-6.16-.29-7.1-.14-.7-.46-1-1.1-1s-.94.26-1.08.94c-.22 1-.32 1.75-.32 7.12s.08 6.25.32 7.13c.16.72.45.94 1.08.94s.91-.22 1.08-.94c.23-.82.31-1.76.31-7.09z"/><path d="m46.67 136.69h1.33v13.44c0 2.42 0 3.09-.41 3.86s-1.12 1.18-2.28 1.18-1.93-.29-2.31-1.17-.43-1.41-.43-3.86v-13.45h1.35v13.44c0 2.13 0 2.57.28 3.09a1.08 1.08 0 0 0 1.11.58 1 1 0 0 0 1.08-.58c.24-.52.29-1 .29-3.09z"/><path d="m49.4 154.86v-18.17h1.3v16.8h2.9v1.37z"/><path d="m54.66 154.86v-18.17h2.78a1.94 1.94 0 0 1 2.21 1.44c.38 1.08.48 2.13.48 7.63 0 5.78-.12 6.65-.46 7.7s-.91 1.4-2.23 1.4zm2.76-1.35a.94.94 0 0 0 1.1-.86c.22-.87.29-1.66.29-6.89 0-5 0-5.95-.29-6.82-.21-.69-.48-.93-1.1-.93h-1.42v15.5z"/><path d="m67 155.17c-1.27 0-1.85-.36-2.21-1.49s-.48-2.21-.48-7.92.12-6.77.48-7.9.94-1.49 2.21-1.49 1.87.39 2.21 1.49.48 2.19.48 7.9-.15 6.82-.48 7.92-.97 1.49-2.21 1.49zm1.39-9.44c0-5.32-.07-6.16-.29-7.1-.14-.7-.45-1-1.1-1s-.94.26-1.08.94c-.22 1-.31 1.75-.31 7.12s.07 6.25.31 7.13c.17.72.46.94 1.08.94s.91-.22 1.08-.94c.19-.82.28-1.76.28-7.09z"/><path d="m75.68 154.86c-2.81-12.29-3.17-13.66-3.41-15h-.09v4.35 10.66h-1.18v-18.18h1.71c2.18 10.36 2.35 11.3 2.44 12h.1c0-.69 0-1.61 0-3.21v-8.76h1.23v18.17z"/><path d="m77.94 154.86v-18.17h1.29v16.8h2.91v1.37z"/><path d="m83.55 154.86v-8.57l-2.2-9.48v-.12h1.32c1.2 5.61 1.44 6.88 1.48 7.51h.1c0-.63.31-1.9 1.61-7.51h1.27v.12l-2.13 9.45v8.6z"/><path d="m91.14 154.86v-18.17h3c1.06 0 1.54.21 1.9 1.15a9.94 9.94 0 0 1 .41 3.74c0 2.26-.15 2.91-.39 3.34a1.05 1.05 0 0 1 -.5.48v.12a1.21 1.21 0 0 1 .55.43c.36.46.48 1 .48 4 0 2.26-.09 2.9-.43 3.72a1.62 1.62 0 0 1 -1.85 1.18zm2.66-9.86c.77 0 .94-.12 1.08-.46s.24-.77.24-3c0-2.09-.07-2.57-.26-3a.75.75 0 0 0 -.86-.54h-1.57v7zm.29 8.61a.8.8 0 0 0 .89-.52c.19-.48.26-1 .26-3.22 0-2.45 0-2.81-.24-3.29s-.33-.48-1.13-.48h-1.44v7.51z"/><path d="m97.83 154.86v-18.17h4.42v1.31h-3.12v7h3.07v1.27h-3.07v7.25h3.09v1.37z"/><path d="m110.58 136.69h1.29v13.44c0 2.42 0 3.09-.4 3.86s-1.13 1.18-2.29 1.18-1.89-.29-2.28-1.18-.43-1.41-.43-3.86v-13.44h1.35v13.44c0 2.13 0 2.57.28 3.09a1.08 1.08 0 0 0 1.11.58 1 1 0 0 0 1.08-.58c.24-.52.29-1 .29-3.09z"/><path d="m114.34 148.78c0 .41-.07 1-.07 1.83a5.91 5.91 0 0 0 .34 2.71.86.86 0 0 0 .89.53c.48 0 .81-.07 1-.51a8.8 8.8 0 0 0 .39-3.24c0-2.18-.07-2.37-.17-2.64a1.84 1.84 0 0 0 -.5-.67c-.53-.53-1.76-1.34-2.14-1.75a3.1 3.1 0 0 1 -.74-1.08c-.2-.55-.27-1.13-.27-3.51a8.91 8.91 0 0 1 .27-2.61c.31-1.06.93-1.47 2.18-1.47s1.82.41 2.14 1.18a7.3 7.3 0 0 1 .36 2.64 13.51 13.51 0 0 1 -.12 2.14h-1.16a13.45 13.45 0 0 0 .1-1.85 7.45 7.45 0 0 0 -.19-1.87c-.17-.7-.48-.94-1.13-.94s-.89.24-1.06 1a8.74 8.74 0 0 0 -.16 2c0 2.4 0 2.54.19 2.93a1.74 1.74 0 0 0 .43.62c.41.43 1.68 1.22 2.21 1.73a2.6 2.6 0 0 1 .72 1c.17.38.26.69.26 3.21a10.41 10.41 0 0 1 -.53 4c-.38.86-1 1.08-2.08 1.08a1.87 1.87 0 0 1 -2.07-1.37 9.08 9.08 0 0 1 -.33-3 18.68 18.68 0 0 1 .09-2z"/><path d="m119.48 154.86v-18.17h4.42v1.31h-3.12v7h3.07v1.27h-3.07v7.25h3.09v1.37z"/><path d="m125.29 154.86v-18.17h2.78a1.94 1.94 0 0 1 2.21 1.44c.38 1.08.48 2.13.48 7.63 0 5.78-.12 6.65-.46 7.7s-.91 1.4-2.23 1.4zm2.76-1.35a.94.94 0 0 0 1.1-.86c.22-.87.29-1.66.29-6.89 0-5 0-5.95-.29-6.82-.21-.69-.48-.93-1.1-.93h-1.47v15.5z"/><path d="m135.08 154.86v-18.17h4.37v1.31h-3.07v7.08h3v1.27h-3v8.5z"/><path d="m143.09 155.17c-1.27 0-1.84-.36-2.2-1.49s-.48-2.21-.48-7.92.12-6.77.48-7.9.93-1.49 2.2-1.49 1.88.39 2.21 1.49.48 2.19.48 7.9-.14 6.82-.48 7.92-.93 1.49-2.21 1.49zm1.4-9.44c0-5.32-.07-6.16-.29-7.1-.15-.7-.46-1-1.11-1s-.93.26-1.08.94c-.21 1-.31 1.75-.31 7.12s.07 6.25.31 7.13c.17.72.46.94 1.08.94s.92-.22 1.09-.94c.21-.82.31-1.76.31-7.09z"/><path d="m151.3 154.86a14.28 14.28 0 0 1 -.31-3.41c-.09-2.84-.14-3.29-.33-3.89a.91.91 0 0 0 -1-.7h-1.22v8h-1.3v-18.17h2.93a1.8 1.8 0 0 1 1.7.84c.39.57.65 1.32.65 4.05a11 11 0 0 1 -.33 3.75 1.3 1.3 0 0 1 -.82.93v.1a1.31 1.31 0 0 1 .62.89 16.58 16.58 0 0 1 .41 3.93 15.89 15.89 0 0 0 .31 3.58v.1zm-1.68-9.2c.58 0 .87-.07 1.13-.5s.36-1.08.36-3.58c0-2.28-.05-2.61-.31-3.09a.86.86 0 0 0 -.8-.49h-1.53v7.68z"/><path d="m158.29 154.86v-16.86h-2v-1.32h5.21v1.32h-1.92v16.85z"/><path d="m162.61 154.86v-18.17h1.39v18.17z"/><path d="m167 154.86v-16.86h-2v-1.32h5.21v1.32h-1.91v16.85z"/><path d="m171.27 154.86v-18.17h1.3v16.8h2.9v1.37z"/><path d="m176.53 154.86v-18.17h4.41v1.31h-3.12v7h3.07v1.27h-3.07v7.25h3.1v1.37z"/><path d="m183.37 148.78a15.42 15.42 0 0 0 -.08 1.83 5.91 5.91 0 0 0 .34 2.71.86.86 0 0 0 .89.53c.48 0 .81-.07 1-.51a8.87 8.87 0 0 0 .38-3.24c0-2.18-.07-2.37-.17-2.64a1.64 1.64 0 0 0 -.5-.67c-.53-.53-1.75-1.34-2.14-1.75a3.24 3.24 0 0 1 -.74-1.08 10.75 10.75 0 0 1 -.27-3.51 9.27 9.27 0 0 1 .27-2.61c.31-1.06.93-1.47 2.18-1.47s1.83.41 2.14 1.18a7.3 7.3 0 0 1 .36 2.64 13.51 13.51 0 0 1 -.12 2.14h-1.15a16 16 0 0 0 .09-1.85 7.45 7.45 0 0 0 -.19-1.87c-.17-.7-.48-.94-1.13-.94s-.89.24-1 1a8.65 8.65 0 0 0 -.17 2c0 2.4 0 2.54.19 2.93a1.87 1.87 0 0 0 .43.62c.41.43 1.68 1.22 2.21 1.73a2.6 2.6 0 0 1 .72 1c.17.38.26.69.26 3.21a10.67 10.67 0 0 1 -.52 4c-.39.86-1 1.08-2.09 1.08a1.87 1.87 0 0 1 -2.07-1.37 9.08 9.08 0 0 1 -.33-3c0-1 0-1.58.09-2z"/><path d="m188.09 154.86v-2.72h1.3v2.72z"/><g transform="matrix(.70710678 -.70710678 .70710678 .70710678 -14.05 33.93)"><path d="m-13.8 33.68h95.47v.5h-95.47z"/><path d="m33.68-13.8h.5v95.47h-.5z"/></g></g></svg>