<svg xmlns="http://www.w3.org/2000/svg" viewBox="0 0 602.08 377.66"><defs><style>.cls-1{fill:#44a49d;}.cls-2{fill:#949598;}.cls-3{fill:#d9dd50;}.cls-4{fill:none;stroke:#221f20;stroke-miterlimit:10;}</style></defs><g id="Layer_2" data-name="Layer 2"><g id="Layer_1-2" data-name="Layer 1"><g id="Group_27" data-name="Group 27"><path id="Path_183-4" data-name="Path 183-4" class="cls-1" d="M149.48,249.44h-7.27V207.6h7.27Zm49.13,0H182.76L155.7,235.65a8.8,8.8,0,0,1-3.22-3,8.08,8.08,0,0,1,0-8.64,8.85,8.85,0,0,1,3.22-3l26.45-13.5h15.92l-40.93,20.77Z"/><path id="Path_184-4" data-name="Path 184-4" class="cls-1" d="M276.62,249.44H232.81a10.91,10.91,0,0,1-4.43-.91,11.35,11.35,0,0,1-6-6,10.93,10.93,0,0,1-.91-4.44V219a11.08,11.08,0,0,1,.91-4.43,11.4,11.4,0,0,1,10.46-6.94h43.81v7.28h-47.9v10h47.9v7.28h-47.9v10h47.9Z"/><path id="Path_185-4" data-name="Path 185-4" class="cls-1" d="M363.12,225.34a10.93,10.93,0,0,1-.91,4.44,11.42,11.42,0,0,1-6,6,11.27,11.27,0,0,1-4.44.91H315.22v12.73h-7.28V207.6h43.81a11.38,11.38,0,0,1,10.46,6.94,10.91,10.91,0,0,1,.91,4.43Zm-7.28-10.46H315.22v14.55h40.62Z"/><path id="Path_186-4" data-name="Path 186-4" class="cls-1" d="M436,249.44H403.11a10.93,10.93,0,0,1-4.44-.91,11.3,11.3,0,0,1-6-6,10.93,10.93,0,0,1-.91-4.44V207.6H399v34.57h37Z"/><path id="Path_187-4" data-name="Path 187-4" class="cls-1" d="M516.4,249.44H472.59a10.85,10.85,0,0,1-4.43-.91,11.35,11.35,0,0,1-6-6,10.93,10.93,0,0,1-.91-4.44V219a10.91,10.91,0,0,1,.91-4.43,11.33,11.33,0,0,1,6-6,11.18,11.18,0,0,1,4.43-.91H516.4v7.28H468.5v10h47.9v7.28H468.5v10h47.9Z"/><path id="Path_188-4" data-name="Path 188-4" class="cls-1" d="M602.07,249.44H594.8V236.71H554.18v12.73H546.9V207.6h43.81A11.4,11.4,0,0,1,602.08,219v6.37a8.54,8.54,0,0,1-1.25,4.62,8.86,8.86,0,0,1-3.38,3.11,8.86,8.86,0,0,1,3.38,3.11,8.54,8.54,0,0,1,1.25,4.62Zm-7.27-34.56H554.18v14.55H594.8Z"/><path id="Path_189-4" data-name="Path 189-4" class="cls-1" d="M113.16,198.15l25.4-14.66-26.45-15.28L86.66,182.9Z"/><path id="Path_190-4" data-name="Path 190-4" class="cls-1" d="M84.73,185.86v29.36l26.46,15.28V201.08Z"/></g><g id="Group_27-2" data-name="Group 27"><path id="Path_183-4-2" data-name="Path 183-4" class="cls-2" d="M149.48,116.59h-7.27V74.75h7.27Zm49.13,0H182.76L155.7,102.8a8.8,8.8,0,0,1-3.22-3,8.08,8.08,0,0,1,0-8.64,8.85,8.85,0,0,1,3.22-3l26.45-13.5h15.92L157.14,95.52Z"/><path id="Path_184-4-2" data-name="Path 184-4" class="cls-2" d="M276.62,116.59H232.81a10.91,10.91,0,0,1-4.43-.91,11.35,11.35,0,0,1-6-6,10.93,10.93,0,0,1-.91-4.44V86.12a11.08,11.08,0,0,1,.91-4.43,11.33,11.33,0,0,1,6-6,10.91,10.91,0,0,1,4.43-.91h43.81V82h-47.9V92h47.9v7.28h-47.9v10h47.9Z"/><path id="Path_185-4-2" data-name="Path 185-4" class="cls-2" d="M363.12,92.49a11,11,0,0,1-.91,4.44,11.36,11.36,0,0,1-6,6,10.93,10.93,0,0,1-4.44.91H315.22V116.6h-7.28V74.75h43.81a11.1,11.1,0,0,1,4.44.91,11.35,11.35,0,0,1,6,6,10.91,10.91,0,0,1,.91,4.43ZM355.84,82H315.22V96.58h40.62Z"/><path id="Path_186-4-2" data-name="Path 186-4" class="cls-2" d="M436,116.59H403.11a10.93,10.93,0,0,1-4.44-.91,11.33,11.33,0,0,1-6-6,10.93,10.93,0,0,1-.91-4.44V74.75H399v34.56h37Z"/><path id="Path_187-4-2" data-name="Path 187-4" class="cls-2" d="M516.4,116.59H472.59a10.85,10.85,0,0,1-4.43-.91,11.35,11.35,0,0,1-6-6,10.93,10.93,0,0,1-.91-4.44V86.12a10.91,10.91,0,0,1,.91-4.43,11.33,11.33,0,0,1,6-6,10.85,10.85,0,0,1,4.43-.91H516.4V82H468.5V92h47.9v7.28H468.5v10h47.9Z"/><path id="Path_188-4-2" data-name="Path 188-4" class="cls-2" d="M602.07,116.59H594.8V103.86H554.18v12.73H546.9V74.75h43.81a10.91,10.91,0,0,1,4.43.91,11.4,11.4,0,0,1,6.94,10.46v6.37a8.54,8.54,0,0,1-1.25,4.62,8.94,8.94,0,0,1-3.38,3.11,8.86,8.86,0,0,1,3.38,3.11,8.52,8.52,0,0,1,1.25,4.62ZM594.8,82H554.18V96.58H594.8Z"/><path id="Path_189-4-2" data-name="Path 189-4" class="cls-2" d="M113.16,65.3l25.4-14.67L112.11,35.36,86.66,50.05Z"/><path id="Path_190-4-2" data-name="Path 190-4" class="cls-2" d="M84.73,53V82.37l26.46,15.27V68.23Z"/></g><g id="Group_27-3" data-name="Group 27"><path id="Path_183-4-3" data-name="Path 183-4" class="cls-3" d="M149.48,377.66h-7.27V335.82h7.27Zm49.13,0H182.76l-27.06-13.8a8.78,8.78,0,0,1-3.22-2.95,8.08,8.08,0,0,1,0-8.64,8.88,8.88,0,0,1,3.22-3l26.45-13.49h15.92l-40.93,20.77Z"/><path id="Path_184-4-3" data-name="Path 184-4" class="cls-3" d="M276.62,377.66H232.81a10.91,10.91,0,0,1-4.43-.91,11.33,11.33,0,0,1-6-6,10.91,10.91,0,0,1-.91-4.43v-19.1a11.1,11.1,0,0,1,.91-4.44,11.35,11.35,0,0,1,6-6,10.91,10.91,0,0,1,4.43-.91h43.81v7.27h-47.9v10h47.9v7.28h-47.9v10h47.9Z"/><path id="Path_185-4-3" data-name="Path 185-4" class="cls-3" d="M363.12,353.55a10.93,10.93,0,0,1-.91,4.44,11.35,11.35,0,0,1-6,6,10.93,10.93,0,0,1-4.44.91H315.22v12.73h-7.28V335.82h43.81a10.93,10.93,0,0,1,4.44.91,11.36,11.36,0,0,1,6,6,10.93,10.93,0,0,1,.91,4.44Zm-7.28-10.46H315.22v14.56h40.62Z"/><path id="Path_186-4-3" data-name="Path 186-4" class="cls-3" d="M436,377.66H403.11a10.93,10.93,0,0,1-4.44-.91,11.32,11.32,0,0,1-6-6,10.91,10.91,0,0,1-.91-4.43V335.82H399v34.56h37Z"/><path id="Path_187-4-3" data-name="Path 187-4" class="cls-3" d="M516.4,377.66H472.59a10.85,10.85,0,0,1-4.43-.91,11.33,11.33,0,0,1-6-6,10.91,10.91,0,0,1-.91-4.43v-19.1a10.93,10.93,0,0,1,.91-4.44,11.35,11.35,0,0,1,6-6,10.85,10.85,0,0,1,4.43-.91H516.4v7.27H468.5v10h47.9v7.28H468.5v10h47.9Z"/><path id="Path_188-4-3" data-name="Path 188-4" class="cls-3" d="M602.07,377.66H594.8V364.92H554.18v12.74H546.9V335.82h43.81a10.91,10.91,0,0,1,4.43.91,11.38,11.38,0,0,1,6.94,10.46v6.36a8.58,8.58,0,0,1-1.25,4.63,8.92,8.92,0,0,1-3.38,3.1,9,9,0,0,1,3.38,3.11,8.58,8.58,0,0,1,1.25,4.63Zm-7.27-34.57H554.18v14.56H594.8Z"/><path id="Path_189-4-3" data-name="Path 189-4" class="cls-3" d="M113.16,326.37l25.4-14.67-26.45-15.28-25.45,14.7Z"/><path id="Path_190-4-3" data-name="Path 190-4" class="cls-3" d="M84.73,314.07v29.36l26.46,15.28V329.3Z"/></g><line class="cls-4" x1="0.35" y1="0.35" x2="332.2" y2="332.2"/><line class="cls-4" x1="332.2" y1="0.35" x2="0.35" y2="332.2"/></g></g></svg>