<svg xmlns="http://www.w3.org/2000/svg" viewBox="0 0 117.07 117.07"><defs><style>.cls-1{fill:#fff;}.cls-2{fill:#2d2d2d;stroke:#221f20;stroke-miterlimit:10;stroke-width:0.25px;}</style></defs><g id="Layer_2" data-name="Layer 2"><g id="Layer_1-2" data-name="Layer 1"><circle class="cls-1" cx="58.53" cy="58.53" r="58.53"/><path class="cls-2" d="M58.53,27A31.54,31.54,0,1,0,90.07,58.53,31.53,31.53,0,0,0,58.53,27ZM49.32,66.52,37.67,59.79V46.87l11.65,6.7ZM38.51,45.57,49.72,39.1l11.65,6.72L50.18,52.28ZM59.82,75.09h-3.2V56.67h3.2Zm14.65,0L62.56,69a3.86,3.86,0,0,1-1.42-1.3,3.34,3.34,0,0,1-.55-1.9,3.39,3.39,0,0,1,.55-1.91,3.94,3.94,0,0,1,1.42-1.3L74.2,56.67h7l-18,9.14,18.25,9.28Z"/></g></g></svg>