<svg xmlns="http://www.w3.org/2000/svg" viewBox="0 0 117.32 117.32"><defs><style>.cls-1{fill:#2d2d2d;stroke:#221f20;stroke-miterlimit:10;stroke-width:0.25px;}.cls-2{fill:#fff;}</style></defs><g id="Layer_2" data-name="Layer 2"><g id="Layer_1-2" data-name="Layer 1"><circle class="cls-1" cx="58.66" cy="58.66" r="58.53"/><path class="cls-2" d="M58.66,27.13A31.53,31.53,0,1,0,90.19,58.66,31.53,31.53,0,0,0,58.66,27.13ZM49.44,66.64,37.79,59.92V47l11.65,6.7Zm-10.8-21,11.2-6.47L61.5,46,50.31,52.4ZM60,75.21H56.74V56.79H60Zm14.64,0L62.68,69.14a4,4,0,0,1-1.42-1.3,3.47,3.47,0,0,1-.55-1.91,3.37,3.37,0,0,1,.56-1.9,3.83,3.83,0,0,1,1.41-1.3l11.65-5.94h7l-18,9.14,18.26,9.28Z"/></g></g></svg>