<svg xmlns="http://www.w3.org/2000/svg" viewBox="0 0 117.32 117.32"><defs><style>.cls-1{opacity:0.08;}.cls-2{fill:#fff;}.cls-3{fill:none;stroke:#949598;stroke-linecap:round;stroke-linejoin:round;stroke-width:0.25px;stroke-dasharray:2 3;}</style></defs><g id="Layer_2" data-name="Layer 2"><g id="Layer_1-2" data-name="Layer 1"><g class="cls-1"><g id="Path_189-3" data-name="Path 189-3"><polygon class="cls-2" points="61.36 13 72.25 6.71 60.91 0.16 50 6.46 61.36 13"/></g><g id="Path_190-3" data-name="Path 190-3"><polygon class="cls-2" points="49.17 7.73 49.17 20.31 60.52 26.86 60.52 14.25 49.17 7.73"/></g></g><g class="cls-1"><g id="Path_189-3-2" data-name="Path 189-3"><polygon class="cls-2" points="60.06 104.01 49.17 110.3 60.52 116.85 71.42 110.55 60.06 104.01"/></g><g id="Path_190-3-2" data-name="Path 190-3"><polygon class="cls-2" points="72.25 109.28 72.25 96.7 60.91 90.15 60.91 102.76 72.25 109.28"/></g></g><path class="cls-2" d="M58.66,27.13A31.53,31.53,0,1,0,90.19,58.66,31.53,31.53,0,0,0,58.66,27.13ZM49.44,66.64,37.79,59.92V47l11.65,6.7Zm-10.8-21,11.2-6.47L61.5,46,50.31,52.4ZM60,75.21H56.74V56.79H60Zm14.64,0L62.68,69.14a4,4,0,0,1-1.42-1.3,3.47,3.47,0,0,1-.55-1.91,3.37,3.37,0,0,1,.56-1.9,3.83,3.83,0,0,1,1.41-1.3l11.65-5.94h7l-18,9.14,18.26,9.28Z"/><g class="cls-1"><g id="Path_189-3-3" data-name="Path 189-3"><polygon class="cls-2" points="104.4 59.34 110.69 70.23 117.24 58.89 110.94 47.98 104.4 59.34"/></g><g id="Path_190-3-3" data-name="Path 190-3"><polygon class="cls-2" points="109.67 47.15 97.09 47.15 90.54 58.49 103.15 58.49 109.67 47.15"/></g></g><g class="cls-1"><g id="Path_189-3-4" data-name="Path 189-3"><polygon class="cls-2" points="13.02 58.04 6.74 47.15 0.19 58.49 6.49 69.4 13.02 58.04"/></g><g id="Path_190-3-4" data-name="Path 190-3"><polygon class="cls-2" points="7.75 70.23 20.34 70.23 26.88 58.88 14.28 58.88 7.75 70.23"/></g></g><circle class="cls-3" cx="58.66" cy="58.66" r="58.53"/></g></g></svg>