<svg xmlns="http://www.w3.org/2000/svg" viewBox="0 0 275.13 88.5"><defs><style>.cls-1{fill:#fff;}.cls-2{fill:#2d2d2d;stroke:#221f20;stroke-miterlimit:10;stroke-width:0.25px;}</style></defs><g id="Layer_2" data-name="Layer 2"><g id="Layer_1-2" data-name="Layer 1"><rect class="cls-1" width="275.13" height="88.5"/><g id="Group_39" data-name="Group 39"><path id="Path_183-3" data-name="Path 183-3" class="cls-2" d="M54.21,61.42H51.1V43.49h3.11Zm21.05,0H68.47L56.88,55.51a3.74,3.74,0,0,1-1.38-1.27,3.46,3.46,0,0,1,0-3.71,3.72,3.72,0,0,1,1.38-1.26l11.34-5.78H75l-17.55,8.9Z"/><path id="Path_184-3" data-name="Path 184-3" class="cls-2" d="M108.7,61.42H89.93A4.75,4.75,0,0,1,88,61a4.85,4.85,0,0,1-2.58-2.59,4.59,4.59,0,0,1-.39-1.9V48.36a4.59,4.59,0,0,1,.39-1.9A4.85,4.85,0,0,1,88,43.87a4.75,4.75,0,0,1,1.9-.39H108.7V46.6H88.17v4.29H108.7V54H88.17V58.3H108.7Z"/><path id="Path_185-3" data-name="Path 185-3" class="cls-2" d="M145.78,51.09a4.79,4.79,0,0,1-.39,1.9,4.86,4.86,0,0,1-2.58,2.58,4.79,4.79,0,0,1-1.9.39H125.25v5.46h-3.12V43.49h18.78a4.61,4.61,0,0,1,1.9.38,4.88,4.88,0,0,1,2.58,2.59,4.75,4.75,0,0,1,.39,1.9Zm-3.12-4.49H125.25v6.24h17.41Z"/><path id="Path_186-3" data-name="Path 186-3" class="cls-2" d="M177,61.42h-14.1A4.75,4.75,0,0,1,161,61a4.85,4.85,0,0,1-2.58-2.59,4.59,4.59,0,0,1-.39-1.9v-13h3.11V58.3H177Z"/><path id="Path_187-3" data-name="Path 187-3" class="cls-2" d="M211.47,61.42H192.7a4.75,4.75,0,0,1-1.9-.39,4.91,4.91,0,0,1-2.59-2.58,4.62,4.62,0,0,1-.38-1.91V48.36a4.58,4.58,0,0,1,.38-1.9,4.9,4.9,0,0,1,2.59-2.59,4.75,4.75,0,0,1,1.9-.39h18.77V46.6H190.94v4.29h20.53V54H190.94V58.3h20.53Z"/><path id="Path_188-3" data-name="Path 188-3" class="cls-2" d="M248.2,61.42h-3.12V56H227.67v5.46h-3.12V43.49h18.77a4.58,4.58,0,0,1,1.9.38,4.86,4.86,0,0,1,2.59,2.59,4.72,4.72,0,0,1,.39,1.9v2.72a3.68,3.68,0,0,1-.54,2,3.86,3.86,0,0,1-1.45,1.33,3.86,3.86,0,0,1,1.45,1.33,3.62,3.62,0,0,1,.54,2ZM245.08,46.6H227.67v6.24h17.41Z"/><path id="Path_189-3" data-name="Path 189-3" class="cls-2" d="M38.64,39.43l10.89-6.28L38.19,26.6,27.28,32.9Z"/><path id="Path_190-3" data-name="Path 190-3" class="cls-2" d="M26.46,34.16V46.75L37.8,53.3V40.69Z"/></g></g></g></svg>