<svg xmlns="http://www.w3.org/2000/svg" viewBox="0 0 762.15 332.55"><defs><style>.cls-1,.cls-2{fill:#fff;}.cls-2{stroke:#f1f2f2;stroke-miterlimit:10;}</style></defs><g id="Layer_2" data-name="Layer 2"><g id="Layer_1-2" data-name="Layer 1"><g id="Group_27" data-name="Group 27"><path id="Path_183-4" data-name="Path 183-4" class="cls-1" d="M212.76,263.71h-8.83V199.6h8.83Zm59.63,0H253.15L220.3,242.57a12.15,12.15,0,0,1-3.91-4.53,15.22,15.22,0,0,1,0-13.24,12.32,12.32,0,0,1,3.91-4.53l32.11-20.67h19.32l-49.68,31.82Z"/><path id="Path_184-4" data-name="Path 184-4" class="cls-1" d="M367.08,263.71H313.91a11,11,0,0,1-5.39-1.4,16.08,16.08,0,0,1-7.31-9.23,20.61,20.61,0,0,1-1.1-6.79V217a20.67,20.67,0,0,1,1.1-6.8,16.05,16.05,0,0,1,7.32-9.23,11,11,0,0,1,5.38-1.39h53.18v11.15H308.94v15.32h58.14v11.16H308.94v15.32h58.14Z"/><path id="Path_185-4" data-name="Path 185-4" class="cls-1" d="M472.09,226.77a20.73,20.73,0,0,1-1.11,6.81,16,16,0,0,1-7.31,9.23,10.93,10.93,0,0,1-5.38,1.39H413.94v19.52h-8.83V199.6h53.18a11,11,0,0,1,5.38,1.39,16.07,16.07,0,0,1,7.31,9.23,20.67,20.67,0,0,1,1.11,6.8Zm-8.84-16H413.94V233h49.31Z"/><path id="Path_186-4" data-name="Path 186-4" class="cls-1" d="M560.55,263.71H520.62a10.94,10.94,0,0,1-5.38-1.4,16.05,16.05,0,0,1-7.32-9.23,20.87,20.87,0,0,1-1.1-6.79V199.6h8.84v53h44.89Z"/><path id="Path_187-4" data-name="Path 187-4" class="cls-1" d="M658.15,263.71H605a11,11,0,0,1-5.39-1.4,16,16,0,0,1-7.31-9.23,20.61,20.61,0,0,1-1.11-6.79V217a20.67,20.67,0,0,1,1.11-6.8,16,16,0,0,1,7.31-9.23A11.07,11.07,0,0,1,605,199.6h53.17v11.15H600v15.32h58.15v11.16H600v15.32h58.15Z"/><path id="Path_188-4" data-name="Path 188-4" class="cls-1" d="M762.14,263.71h-8.83V244.2H704v19.51h-8.83V199.6h53.18a11,11,0,0,1,5.38,1.39,16,16,0,0,1,7.31,9.23,20.67,20.67,0,0,1,1.11,6.8v9.75a15.67,15.67,0,0,1-1.52,7.09,12.29,12.29,0,0,1-4.1,4.76,12.29,12.29,0,0,1,4.1,4.76,15.67,15.67,0,0,1,1.52,7.09Zm-8.83-53H704V233h49.31Z"/><path id="Path_189-4" data-name="Path 189-4" class="cls-1" d="M168.66,185.12l30.84-22.48-32.11-23.41-30.9,22.52Z"/><path id="Path_190-4" data-name="Path 190-4" class="cls-1" d="M134.16,166.27v45l32.11,23.41V189.6Z"/></g><line class="cls-2" x1="0.35" y1="0.35" x2="332.2" y2="332.2"/><line class="cls-2" x1="332.2" y1="0.35" x2="0.35" y2="332.2"/></g></g></svg>