<svg xmlns="http://www.w3.org/2000/svg" viewBox="0 0 275.38 88.75"><defs><style>.cls-1{fill:#2d2d2d;stroke:#221f20;stroke-miterlimit:10;stroke-width:0.25px;}.cls-2{fill:#fff;}</style></defs><g id="Layer_2" data-name="Layer 2"><g id="Layer_1-2" data-name="Layer 1"><rect class="cls-1" x="0.13" y="0.13" width="275.13" height="88.5"/><g id="Group_39" data-name="Group 39"><path id="Path_183-3" data-name="Path 183-3" class="cls-2" d="M54.34,61.54H51.22V43.61h3.12Zm21,0H68.6L57,55.63a3.82,3.82,0,0,1-1.38-1.27,3.48,3.48,0,0,1,0-3.7A3.82,3.82,0,0,1,57,49.39l11.34-5.78h6.82l-17.54,8.9Z"/><path id="Path_184-3" data-name="Path 184-3" class="cls-2" d="M108.83,61.54H90.05a4.62,4.62,0,0,1-1.9-.39,4.86,4.86,0,0,1-2.58-2.58,4.79,4.79,0,0,1-.39-1.9V48.48a4.79,4.79,0,0,1,.39-1.9A4.86,4.86,0,0,1,88.15,44a4.79,4.79,0,0,1,1.9-.39h18.78v3.12H88.3V51h20.53v3.12H88.3v4.29h20.53Z"/><path id="Path_185-3" data-name="Path 185-3" class="cls-2" d="M145.91,51.21a4.75,4.75,0,0,1-.39,1.9,4.85,4.85,0,0,1-2.59,2.58,4.43,4.43,0,0,1-1.9.39H125.37v5.46h-3.12V43.61H141a4.88,4.88,0,0,1,4.48,3,4.62,4.62,0,0,1,.39,1.9Zm-3.12-4.48H125.37V53h17.41Z"/><path id="Path_186-3" data-name="Path 186-3" class="cls-2" d="M177.14,61.54H163a4.62,4.62,0,0,1-1.9-.39,4.86,4.86,0,0,1-2.58-2.58,4.79,4.79,0,0,1-.39-1.9V43.61h3.12V58.42h15.85Z"/><path id="Path_187-3" data-name="Path 187-3" class="cls-2" d="M211.6,61.54H192.82a4.62,4.62,0,0,1-1.9-.39,4.86,4.86,0,0,1-2.58-2.58,4.79,4.79,0,0,1-.39-1.9V48.48a4.79,4.79,0,0,1,.39-1.9A4.86,4.86,0,0,1,190.92,44a4.79,4.79,0,0,1,1.9-.39H211.6v3.12H191.07V51H211.6v3.12H191.07v4.29H211.6Z"/><path id="Path_188-3" data-name="Path 188-3" class="cls-2" d="M248.32,61.54H245.2V56.08H227.79v5.46h-3.12V43.61h18.78a4.79,4.79,0,0,1,1.9.39,4.86,4.86,0,0,1,2.58,2.58,4.79,4.79,0,0,1,.39,1.9v2.73a3.54,3.54,0,0,1-.54,2,3.76,3.76,0,0,1-1.44,1.33,3.76,3.76,0,0,1,1.44,1.33,3.6,3.6,0,0,1,.54,2ZM245.2,46.73H227.79V53H245.2Z"/><path id="Path_189-3" data-name="Path 189-3" class="cls-2" d="M38.77,39.56l10.89-6.29L38.32,26.72,27.41,33Z"/><path id="Path_190-3" data-name="Path 190-3" class="cls-2" d="M26.58,34.29V46.87l11.34,6.55V40.81Z"/></g></g></g></svg>