<svg xmlns="http://www.w3.org/2000/svg" viewBox="0 0 818.63 332.55"><defs><style>.cls-1{fill:#f1f2f2;}.cls-2{fill:none;stroke:#fff;stroke-miterlimit:10;}.cls-3{font-size:47.32px;fill:#221f20;font-family:AmericanTypewriter, American Typewriter;}</style></defs><g id="Layer_2" data-name="Layer 2"><g id="Layer_1-2" data-name="Layer 1"><g id="Group_27" data-name="Group 27"><path id="Path_183-4" data-name="Path 183-4" class="cls-1" d="M149.48,229.86h-7.27V188h7.27Zm49.13,0H182.76L155.7,216.07a8.8,8.8,0,0,1-3.22-3,8.08,8.08,0,0,1,0-8.64,8.77,8.77,0,0,1,3.22-2.95L182.15,188h15.92l-40.93,20.77Z"/><path id="Path_184-4" data-name="Path 184-4" class="cls-1" d="M276.62,229.86H232.81a10.91,10.91,0,0,1-4.43-.91,11.35,11.35,0,0,1-6-6,10.93,10.93,0,0,1-.91-4.44v-19.1a11.08,11.08,0,0,1,.91-4.43,11.33,11.33,0,0,1,6-6,10.91,10.91,0,0,1,4.43-.91h43.81v7.28h-47.9v10h47.9v7.28h-47.9v10h47.9Z"/><path id="Path_185-4" data-name="Path 185-4" class="cls-1" d="M363.12,205.76a11,11,0,0,1-.91,4.44,11.36,11.36,0,0,1-6,6,10.93,10.93,0,0,1-4.44.91H315.22v12.74h-7.28V188h43.81a11.1,11.1,0,0,1,4.44.91,11.35,11.35,0,0,1,6,6,10.91,10.91,0,0,1,.91,4.43Zm-7.28-10.46H315.22v14.55h40.62Z"/><path id="Path_186-4" data-name="Path 186-4" class="cls-1" d="M436,229.86H403.11a10.93,10.93,0,0,1-4.44-.91,11.33,11.33,0,0,1-6-6,10.93,10.93,0,0,1-.91-4.44V188H399v34.56h37Z"/><path id="Path_187-4" data-name="Path 187-4" class="cls-1" d="M516.4,229.86H472.59a10.85,10.85,0,0,1-4.43-.91,11.35,11.35,0,0,1-6-6,10.93,10.93,0,0,1-.91-4.44v-19.1a10.91,10.91,0,0,1,.91-4.43,11.33,11.33,0,0,1,6-6,10.85,10.85,0,0,1,4.43-.91H516.4v7.28H468.5v10h47.9v7.28H468.5v10h47.9Z"/><path id="Path_188-4" data-name="Path 188-4" class="cls-1" d="M602.07,229.86H594.8V217.13H554.18v12.73H546.9V188h43.81a10.91,10.91,0,0,1,4.43.91,11.4,11.4,0,0,1,6.94,10.46v6.37a8.54,8.54,0,0,1-1.25,4.62,8.94,8.94,0,0,1-3.38,3.11,8.86,8.86,0,0,1,3.38,3.11,8.52,8.52,0,0,1,1.25,4.62ZM594.8,195.3H554.18v14.55H594.8Z"/><path id="Path_189-4" data-name="Path 189-4" class="cls-1" d="M113.16,178.57l25.4-14.67-26.45-15.27L86.66,163.32Z"/><path id="Path_190-4" data-name="Path 190-4" class="cls-1" d="M84.73,166.27v29.37l26.46,15.27V181.5Z"/></g><line class="cls-2" x1="0.35" y1="0.35" x2="332.2" y2="332.2"/><line class="cls-2" x1="332.2" y1="0.35" x2="0.35" y2="332.2"/><ellipse class="cls-1" cx="717.52" cy="163.6" rx="101.11" ry="87.74"/><text class="cls-3" transform="translate(657.07 180.78)">LOGO</text></g></g></svg>