<svg xmlns="http://www.w3.org/2000/svg" viewBox="0 0 517.35 81.24"><defs><style>.cls-1{fill:#fff;}</style></defs><g id="Layer_2" data-name="Layer 2"><g id="Layer_1-2" data-name="Layer 1"><g id="Group_27" data-name="Group 27"><path id="Path_183-4" data-name="Path 183-4" class="cls-1" d="M64.75,81.24H57.48V39.4h7.27Zm49.13,0H98L71,67.44a8.88,8.88,0,0,1-3.22-3,8.06,8.06,0,0,1,0-8.63,8.88,8.88,0,0,1,3.22-3L97.42,39.4h15.92L72.41,60.16Z"/><path id="Path_184-4" data-name="Path 184-4" class="cls-1" d="M191.89,81.24H148.08a11.4,11.4,0,0,1-11.37-11.37V50.76a11.26,11.26,0,0,1,.91-4.43,11.38,11.38,0,0,1,6-6,10.91,10.91,0,0,1,4.43-.91h43.81v7.27H144v10h47.9V64H144V74h47.9Z"/><path id="Path_185-4" data-name="Path 185-4" class="cls-1" d="M278.39,57.13a10.93,10.93,0,0,1-.91,4.44,11.35,11.35,0,0,1-6,6,10.93,10.93,0,0,1-4.44.91H230.49V81.24h-7.28V39.4H267a10.93,10.93,0,0,1,4.44.91,11.36,11.36,0,0,1,6,6,10.93,10.93,0,0,1,.91,4.44Zm-7.28-10.46H230.49V61.22h40.62Z"/><path id="Path_186-4" data-name="Path 186-4" class="cls-1" d="M351.27,81.24H318.38a11.38,11.38,0,0,1-10.46-6.94,10.91,10.91,0,0,1-.91-4.43V39.4h7.27V74h37Z"/><path id="Path_187-4" data-name="Path 187-4" class="cls-1" d="M431.67,81.24H387.86A11.4,11.4,0,0,1,377.4,74.3a10.91,10.91,0,0,1-.91-4.43V50.76a10.91,10.91,0,0,1,.91-4.43,11.35,11.35,0,0,1,6-6,10.91,10.91,0,0,1,4.43-.91h43.81v7.27h-47.9v10h47.9V64h-47.9V74h47.9Z"/><path id="Path_188-4" data-name="Path 188-4" class="cls-1" d="M517.35,81.24h-7.28V68.5H469.45V81.24h-7.28V39.4H506a10.91,10.91,0,0,1,4.43.91,11.28,11.28,0,0,1,6,6,10.93,10.93,0,0,1,.91,4.44v6.36a8.43,8.43,0,0,1-1.25,4.62,8.86,8.86,0,0,1-3.38,3.11A8.94,8.94,0,0,1,516.1,68a8.54,8.54,0,0,1,1.25,4.62Zm-7.28-34.57H469.45V61.22h40.62Z"/><path id="Path_189-4" data-name="Path 189-4" class="cls-1" d="M28.43,30l25.4-14.67L27.38,0,1.93,14.7Z"/><path id="Path_190-4" data-name="Path 190-4" class="cls-1" d="M0,17.65V47L26.46,62.29V32.87Z"/></g></g></g></svg>