<svg xmlns="http://www.w3.org/2000/svg" viewBox="0 0 275.38 88.75"><defs><style>.cls-1{fill:#fff;}.cls-2,.cls-3,.cls-4,.cls-6,.cls-7{fill:none;stroke:#949598;stroke-linecap:round;stroke-linejoin:round;stroke-width:0.25px;}.cls-3{stroke-dasharray:2.02 3.02;}.cls-4{stroke-dasharray:1.98 2.97;}.cls-5{opacity:0.08;}.cls-6{stroke-dasharray:2 3;}.cls-7{stroke-dasharray:1.97 2.95;}</style></defs><g id="Layer_2" data-name="Layer 2"><g id="Layer_1-2" data-name="Layer 1"><g id="Group_39" data-name="Group 39"><path id="Path_183-3" data-name="Path 183-3" class="cls-1" d="M54.34,61.54H51.22V43.61h3.12Zm21,0H68.6L57,55.63a3.82,3.82,0,0,1-1.38-1.27,3.48,3.48,0,0,1,0-3.7A3.82,3.82,0,0,1,57,49.39l11.34-5.78h6.82l-17.54,8.9Z"/><path id="Path_184-3" data-name="Path 184-3" class="cls-1" d="M108.83,61.54H90.05a4.62,4.62,0,0,1-1.9-.39,4.86,4.86,0,0,1-2.58-2.58,4.79,4.79,0,0,1-.39-1.9V48.48a4.79,4.79,0,0,1,.39-1.9A4.86,4.86,0,0,1,88.15,44a4.79,4.79,0,0,1,1.9-.39h18.78v3.12H88.3V51h20.53v3.12H88.3v4.29h20.53Z"/><path id="Path_185-3" data-name="Path 185-3" class="cls-1" d="M145.91,51.21a4.75,4.75,0,0,1-.39,1.9,4.85,4.85,0,0,1-2.59,2.58,4.43,4.43,0,0,1-1.9.39H125.37v5.46h-3.12V43.61H141a4.88,4.88,0,0,1,4.48,3,4.62,4.62,0,0,1,.39,1.9Zm-3.12-4.48H125.37V53h17.41Z"/><path id="Path_186-3" data-name="Path 186-3" class="cls-1" d="M177.14,61.54H163a4.62,4.62,0,0,1-1.9-.39,4.86,4.86,0,0,1-2.58-2.58,4.79,4.79,0,0,1-.39-1.9V43.61h3.12V58.42h15.85Z"/><path id="Path_187-3" data-name="Path 187-3" class="cls-1" d="M211.6,61.54H192.82a4.62,4.62,0,0,1-1.9-.39,4.86,4.86,0,0,1-2.58-2.58,4.79,4.79,0,0,1-.39-1.9V48.48a4.79,4.79,0,0,1,.39-1.9A4.86,4.86,0,0,1,190.92,44a4.79,4.79,0,0,1,1.9-.39H211.6v3.12H191.07V51H211.6v3.12H191.07v4.29H211.6Z"/><path id="Path_188-3" data-name="Path 188-3" class="cls-1" d="M248.32,61.54H245.2V56.08H227.79v5.46h-3.12V43.61h18.78a4.79,4.79,0,0,1,1.9.39,4.86,4.86,0,0,1,2.58,2.58,4.79,4.79,0,0,1,.39,1.9v2.73a3.54,3.54,0,0,1-.54,2,3.76,3.76,0,0,1-1.44,1.33,3.76,3.76,0,0,1,1.44,1.33,3.6,3.6,0,0,1,.54,2ZM245.2,46.73H227.79V53H245.2Z"/><path id="Path_189-3" data-name="Path 189-3" class="cls-1" d="M38.77,39.56l10.89-6.29L38.32,26.72,27.41,33Z"/><path id="Path_190-3" data-name="Path 190-3" class="cls-1" d="M26.58,34.29V46.87l11.34,6.55V40.81Z"/></g><polyline class="cls-2" points="248.37 60.78 248.37 61.78 247.37 61.78"/><line class="cls-3" x1="244.34" y1="61.78" x2="29.16" y2="61.78"/><polyline class="cls-2" points="27.65 61.78 26.65 61.78 26.65 60.78"/><line class="cls-4" x1="26.65" y1="57.81" x2="26.65" y2="29.6"/><polyline class="cls-2" points="26.65 28.12 26.65 27.12 27.65 27.12"/><line class="cls-3" x1="30.67" y1="27.12" x2="245.85" y2="27.12"/><polyline class="cls-2" points="247.37 27.12 248.37 27.12 248.37 28.12"/><line class="cls-4" x1="248.37" y1="31.09" x2="248.37" y2="59.3"/><g class="cls-5"><g id="Path_189-3-2" data-name="Path 189-3"><polygon class="cls-1" points="39.05 13.23 49.94 6.95 38.6 0.4 27.7 6.7 39.05 13.23"/></g><g id="Path_190-3-2" data-name="Path 190-3"><polygon class="cls-1" points="26.87 7.96 26.87 20.55 38.21 27.09 38.21 14.49 26.87 7.96"/></g></g><g class="cls-5"><g id="Path_189-3-3" data-name="Path 189-3"><polygon class="cls-1" points="142.03 13.23 152.93 6.95 141.59 0.4 130.68 6.7 142.03 13.23"/></g><g id="Path_190-3-3" data-name="Path 190-3"><polygon class="cls-1" points="129.85 7.96 129.85 20.55 141.19 27.09 141.19 14.49 129.85 7.96"/></g></g><g class="cls-5"><g id="Path_189-3-4" data-name="Path 189-3"><polygon class="cls-1" points="237.83 13.23 248.72 6.95 237.38 0.4 226.47 6.7 237.83 13.23"/></g><g id="Path_190-3-4" data-name="Path 190-3"><polygon class="cls-1" points="225.64 7.96 225.64 20.55 236.98 27.09 236.98 14.49 225.64 7.96"/></g></g><g class="cls-5"><g id="Path_189-3-5" data-name="Path 189-3"><polygon class="cls-1" points="262.38 45.3 268.67 56.19 275.21 44.85 268.92 33.95 262.38 45.3"/></g><g id="Path_190-3-5" data-name="Path 190-3"><polygon class="cls-1" points="267.65 33.12 255.06 33.12 248.52 44.46 261.13 44.46 267.65 33.12"/></g></g><g class="cls-5"><g id="Path_189-3-6" data-name="Path 189-3"><polygon class="cls-1" points="236.07 75.77 225.18 82.06 236.52 88.6 247.43 82.31 236.07 75.77"/></g><g id="Path_190-3-6" data-name="Path 190-3"><polygon class="cls-1" points="248.26 81.04 248.26 68.45 236.92 61.91 236.92 74.52 248.26 81.04"/></g></g><g class="cls-5"><g id="Path_189-3-7" data-name="Path 189-3"><polygon class="cls-1" points="138.32 75.77 127.44 82.06 138.78 88.6 149.68 82.31 138.32 75.77"/></g><g id="Path_190-3-7" data-name="Path 190-3"><polygon class="cls-1" points="150.51 81.04 150.51 68.45 139.17 61.91 139.17 74.52 150.51 81.04"/></g></g><g class="cls-5"><g id="Path_189-3-8" data-name="Path 189-3"><polygon class="cls-1" points="37.52 75.77 26.63 82.06 37.97 88.6 48.88 82.31 37.52 75.77"/></g><g id="Path_190-3-8" data-name="Path 190-3"><polygon class="cls-1" points="49.7 81.04 49.7 68.45 38.36 61.91 38.36 74.52 49.7 81.04"/></g></g><g class="cls-5"><g id="Path_189-3-9" data-name="Path 189-3"><polygon class="cls-1" points="12.94 44.01 6.66 33.12 0.11 44.46 6.41 55.37 12.94 44.01"/></g><g id="Path_190-3-9" data-name="Path 190-3"><polygon class="cls-1" points="7.67 56.19 20.26 56.19 26.8 44.85 14.2 44.85 7.67 56.19"/></g></g><polyline class="cls-2" points="275.25 87.63 275.25 88.63 274.25 88.63"/><line class="cls-6" x1="271.25" y1="88.63" x2="2.63" y2="88.63"/><polyline class="cls-2" points="1.13 88.63 0.13 88.63 0.13 87.63"/><line class="cls-7" x1="0.13" y1="84.68" x2="0.13" y2="2.6"/><polyline class="cls-2" points="0.13 1.13 0.13 0.13 1.13 0.13"/><line class="cls-6" x1="4.13" y1="0.13" x2="272.75" y2="0.13"/><polyline class="cls-2" points="274.25 0.13 275.25 0.13 275.25 1.13"/><line class="cls-7" x1="275.25" y1="4.07" x2="275.25" y2="86.15"/></g></g></svg>