<?xml version="1.0" standalone="no"?>
<!DOCTYPE svg PUBLIC "-//W3C//DTD SVG 1.1//EN" "http://www.w3.org/Graphics/SVG/1.1/DTD/svg11.dtd" >
<svg xmlns="http://www.w3.org/2000/svg" xmlns:xlink="http://www.w3.org/1999/xlink" version="1.1">
<metadata>
Created by FontForge 20170924 at Thu Jun 18 17:40:16 2015
 By www-data
http://typodermicfonts.com/pages/license
</metadata>
<defs>
<font id="BuiltTitlingEl-Regular" horiz-adv-x="215" >
  <font-face 
    font-family="Built Titling El"
    font-weight="250"
    font-stretch="normal"
    units-per-em="1000"
    panose-1="2 11 2 6 3 2 2 8 2 4"
    ascent="762"
    descent="-238"
    x-height="757"
    cap-height="757"
    bbox="-72 -238 773 962"
    underline-thickness="20"
    underline-position="-143"
    stemh="20"
    stemv="20"
    unicode-range="U+0017-25CA"
  />
<missing-glyph horiz-adv-x="805" 
d="M403 -169c-342 0 -371 18 -371 548c0 531 29 548 371 548c343 0 370 -17 370 -548c0 -530 -27 -548 -370 -548zM272 247l129 -35c25 91 30 100 47 110c25 14 51 18 80 37c40 27 55 58 82 161c9 37 15 69 15 95c0 72 -41 111 -146 139c-35 9 -64 14 -89 14
c-70 0 -108 -38 -132 -130c-10 -39 -13 -59 -13 -80l127 -33c5 55 24 83 46 83c38 0 55 -18 55 -39c0 -10 -3 -20 -6 -36c-15 -62 -21 -64 -72 -86c-59 -26 -85 -48 -99 -100c-11 -41 -21 -78 -24 -100zM353 -11l39 147l-151 40l-39 -146z" />
    <glyph glyph-name="copyright" unicode="&#x28;C&#x29;" horiz-adv-x="286" 
d="M239 49c-15 -47 -41 -62 -96 -62s-81 15 -96 62c-15 46 -21 92 -21 330s6 282 21 329c15 46 41 62 96 62s81 -16 96 -62c15 -47 21 -91 21 -329s-6 -284 -21 -330zM220 55c14 44 20 89 20 324s-6 278 -20 323c-12 36 -33 48 -77 48s-65 -12 -77 -48
c-14 -45 -20 -88 -20 -323s6 -280 20 -324c11 -36 32 -48 77 -48s66 12 77 48zM172 332h20c1 -13 1 -29 1 -43c0 -52 -2 -88 -10 -110c-8 -20 -19 -31 -39 -31c-25 0 -37 11 -44 39c-6 26 -9 59 -9 196c0 136 3 162 9 189c7 28 19 38 43 38c22 0 35 -11 42 -34
c6 -21 7 -53 7 -99c0 -19 0 -30 -1 -43h-19c1 13 1 24 1 43c0 44 -1 74 -7 93c-4 14 -12 20 -23 20c-13 0 -20 -5 -24 -23c-6 -25 -8 -50 -8 -184c0 -135 3 -168 8 -191c4 -18 11 -24 25 -24c10 0 16 7 21 20c7 20 8 53 8 101c0 14 0 29 -1 43z" />
    <glyph glyph-name="registered" unicode="&#x28;R&#x29;" horiz-adv-x="286" 
d="M239 49c-15 -47 -41 -62 -96 -62s-81 15 -96 62c-15 46 -21 92 -21 330s6 282 21 329c15 46 41 62 96 62s81 -16 96 -62c15 -47 21 -91 21 -329s-6 -284 -21 -330zM220 55c14 44 20 89 20 324s-6 278 -20 323c-12 36 -33 48 -77 48s-65 -12 -77 -48
c-14 -45 -20 -88 -20 -323s6 -280 20 -324c11 -36 32 -48 77 -48s66 12 77 48zM198 156h-19c-2 13 -4 50 -6 100c-2 46 -5 73 -7 86c-2 8 -9 14 -22 14h-30v-200h-20v446h57c20 0 29 -11 35 -28c6 -22 9 -53 9 -94c0 -44 -2 -70 -6 -85c-2 -9 -5 -19 -14 -26v-4
c5 -4 8 -10 10 -19c3 -13 4 -43 7 -89c3 -51 4 -88 6 -101zM114 376h29c15 0 26 6 28 24c2 14 4 37 4 80c0 44 -2 73 -8 88c-4 10 -9 14 -16 14h-37v-206z" />
    <glyph glyph-name="uni2117" unicode="&#x28;P&#x29;" horiz-adv-x="286" 
d="M239 49c-15 -47 -41 -62 -96 -62s-81 15 -96 62c-15 46 -21 92 -21 330s6 282 21 329c15 46 41 62 96 62s81 -16 96 -62c15 -47 21 -91 21 -329s-6 -284 -21 -330zM220 55c14 44 20 89 20 324s-6 278 -20 323c-12 36 -33 48 -77 48s-65 -12 -77 -48
c-14 -45 -20 -88 -20 -323s6 -280 20 -324c11 -36 32 -48 77 -48s66 12 77 48zM117 156h-20v446h54c20 0 30 -10 37 -32s9 -52 9 -112c0 -51 -2 -85 -7 -109c-6 -29 -18 -41 -40 -41h-33v-152zM117 327h33c12 0 16 8 20 27c5 23 7 57 7 104c0 58 -2 86 -8 106
c-3 13 -8 19 -18 19h-34v-256z" />
    <glyph glyph-name=".notdef" horiz-adv-x="805" 
d="M403 -169c-342 0 -371 18 -371 548c0 531 29 548 371 548c343 0 370 -17 370 -548c0 -530 -27 -548 -370 -548zM272 247l129 -35c25 91 30 100 47 110c25 14 51 18 80 37c40 27 55 58 82 161c9 37 15 69 15 95c0 72 -41 111 -146 139c-35 9 -64 14 -89 14
c-70 0 -108 -38 -132 -130c-10 -39 -13 -59 -13 -80l127 -33c5 55 24 83 46 83c38 0 55 -18 55 -39c0 -10 -3 -20 -6 -36c-15 -62 -21 -64 -72 -86c-59 -26 -85 -48 -99 -100c-11 -41 -21 -78 -24 -100zM353 -11l39 147l-151 40l-39 -146z" />
    <glyph glyph-name="uni0017" horiz-adv-x="99" 
 />
    <glyph glyph-name="space" unicode=" " horiz-adv-x="99" 
 />
    <glyph glyph-name="exclam" unicode="!" horiz-adv-x="92" 
d="M53 227h-13l-8 561h28zM56 0h-20v151h20v-151z" />
    <glyph glyph-name="quotedbl" unicode="&#x22;" horiz-adv-x="176" 
d="M51 545h-16l-6 243h28zM140 545h-16l-6 243h28z" />
    <glyph glyph-name="numbersign" unicode="#" 
d="M153 0h-20v243h-51v-243h-20v243h-39v20h39v233h-39v20h39v241h20v-241h51v241h20v-241h39v-20h-39v-233h39v-20h-39v-243zM133 263v233h-51v-233h51z" />
    <glyph glyph-name="dollar" unicode="$" 
d="M114 -43h-20v124c-25 2 -39 13 -48 39c-8 22 -10 42 -10 99c0 39 0 59 1 70h20c-1 -11 -1 -31 -1 -70c0 -52 2 -75 9 -92c8 -18 18 -26 38 -26c21 0 33 6 41 24c10 22 15 55 15 115c0 71 -6 99 -19 114c-20 21 -44 34 -69 55c-8 6 -16 15 -24 29c-8 15 -12 41 -12 125
c0 60 5 85 14 100c10 18 24 28 45 30v108h20v-107c24 -1 36 -9 48 -31c10 -17 13 -35 13 -85c0 -43 0 -61 -1 -77h-20c1 16 1 34 1 77s-3 61 -11 76s-16 20 -38 20c-21 0 -31 -5 -39 -20c-7 -13 -12 -34 -12 -91c0 -79 4 -103 10 -114c6 -13 15 -21 24 -28
c18 -15 45 -29 67 -54c17 -20 23 -45 23 -127c0 -60 -6 -98 -18 -124c-10 -20 -24 -32 -47 -35v-124z" />
    <glyph glyph-name="percent" unicode="%" horiz-adv-x="280" 
d="M105 366c-7 -22 -20 -25 -40 -25s-33 3 -40 25c-9 26 -10 80 -10 192s2 167 11 193c7 22 19 24 39 24s32 -2 39 -24c9 -26 11 -81 11 -193s-1 -166 -10 -192zM86 372c8 23 9 76 9 186c0 109 -2 162 -10 186c-3 10 -9 11 -20 11s-17 -1 -20 -11c-8 -24 -10 -77 -10 -186
c0 -110 1 -163 9 -186c3 -10 10 -11 21 -11s17 1 21 11zM53 0h-19v4l192 753h20v-4zM255 8c-7 -22 -20 -25 -40 -25s-33 3 -40 25c-9 26 -10 80 -10 192s2 167 11 193c7 22 19 24 39 24s32 -2 39 -24c9 -26 11 -81 11 -193s-1 -166 -10 -192zM236 14c8 23 9 76 9 186
c0 109 -2 162 -10 186c-3 10 -9 11 -20 11s-17 -1 -20 -11c-8 -24 -10 -77 -10 -186c0 -110 1 -163 9 -186c3 -10 10 -11 21 -11s17 1 21 11z" />
    <glyph glyph-name="ampersand" unicode="&#x26;" horiz-adv-x="250" 
d="M233 0h-21l-33 117h-4l-7 -42c-11 -65 -29 -88 -69 -88c-52 0 -73 19 -73 223c0 109 8 144 65 207l-17 57c-19 62 -20 80 -20 144c0 135 10 152 70 152c48 0 63 -17 63 -161c0 -102 -4 -122 -43 -163l-32 -34l59 -205h4l36 177h20v-4l-45 -217l47 -159v-4zM148 79l17 82
l-68 235c-46 -54 -51 -81 -51 -186c0 -182 15 -203 53 -203c28 0 38 19 49 72zM107 433l23 26c35 39 37 55 37 150c0 126 -11 141 -43 141c-43 0 -50 -15 -50 -132c0 -61 2 -74 19 -138z" />
    <glyph glyph-name="quotesingle" unicode="'" horiz-adv-x="87" 
d="M51 545h-16l-6 243h28z" />
    <glyph glyph-name="parenleft" unicode="(" 
d="M187 -238h-21c-53 85 -99 232 -99 600c0 367 46 515 99 600h21v-4c-57 -92 -100 -245 -100 -596c0 -352 41 -505 100 -596v-4z" />
    <glyph glyph-name="parenright" unicode=")" 
d="M48 -238h-21v4c59 91 100 244 100 596c0 351 -43 504 -100 596v4h21c53 -85 99 -233 99 -600c0 -368 -46 -515 -99 -600z" />
    <glyph glyph-name="asterisk" unicode="*" horiz-adv-x="477" 
d="M412 435l-152 92l-3 -4l64 -165l-23 -9l-57 168h-6l-56 -167l-24 8l65 165l-4 4l-151 -92l-13 21l156 85l-1 6l-175 26l4 24l174 -35l3 5l-117 133l18 16l111 -138l5 1l-4 178h24l-5 -178l6 -1l111 138l19 -16l-117 -132l3 -6l174 35l4 -24l-175 -26l-2 -7l156 -84z" />
    <glyph glyph-name="plus" unicode="+" 
d="M117 294h-20v75h-74v20h74v74h20v-74h75v-20h-75v-75z" />
    <glyph glyph-name="comma" unicode="," horiz-adv-x="87" 
d="M41 -142h-9v4l10 145l-2 3h-8v91h23v-97z" />
    <glyph glyph-name="hyphen" unicode="-" horiz-adv-x="180" 
d="M155 372h-130v20h130v-20z" />
    <glyph glyph-name="period" unicode="." horiz-adv-x="84" 
d="M52 0h-20v101h20v-101z" />
    <glyph glyph-name="slash" unicode="/" 
d="M20 -153h-20l196 1001h20z" />
    <glyph glyph-name="zero" unicode="0" 
d="M174 30c-12 -40 -32 -43 -67 -43s-55 2 -66 43c-13 48 -15 148 -15 349s2 300 15 348c11 41 31 43 66 43s55 -3 67 -43c13 -47 15 -145 15 -348s-2 -302 -15 -349zM155 35c14 44 14 142 14 344s0 299 -14 343c-8 25 -15 28 -48 28c-32 0 -40 -4 -47 -28
c-13 -45 -14 -143 -14 -343s1 -299 14 -344c7 -24 15 -28 47 -28c33 0 40 3 48 28z" />
    <glyph glyph-name="one" unicode="1" 
d="M183 0h-150v20h66v597h-67v20h37c24 0 32 8 33 42l2 78h15v-737h64v-20z" />
    <glyph glyph-name="two" unicode="2" 
d="M189 0h-166v27l89 211c23 54 39 92 47 128c11 46 13 91 13 158c0 100 -6 143 -15 181c-8 34 -21 45 -47 45c-23 0 -37 -11 -46 -37c-11 -32 -13 -85 -13 -166c0 -34 0 -51 1 -76h-20c-1 25 -1 42 -1 76c0 83 3 141 15 176c11 33 31 47 64 47c38 0 57 -15 67 -60
c9 -38 15 -82 15 -186c0 -68 -2 -114 -14 -163c-9 -37 -24 -76 -48 -131l-88 -206l1 -4h146v-20z" />
    <glyph glyph-name="three" unicode="3" 
d="M45 262v-40c0 -147 8 -215 61 -215c55 0 63 49 63 197c0 74 -2 114 -6 137c-6 28 -24 40 -56 40h-43v20h43c30 0 38 2 47 19c4 8 7 16 9 36c2 24 2 58 2 106c0 164 -10 188 -59 188s-61 -56 -60 -205v-30h-19c-1 10 -1 21 -1 30c-1 164 15 225 80 225s79 -26 79 -208
c0 -49 -1 -83 -3 -106s-7 -45 -29 -62v-4c20 -6 27 -29 30 -49c4 -24 6 -63 6 -137c0 -163 -10 -217 -83 -217c-71 0 -81 74 -81 235c0 19 0 31 1 40h19z" />
    <glyph glyph-name="four" unicode="4" 
d="M166 0h-20v178h-124v26l113 553h31v-559h27v-20h-27v-178zM146 198v493h-4l-101 -489l1 -4h104z" />
    <glyph glyph-name="five" unicode="5" 
d="M27 290h20c0 -23 -1 -46 -1 -68c0 -91 2 -136 12 -172c9 -31 22 -43 44 -43c30 0 43 12 51 46c10 44 15 110 15 253c0 88 -7 143 -19 174c-6 15 -14 22 -37 22c-14 0 -25 -2 -32 -11c-11 -13 -17 -24 -22 -45l-24 5l10 306h140v-20h-121l-8 -202c-1 -22 -3 -44 -4 -55
l4 -1c3 11 5 19 10 25c12 14 27 18 47 18c33 0 46 -11 56 -35c13 -33 20 -90 20 -181c0 -146 -5 -213 -15 -257c-11 -46 -29 -62 -71 -62c-32 0 -51 16 -63 58c-11 39 -13 85 -13 177c0 21 0 44 1 68z" />
    <glyph glyph-name="six" unicode="6" 
d="M184 549h-20c1 15 1 29 1 45c0 80 -2 115 -12 135c-9 17 -17 21 -45 21s-37 -3 -46 -24c-12 -28 -16 -88 -16 -219v-68h4c12 22 34 33 59 33c32 0 48 -9 59 -33c14 -31 21 -89 21 -186c0 -124 -5 -193 -21 -229c-12 -29 -31 -37 -60 -37c-30 0 -49 6 -61 39
c-17 46 -21 145 -21 353c0 215 2 312 18 356c11 30 31 35 64 35s54 -6 64 -30s13 -65 13 -146c0 -19 0 -30 -1 -45zM46 391v-12c0 -209 3 -302 18 -342c9 -25 18 -30 44 -30c24 0 34 6 43 28c14 32 18 96 18 218c0 95 -6 150 -19 178c-7 15 -18 21 -41 21
c-17 0 -30 -5 -40 -15c-9 -9 -16 -14 -23 -46z" />
    <glyph glyph-name="seven" unicode="7" 
d="M80 0h-20l107 733l-1 4h-140v20h162v-14z" />
    <glyph glyph-name="eight" unicode="8" 
d="M154 394v-4c20 -6 27 -29 30 -49c4 -24 6 -63 6 -137c0 -163 -10 -217 -83 -217s-83 54 -83 217c0 74 2 113 6 137c3 20 10 43 30 49v4c-22 17 -27 39 -29 62s-3 57 -3 106c0 182 14 208 79 208s79 -26 79 -208c0 -49 -1 -83 -3 -106s-7 -45 -29 -62zM107 7
c55 0 63 49 63 197c0 74 -2 114 -6 137c-6 28 -24 40 -57 40s-51 -12 -57 -40c-4 -23 -6 -63 -6 -137c0 -148 8 -197 63 -197zM155 420c4 8 7 16 9 36c2 24 2 58 2 106c0 164 -10 188 -59 188s-59 -24 -59 -188c0 -48 0 -82 2 -106c2 -20 5 -28 9 -36c9 -17 17 -19 48 -19
s39 2 48 19z" />
    <glyph glyph-name="nine" unicode="9" 
d="M89 0h-22v2c46 106 74 222 90 319l-4 1c-12 -16 -34 -32 -55 -32c-34 0 -48 9 -57 35c-11 35 -15 97 -15 204c0 119 4 181 20 212c12 23 30 29 61 29c29 0 47 -5 59 -24c19 -29 23 -92 23 -223c0 -99 -8 -187 -26 -273c-17 -83 -41 -166 -74 -250zM160 368
c6 47 9 102 9 155c0 125 -3 182 -19 208c-9 14 -19 19 -43 19c-25 0 -34 -4 -43 -19c-15 -25 -18 -82 -18 -202c0 -104 3 -165 13 -197c5 -15 16 -22 39 -22c14 0 32 11 42 23s16 23 20 35z" />
    <glyph glyph-name="colon" unicode=":" horiz-adv-x="96" 
d="M58 409h-20v101h20v-101zM58 0h-20v101h20v-101z" />
    <glyph glyph-name="semicolon" unicode=";" horiz-adv-x="99" 
d="M47 -142h-9v4l10 145l-2 3h-8v91h23v-97zM58 409h-20v101h20v-101z" />
    <glyph glyph-name="less" unicode="&#x3c;" 
d="M192 187h-4l-165 184v17l165 184h4v-25l-150 -166v-4l150 -165v-25z" />
    <glyph glyph-name="equal" unicode="=" 
d="M192 469h-169v20h169v-20zM192 269h-169v20h169v-20z" />
    <glyph glyph-name="greater" unicode="&#x3e;" 
d="M27 187h-4v25l150 165v4l-150 166v25h4l165 -184v-17z" />
    <glyph glyph-name="question" unicode="?" horiz-adv-x="201" 
d="M105 227h-20c-1 10 -1 19 -1 52c0 42 1 56 12 84c9 24 23 43 39 82c15 37 20 70 20 134c0 127 -11 171 -55 171c-39 0 -53 -34 -53 -147c0 -52 0 -62 2 -81h-20c-2 19 -2 28 -2 81c0 128 19 167 73 167c60 0 75 -49 75 -191c0 -66 -7 -104 -22 -143s-30 -57 -39 -82
c-9 -24 -10 -35 -10 -75c0 -33 0 -42 1 -52zM105 0h-20v151h20v-151z" />
    <glyph glyph-name="at" unicode="@" horiz-adv-x="305" 
d="M259 -13h20c1 -6 1 -13 1 -39c0 -78 -20 -159 -124 -159c-58 0 -93 16 -111 80c-10 37 -15 110 -15 374c0 290 7 341 21 375c19 47 53 63 104 63c43 0 73 -12 93 -45c18 -30 26 -80 26 -329c0 -189 -2 -210 -10 -239c-6 -26 -18 -34 -39 -34c-16 0 -26 7 -34 19h-4
c-6 -11 -17 -19 -31 -19c-18 0 -28 9 -35 34c-8 29 -10 58 -10 151c0 156 3 199 13 229c6 18 16 23 29 23c12 0 19 -11 22 -24h4v14h20v-389c4 -13 14 -18 26 -18c11 0 17 4 20 18c7 27 9 47 9 235c0 233 -8 292 -23 319c-14 25 -41 35 -76 35c-42 0 -70 -13 -86 -51
c-13 -31 -19 -80 -19 -367c0 -259 5 -334 14 -369c14 -49 44 -65 92 -65c87 0 104 72 104 139c0 26 0 33 -1 39zM179 70v305c-3 47 -13 76 -26 76c-4 0 -8 -3 -10 -9c-9 -28 -12 -71 -12 -223c0 -90 2 -119 9 -146c4 -12 9 -19 16 -19c13 0 18 6 23 16z" />
    <glyph glyph-name="A" unicode="A" horiz-adv-x="210" 
d="M189 0h-20l-20 238h-87l-21 -238h-20l69 757h36zM148 258l-32 387c-2 33 -5 61 -6 91h-4c-1 -30 -4 -58 -7 -91l-35 -387h84z" />
    <glyph glyph-name="B" unicode="B" horiz-adv-x="219" 
d="M127 0h-95v757h90c27 0 41 -8 51 -32c13 -30 19 -70 19 -172c0 -101 -4 -115 -12 -136c-3 -9 -12 -18 -20 -23v-4c9 -2 17 -11 21 -18c9 -17 15 -32 15 -168c0 -108 -5 -139 -20 -171c-11 -23 -26 -33 -49 -33zM52 20h75c17 0 24 5 33 25c12 28 16 47 16 159
c0 135 -2 141 -13 158c-10 15 -18 19 -49 19h-62v-361zM52 401h62c30 0 38 2 47 19s11 31 11 133c0 100 -4 137 -16 163c-7 15 -17 21 -34 21h-70v-336z" />
    <glyph glyph-name="C" unicode="C" horiz-adv-x="216" 
d="M167 290h20c1 -22 1 -43 1 -68c0 -87 -3 -149 -17 -187c-12 -32 -30 -48 -61 -48c-40 0 -58 16 -69 62c-10 44 -15 102 -15 336s4 279 15 325c10 45 29 60 67 60c35 0 55 -17 66 -54c11 -36 13 -90 13 -169c0 -32 0 -45 -1 -67h-20c1 22 1 35 1 67c0 78 -2 130 -12 162
c-9 29 -23 41 -47 41c-27 0 -40 -11 -48 -45c-10 -43 -14 -87 -14 -320c0 -234 5 -291 14 -332c8 -34 21 -46 50 -46c22 0 35 13 44 39c11 35 14 93 14 176c0 27 0 45 -1 68z" />
    <glyph glyph-name="D" unicode="D" horiz-adv-x="224" 
d="M116 0h-84v757h84c38 0 54 -14 67 -60c13 -45 15 -89 15 -318c0 -244 -4 -277 -14 -321c-11 -45 -26 -58 -68 -58zM52 20h64c30 0 40 9 48 42c10 44 14 77 14 317c0 227 -2 270 -14 312c-10 35 -21 46 -48 46h-64v-717z" />
    <glyph glyph-name="E" unicode="E" horiz-adv-x="191" 
d="M165 0h-133v757h134v-20h-114v-342h112v-20h-112v-355h113v-20z" />
    <glyph glyph-name="F" unicode="F" horiz-adv-x="179" 
d="M52 0h-20v757h132v-20h-112v-342h110v-20h-110v-375z" />
    <glyph glyph-name="G" unicode="G" horiz-adv-x="214" 
d="M156 54l-1 -1c9 40 14 81 14 243c0 48 0 68 -1 79h-80v20h99c2 -24 2 -51 2 -99c0 -166 -5 -207 -14 -247c-11 -47 -29 -62 -67 -62c-39 0 -57 15 -67 62c-11 46 -15 92 -15 336c0 234 4 279 13 315c12 55 31 70 69 70c44 0 65 -26 70 -70c7 -53 9 -90 9 -135
c0 -21 0 -30 -1 -39h-20c1 6 1 13 1 39c0 43 -2 79 -9 132c-4 33 -19 53 -50 53c-27 0 -41 -12 -50 -55c-8 -33 -12 -77 -12 -310c0 -244 4 -289 14 -332c8 -35 21 -46 48 -46s40 11 48 47z" />
    <glyph glyph-name="H" unicode="H" horiz-adv-x="230" 
d="M199 0h-20v375h-128v-375h-20v757h20v-362h128v362h20v-757z" />
    <glyph glyph-name="I" unicode="I" horiz-adv-x="86" 
d="M53 0h-20v757h20v-757z" />
    <glyph glyph-name="J" unicode="J" horiz-adv-x="210" 
d="M162 390v367h20v-367c0 -230 -4 -298 -14 -341c-10 -46 -29 -62 -69 -62c-68 0 -78 74 -78 235c0 48 1 56 2 68h20c-1 -12 -2 -20 -2 -68c0 -147 7 -215 58 -215c28 0 42 12 49 46c10 43 14 110 14 337z" />
    <glyph glyph-name="K" unicode="K" horiz-adv-x="225" 
d="M209 0h-19l-119 360c-8 23 -12 37 -16 51h-4c1 -16 1 -31 1 -54v-357h-20v757h20v-286c0 -20 -1 -37 -1 -52h4c5 14 11 31 18 48l113 290h20v-4l-134 -339l137 -410v-4z" />
    <glyph glyph-name="L" unicode="L" horiz-adv-x="171" 
d="M159 0h-127v757h20v-737h107v-20z" />
    <glyph glyph-name="M" unicode="M" horiz-adv-x="301" 
d="M270 0h-20v654c0 33 0 54 1 78h-4c-2 -24 -5 -45 -10 -78l-79 -654h-15l-79 654c-4 33 -8 54 -10 78h-4c1 -24 1 -45 1 -78v-654h-20v757h42l67 -583c4 -31 7 -61 8 -84h4c1 23 4 53 8 84l70 583h40v-757z" />
    <glyph glyph-name="N" unicode="N" horiz-adv-x="226" 
d="M195 0h-16l-124 723h-4v-723h-20v757h39l88 -520c6 -34 11 -69 15 -102h4c-2 33 -2 75 -2 112v510h20v-757z" />
    <glyph glyph-name="O" unicode="O" 
d="M41 49c-11 46 -15 92 -15 330s4 282 15 329c10 46 28 62 67 62c38 0 56 -16 67 -62c10 -47 14 -91 14 -329s-4 -284 -14 -330c-11 -47 -29 -62 -67 -62c-39 0 -57 15 -67 62zM155 53c10 46 14 92 14 326s-3 278 -13 324c-7 35 -21 47 -48 47s-39 -12 -47 -46
c-10 -45 -15 -88 -15 -325c0 -238 4 -283 14 -326c8 -35 21 -46 48 -46s40 11 47 46z" />
    <glyph glyph-name="P" unicode="P" 
d="M52 0h-20v757h87c31 0 46 -15 57 -51c11 -38 15 -88 15 -192c0 -85 -3 -145 -12 -185c-10 -47 -27 -67 -62 -67h-65v-262zM52 282h65c23 0 34 15 42 51c9 40 12 99 12 181c0 103 -4 151 -14 186c-8 26 -18 37 -38 37h-67v-455z" />
    <glyph glyph-name="Q" unicode="Q" 
d="M176 -91h-21c-8 14 -18 43 -31 92c-5 -1 -11 -1 -16 -1c-39 0 -56 15 -67 61c-10 45 -15 90 -15 325c0 234 4 277 15 323c10 45 28 61 67 61c38 0 57 -16 67 -61c11 -46 14 -89 14 -323c0 -235 -4 -280 -14 -325c-7 -29 -17 -46 -32 -54c15 -57 25 -80 33 -94v-4zM108 20
h11c-7 27 -15 59 -24 98v4h20c8 -37 15 -68 22 -94c9 7 14 19 18 37c10 45 14 90 14 321c0 230 -3 273 -13 318c-7 34 -21 46 -48 46s-40 -12 -48 -46c-10 -43 -14 -85 -14 -318c0 -235 4 -279 14 -321c8 -34 21 -45 48 -45z" />
    <glyph glyph-name="R" unicode="R" horiz-adv-x="220" 
d="M198 0h-20c-3 28 -4 41 -10 166c-4 85 -8 129 -12 151c-3 19 -15 29 -45 29h-59v-346h-20v757h91c25 0 41 -11 52 -37c13 -32 17 -86 17 -167c0 -127 -10 -160 -24 -180c-6 -9 -13 -12 -18 -15v-4c11 -3 22 -14 26 -35s8 -64 12 -152c6 -124 7 -139 10 -163v-4zM52 366
h58c23 0 34 4 44 19c13 19 18 45 18 168c0 78 -3 128 -14 156c-8 19 -19 28 -35 28h-71v-371z" />
    <glyph glyph-name="S" unicode="S" horiz-adv-x="203" 
d="M28 253h20c-2 -19 -3 -47 -3 -91c0 -57 3 -91 11 -117c9 -26 20 -38 41 -38c23 0 36 10 45 35c11 28 15 68 15 148c0 103 -4 130 -21 153c-16 24 -45 41 -68 64c-12 12 -23 24 -31 42c-11 25 -13 47 -13 159c0 64 4 101 16 126s29 36 58 36s46 -11 59 -34
c13 -24 18 -56 18 -122c0 -45 -2 -76 -4 -92h-20c2 16 4 47 4 92c0 60 -5 91 -16 112c-8 15 -21 24 -41 24c-21 0 -32 -7 -40 -24c-10 -23 -14 -56 -14 -118c0 -111 2 -130 11 -151c6 -13 18 -27 27 -36c23 -23 51 -41 70 -66c20 -28 25 -53 25 -165c0 -81 -4 -124 -17 -156
c-13 -31 -32 -47 -63 -47c-33 0 -50 15 -61 52c-8 26 -11 61 -11 123c0 45 1 71 3 91z" />
    <glyph glyph-name="T" unicode="T" horiz-adv-x="180" 
d="M101 0h-20v737h-70v20h158v-20h-68v-737z" />
    <glyph glyph-name="U" unicode="U" horiz-adv-x="220" 
d="M171 188v569h20v-569c0 -102 -4 -128 -14 -156c-12 -34 -32 -45 -67 -45s-55 11 -67 45c-10 28 -15 54 -15 156v569h20v-569c0 -98 5 -123 14 -149c8 -24 23 -32 48 -32s40 8 48 32c9 26 13 50 13 149z" />
    <glyph glyph-name="V" unicode="V" horiz-adv-x="214" 
d="M124 0h-36l-67 757h20l54 -619c4 -44 7 -84 9 -114h4c2 30 5 70 9 114l56 619h20z" />
    <glyph glyph-name="W" unicode="W" horiz-adv-x="322" 
d="M246 0h-36l-44 577c-2 27 -3 47 -3 61h-4c0 -14 -1 -34 -3 -61l-44 -577h-36l-54 757h20l46 -676c2 -25 4 -40 4 -57h4c0 17 2 32 4 57l52 676h18l52 -676c2 -26 4 -40 4 -57h4c0 17 2 32 4 57l46 676h20z" />
    <glyph glyph-name="X" unicode="X" horiz-adv-x="218" 
d="M198 0h-20l-55 285c-7 35 -10 52 -13 73h-4c-3 -21 -7 -38 -13 -73l-54 -285h-20v4l79 388l-71 361v4h20l46 -251c6 -33 11 -59 13 -78h4c2 19 7 45 14 78l48 251h20v-4l-73 -357l79 -392v-4z" />
    <glyph glyph-name="Y" unicode="Y" horiz-adv-x="203" 
d="M111 0h-20v385l-77 368v4h20l55 -274c4 -22 8 -43 10 -59h4c2 16 6 37 10 59l56 274h20v-4l-78 -368v-385z" />
    <glyph glyph-name="Z" unicode="Z" horiz-adv-x="216" 
d="M193 0h-170v24l152 710l-2 3h-147v20h170v-12l-153 -722l1 -3h149v-20z" />
    <glyph glyph-name="bracketleft" unicode="[" 
d="M181 -238h-108v1200h108v-20h-88v-1160h88v-20z" />
    <glyph glyph-name="backslash" unicode="\" 
d="M216 -153h-20l-196 1001h20z" />
    <glyph glyph-name="bracketright" unicode="]" 
d="M141 -238h-108v20h88v1160h-88v20h108v-1200z" />
    <glyph glyph-name="asciicircum" unicode="^" 
d="M192 334h-20l-62 379h-4l-63 -379h-20v4l70 419h29l70 -419v-4z" />
    <glyph glyph-name="underscore" unicode="_" 
d="M198 -86h-181v20h181v-20z" />
    <glyph glyph-name="grave" unicode="`" horiz-adv-x="156" 
d="M113 592h-16l-76 169v4h21l71 -169v-4z" />
    <glyph glyph-name="a" unicode="a" horiz-adv-x="210" 
d="M189 0h-20l-20 238h-87l-21 -238h-20l69 757h36zM148 258l-32 387c-2 33 -5 61 -6 91h-4c-1 -30 -4 -58 -7 -91l-35 -387h84z" />
    <glyph glyph-name="b" unicode="b" horiz-adv-x="219" 
d="M127 0h-95v757h90c27 0 41 -8 51 -32c13 -30 19 -70 19 -172c0 -101 -4 -115 -12 -136c-3 -9 -12 -18 -20 -23v-4c9 -2 17 -11 21 -18c9 -17 15 -32 15 -168c0 -108 -5 -139 -20 -171c-11 -23 -26 -33 -49 -33zM52 20h75c17 0 24 5 33 25c12 28 16 47 16 159
c0 135 -2 141 -13 158c-10 15 -18 19 -49 19h-62v-361zM52 401h62c30 0 38 2 47 19s11 31 11 133c0 100 -4 137 -16 163c-7 15 -17 21 -34 21h-70v-336z" />
    <glyph glyph-name="c" unicode="c" horiz-adv-x="216" 
d="M167 290h20c1 -22 1 -43 1 -68c0 -87 -3 -149 -17 -187c-12 -32 -30 -48 -61 -48c-40 0 -58 16 -69 62c-10 44 -15 102 -15 336s4 279 15 325c10 45 29 60 67 60c35 0 55 -17 66 -54c11 -36 13 -90 13 -169c0 -32 0 -45 -1 -67h-20c1 22 1 35 1 67c0 78 -2 130 -12 162
c-9 29 -23 41 -47 41c-27 0 -40 -11 -48 -45c-10 -43 -14 -87 -14 -320c0 -234 5 -291 14 -332c8 -34 21 -46 50 -46c22 0 35 13 44 39c11 35 14 93 14 176c0 27 0 45 -1 68z" />
    <glyph glyph-name="d" unicode="d" horiz-adv-x="224" 
d="M116 0h-84v757h84c38 0 54 -14 67 -60c13 -45 15 -89 15 -318c0 -244 -4 -277 -14 -321c-11 -45 -26 -58 -68 -58zM52 20h64c30 0 40 9 48 42c10 44 14 77 14 317c0 227 -2 270 -14 312c-10 35 -21 46 -48 46h-64v-717z" />
    <glyph glyph-name="e" unicode="e" horiz-adv-x="191" 
d="M165 0h-133v757h134v-20h-114v-342h112v-20h-112v-355h113v-20z" />
    <glyph glyph-name="f" unicode="f" horiz-adv-x="179" 
d="M52 0h-20v757h132v-20h-112v-342h110v-20h-110v-375z" />
    <glyph glyph-name="g" unicode="g" horiz-adv-x="214" 
d="M156 54l-1 -1c9 40 14 81 14 243c0 48 0 68 -1 79h-80v20h99c2 -24 2 -51 2 -99c0 -166 -5 -207 -14 -247c-11 -47 -29 -62 -67 -62c-39 0 -57 15 -67 62c-11 46 -15 92 -15 336c0 234 4 279 13 315c12 55 31 70 69 70c44 0 65 -26 70 -70c7 -53 9 -90 9 -135
c0 -21 0 -30 -1 -39h-20c1 6 1 13 1 39c0 43 -2 79 -9 132c-4 33 -19 53 -50 53c-27 0 -41 -12 -50 -55c-8 -33 -12 -77 -12 -310c0 -244 4 -289 14 -332c8 -35 21 -46 48 -46s40 11 48 47z" />
    <glyph glyph-name="h" unicode="h" horiz-adv-x="230" 
d="M199 0h-20v375h-128v-375h-20v757h20v-362h128v362h20v-757z" />
    <glyph glyph-name="i" unicode="i" horiz-adv-x="86" 
d="M53 0h-20v757h20v-757z" />
    <glyph glyph-name="j" unicode="j" horiz-adv-x="210" 
d="M162 390v367h20v-367c0 -230 -4 -298 -14 -341c-10 -46 -29 -62 -69 -62c-68 0 -78 74 -78 235c0 48 1 56 2 68h20c-1 -12 -2 -20 -2 -68c0 -147 7 -215 58 -215c28 0 42 12 49 46c10 43 14 110 14 337z" />
    <glyph glyph-name="k" unicode="k" horiz-adv-x="225" 
d="M209 0h-19l-119 360c-8 23 -12 37 -16 51h-4c1 -16 1 -31 1 -54v-357h-20v757h20v-286c0 -20 -1 -37 -1 -52h4c5 14 11 31 18 48l113 290h20v-4l-134 -339l137 -410v-4z" />
    <glyph glyph-name="l" unicode="l" horiz-adv-x="171" 
d="M159 0h-127v757h20v-737h107v-20z" />
    <glyph glyph-name="m" unicode="m" horiz-adv-x="301" 
d="M270 0h-20v654c0 33 0 54 1 78h-4c-2 -24 -5 -45 -10 -78l-79 -654h-15l-79 654c-4 33 -8 54 -10 78h-4c1 -24 1 -45 1 -78v-654h-20v757h42l67 -583c4 -31 7 -61 8 -84h4c1 23 4 53 8 84l70 583h40v-757z" />
    <glyph glyph-name="n" unicode="n" horiz-adv-x="226" 
d="M195 0h-16l-124 723h-4v-723h-20v757h39l88 -520c6 -34 11 -69 15 -102h4c-2 33 -2 75 -2 112v510h20v-757z" />
    <glyph glyph-name="o" unicode="o" 
d="M41 49c-11 46 -15 92 -15 330s4 282 15 329c10 46 28 62 67 62c38 0 56 -16 67 -62c10 -47 14 -91 14 -329s-4 -284 -14 -330c-11 -47 -29 -62 -67 -62c-39 0 -57 15 -67 62zM155 53c10 46 14 92 14 326s-3 278 -13 324c-7 35 -21 47 -48 47s-39 -12 -47 -46
c-10 -45 -15 -88 -15 -325c0 -238 4 -283 14 -326c8 -35 21 -46 48 -46s40 11 47 46z" />
    <glyph glyph-name="p" unicode="p" 
d="M52 0h-20v757h87c31 0 46 -15 57 -51c11 -38 15 -88 15 -192c0 -85 -3 -145 -12 -185c-10 -47 -27 -67 -62 -67h-65v-262zM52 282h65c23 0 34 15 42 51c9 40 12 99 12 181c0 103 -4 151 -14 186c-8 26 -18 37 -38 37h-67v-455z" />
    <glyph glyph-name="q" unicode="q" 
d="M176 -91h-21c-8 14 -18 43 -31 92c-5 -1 -11 -1 -16 -1c-39 0 -56 15 -67 61c-10 45 -15 90 -15 325c0 234 4 277 15 323c10 45 28 61 67 61c38 0 57 -16 67 -61c11 -46 14 -89 14 -323c0 -235 -4 -280 -14 -325c-7 -29 -17 -46 -32 -54c15 -57 25 -80 33 -94v-4zM108 20
h11c-7 27 -15 59 -24 98v4h20c8 -37 15 -68 22 -94c9 7 14 19 18 37c10 45 14 90 14 321c0 230 -3 273 -13 318c-7 34 -21 46 -48 46s-40 -12 -48 -46c-10 -43 -14 -85 -14 -318c0 -235 4 -279 14 -321c8 -34 21 -45 48 -45z" />
    <glyph glyph-name="r" unicode="r" horiz-adv-x="220" 
d="M198 0h-20c-3 28 -4 41 -10 166c-4 85 -8 129 -12 151c-3 19 -15 29 -45 29h-59v-346h-20v757h91c25 0 41 -11 52 -37c13 -32 17 -86 17 -167c0 -127 -10 -160 -24 -180c-6 -9 -13 -12 -18 -15v-4c11 -3 22 -14 26 -35s8 -64 12 -152c6 -124 7 -139 10 -163v-4zM52 366
h58c23 0 34 4 44 19c13 19 18 45 18 168c0 78 -3 128 -14 156c-8 19 -19 28 -35 28h-71v-371z" />
    <glyph glyph-name="s" unicode="s" horiz-adv-x="203" 
d="M28 253h20c-2 -19 -3 -47 -3 -91c0 -57 3 -91 11 -117c9 -26 20 -38 41 -38c23 0 36 10 45 35c11 28 15 68 15 148c0 103 -4 130 -21 153c-16 24 -45 41 -68 64c-12 12 -23 24 -31 42c-11 25 -13 47 -13 159c0 64 4 101 16 126s29 36 58 36s46 -11 59 -34
c13 -24 18 -56 18 -122c0 -45 -2 -76 -4 -92h-20c2 16 4 47 4 92c0 60 -5 91 -16 112c-8 15 -21 24 -41 24c-21 0 -32 -7 -40 -24c-10 -23 -14 -56 -14 -118c0 -111 2 -130 11 -151c6 -13 18 -27 27 -36c23 -23 51 -41 70 -66c20 -28 25 -53 25 -165c0 -81 -4 -124 -17 -156
c-13 -31 -32 -47 -63 -47c-33 0 -50 15 -61 52c-8 26 -11 61 -11 123c0 45 1 71 3 91z" />
    <glyph glyph-name="t" unicode="t" horiz-adv-x="180" 
d="M101 0h-20v737h-70v20h158v-20h-68v-737z" />
    <glyph glyph-name="u" unicode="u" horiz-adv-x="220" 
d="M171 188v569h20v-569c0 -102 -4 -128 -14 -156c-12 -34 -32 -45 -67 -45s-55 11 -67 45c-10 28 -15 54 -15 156v569h20v-569c0 -98 5 -123 14 -149c8 -24 23 -32 48 -32s40 8 48 32c9 26 13 50 13 149z" />
    <glyph glyph-name="v" unicode="v" horiz-adv-x="214" 
d="M124 0h-36l-67 757h20l54 -619c4 -44 7 -84 9 -114h4c2 30 5 70 9 114l56 619h20z" />
    <glyph glyph-name="w" unicode="w" horiz-adv-x="322" 
d="M246 0h-36l-44 577c-2 27 -3 47 -3 61h-4c0 -14 -1 -34 -3 -61l-44 -577h-36l-54 757h20l46 -676c2 -25 4 -40 4 -57h4c0 17 2 32 4 57l52 676h18l52 -676c2 -26 4 -40 4 -57h4c0 17 2 32 4 57l46 676h20z" />
    <glyph glyph-name="x" unicode="x" horiz-adv-x="218" 
d="M198 0h-20l-55 285c-7 35 -10 52 -13 73h-4c-3 -21 -7 -38 -13 -73l-54 -285h-20v4l79 388l-71 361v4h20l46 -251c6 -33 11 -59 13 -78h4c2 19 7 45 14 78l48 251h20v-4l-73 -357l79 -392v-4z" />
    <glyph glyph-name="y" unicode="y" horiz-adv-x="203" 
d="M111 0h-20v385l-77 368v4h20l55 -274c4 -22 8 -43 10 -59h4c2 16 6 37 10 59l56 274h20v-4l-78 -368v-385z" />
    <glyph glyph-name="z" unicode="z" horiz-adv-x="216" 
d="M193 0h-170v24l152 710l-2 3h-147v20h170v-12l-153 -722l1 -3h149v-20z" />
    <glyph glyph-name="braceleft" unicode="{" 
d="M184 -238h-27c-53 0 -74 42 -74 90c0 147 33 285 33 434c0 33 -10 66 -45 66h-20v20h20c35 0 45 32 45 66c0 149 -33 287 -33 434c0 48 21 90 74 90h27v-20h-27c-41 0 -54 -27 -54 -70c0 -147 33 -288 33 -434c0 -30 -10 -60 -32 -75v-3c22 -14 32 -45 32 -74
c0 -146 -33 -287 -33 -434c0 -43 13 -70 54 -70h27v-20z" />
    <glyph glyph-name="bar" unicode="|" 
d="M117 -238h-20v1200h20v-1200z" />
    <glyph glyph-name="braceright" unicode="}" 
d="M58 -238h-27v20h27c41 0 54 27 54 70c0 147 -33 288 -33 434c0 29 10 60 32 74v3c-22 15 -32 45 -32 75c0 146 33 287 33 434c0 43 -13 70 -54 70h-27v20h27c53 0 74 -42 74 -90c0 -147 -33 -285 -33 -434c0 -34 10 -66 45 -66h20v-20h-20c-35 0 -45 -33 -45 -66
c0 -149 33 -287 33 -434c0 -48 -21 -90 -74 -90z" />
    <glyph glyph-name="asciitilde" unicode="~" 
d="M192 401v-24c-7 -17 -22 -27 -39 -27c-21 0 -37 11 -51 26c-13 15 -23 21 -40 21c-10 0 -16 -2 -24 -11c-5 -6 -9 -12 -11 -20h-4v24c7 17 22 27 39 27c22 0 39 -13 54 -29c11 -13 21 -18 37 -18c10 0 16 2 24 11c5 6 9 12 11 20h4z" />
    <glyph glyph-name="nbspace" unicode="&#xa0;" horiz-adv-x="99" 
 />
    <glyph glyph-name="exclamdown" unicode="&#xa1;" horiz-adv-x="92" 
d="M60 -228h-28l7 561h13zM56 409h-20v151h20v-151z" />
    <glyph glyph-name="cent" unicode="&#xa2;" 
d="M123 -43h-20v124c-29 2 -44 14 -53 49c-9 34 -13 71 -13 259c0 185 4 222 13 257c9 33 24 46 53 48v107h20v-108c28 -2 42 -14 51 -47c10 -38 12 -85 12 -138c0 -13 0 -26 -1 -40h-20c1 14 1 26 1 40c0 50 -1 99 -11 134c-6 21 -19 32 -43 32s-37 -9 -43 -32
c-9 -33 -12 -71 -12 -253c0 -185 3 -223 12 -255c6 -22 20 -33 43 -33c25 0 36 8 43 33c9 39 11 91 11 136c0 17 0 32 -1 48h20c1 -16 1 -31 1 -48c0 -46 -2 -98 -12 -140c-9 -34 -23 -46 -51 -49v-124z" />
    <glyph glyph-name="sterling" unicode="&#xa3;" 
d="M194 25v-24c-8 -8 -18 -14 -38 -14c-26 0 -46 15 -55 35h-4c-12 -22 -29 -35 -47 -35c-8 0 -15 3 -19 8v22h4c3 -6 7 -10 15 -10c32 0 56 60 56 142c0 65 -6 103 -25 155h-56v20h48c-32 75 -45 119 -45 200c0 111 3 149 18 196c12 36 22 50 64 50c40 0 56 -14 66 -52
c12 -45 13 -83 13 -171c0 -41 0 -58 -1 -76h-20c1 18 1 35 1 76c0 83 -1 121 -13 165c-7 26 -19 38 -46 38s-36 -12 -44 -36c-15 -45 -18 -87 -18 -190c0 -83 9 -112 46 -200h85v-20h-77c19 -52 24 -88 24 -155c0 -40 -6 -75 -16 -103c5 -22 23 -39 46 -39c22 0 28 7 34 18
h4z" />
    <glyph glyph-name="currency" unicode="&#xa4;" horiz-adv-x="340" 
d="M308 255l-15 -14l-53 53c-19 -15 -44 -24 -70 -24c-27 0 -51 9 -70 25l-54 -54l-14 14l54 54c-16 19 -25 43 -25 70c0 26 9 51 25 70l-53 53l14 14l52 -53c19 16 44 26 71 26s51 -10 70 -26l53 53l14 -14l-53 -53c16 -19 26 -43 26 -70s-10 -52 -26 -71zM260 379
c0 50 -40 90 -90 90s-89 -40 -89 -90s39 -89 89 -89s90 39 90 89z" />
    <glyph glyph-name="yen" unicode="&#xa5;" 
d="M117 0h-20v168h-69v20h69v105h-69v20h69v72l-77 368v4h20l65 -324h4l66 324h20v-4l-78 -368v-72h68v-20h-68v-105h68v-20h-68v-168z" />
    <glyph glyph-name="brokenbar" unicode="&#xa6;" 
d="M117 -238h-20v487h20v-487zM117 479h-20v483h20v-483z" />
    <glyph glyph-name="section" unicode="&#xa7;" horiz-adv-x="233" 
d="M31 96h20c-2 -16 -3 -40 -3 -77c0 -49 3 -75 11 -97c9 -23 21 -33 43 -33c24 0 38 9 47 30c11 24 15 55 15 123c0 88 -6 110 -22 130c-29 34 -78 48 -102 91c-11 21 -13 41 -13 137c0 54 4 86 25 120c-3 19 -4 49 -4 112c0 54 4 86 16 107c13 22 30 31 60 31
s47 -9 60 -29c14 -21 19 -48 19 -104c0 -39 -2 -65 -4 -79h-21c2 14 4 40 4 79c0 51 -5 74 -16 92c-8 13 -22 21 -42 21c-22 0 -34 -6 -42 -21c-10 -19 -14 -44 -14 -97c0 -95 3 -110 12 -128c20 -39 70 -54 99 -88c21 -24 26 -46 26 -142c0 -64 1 -104 -25 -145
c3 -20 4 -47 4 -87c0 -69 -3 -106 -17 -133c-13 -26 -33 -40 -65 -40c-34 0 -51 13 -63 44c-8 23 -11 53 -11 106c0 38 1 60 3 77zM171 160h4c8 22 10 56 10 114c0 88 -6 110 -22 130c-29 34 -76 47 -100 93h-4c-8 -19 -12 -44 -12 -97c0 -95 3 -110 12 -128
c20 -39 70 -54 99 -88c6 -7 10 -15 13 -24z" />
    <glyph glyph-name="dieresis" unicode="&#xa8;" horiz-adv-x="174" 
d="M142 623h-20v102h20v-102zM52 623h-20v102h20v-102z" />
    <glyph glyph-name="ordfeminine" unicode="&#xaa;" horiz-adv-x="139" 
d="M126 407v-17c-3 -5 -8 -7 -13 -7c-8 0 -13 3 -17 9c-7 -5 -16 -9 -28 -9c-32 0 -45 6 -45 107c0 94 9 104 39 104c13 0 23 -4 28 -11l3 2v25c0 70 -7 80 -23 80c-18 0 -23 -11 -23 -67c0 -7 0 -12 1 -19h-20c-1 6 -1 11 -1 19c0 74 10 87 43 87c34 0 43 -9 43 -100v-203
c0 -3 1 -4 3 -4s4 1 6 4h4zM93 412v150c-5 8 -13 12 -24 12c-21 0 -26 -7 -26 -84c0 -76 8 -87 25 -87c12 0 22 5 25 9z" />
    <glyph glyph-name="guillemotleft" unicode="&#xab;" horiz-adv-x="204" 
d="M108 235h-4l-79 138v13l79 138h4v-33l-64 -110v-4l64 -109v-33zM178 235h-4l-79 138v13l79 138h4v-33l-64 -110v-4l64 -109v-33z" />
    <glyph glyph-name="logicalnot" unicode="&#xac;" 
d="M192 0h-20v418h-149v20h169v-438z" />
    <glyph glyph-name="macron" unicode="&#xaf;" horiz-adv-x="224" 
d="M192 670h-160v20h160v-20z" />
    <glyph glyph-name="degree" unicode="&#xb0;" horiz-adv-x="168" 
d="M131 472c-7 -21 -20 -27 -48 -27c-26 0 -39 6 -46 27c-7 20 -10 40 -10 145c0 104 2 123 10 144c7 19 20 27 46 27c28 0 41 -8 48 -27c7 -21 10 -40 10 -144c0 -105 -3 -125 -10 -145zM112 478c6 18 9 37 9 139c0 101 -2 119 -9 137c-4 10 -11 14 -29 14
c-16 0 -23 -4 -27 -14c-7 -19 -9 -37 -9 -137c0 -102 3 -121 9 -139c3 -10 11 -13 27 -13c18 0 26 3 29 13z" />
    <glyph glyph-name="plusminus" unicode="&#xb1;" 
d="M117 294h-20v75h-74v20h74v74h20v-74h75v-20h-75v-75zM192 89h-169v20h169v-20z" />
    <glyph glyph-name="twosuperior" unicode="&#xb2;" horiz-adv-x="148" 
d="M123 348h-101v23l51 113c23 52 33 85 33 152c0 98 -11 119 -31 119c-23 0 -29 -22 -29 -106c0 -19 0 -34 1 -47h-20c-1 13 -1 28 -1 47c0 95 7 126 49 126c37 0 50 -25 50 -139c0 -66 -3 -93 -34 -160l-50 -108h82v-20z" />
    <glyph glyph-name="threesuperior" unicode="&#xb3;" horiz-adv-x="148" 
d="M24 501h20c-1 -9 -1 -19 -1 -28c0 -85 6 -112 29 -112c26 0 31 27 31 103c0 82 -6 92 -30 92h-29v20h29c24 0 28 5 28 80c0 84 -7 99 -29 99c-21 0 -29 -21 -29 -107c0 -6 0 -13 1 -23h-20c-1 10 -1 17 -1 23c0 100 10 127 49 127c41 0 49 -16 49 -119
c0 -64 -3 -78 -15 -89c16 -16 17 -30 17 -103c0 -92 -7 -123 -51 -123c-43 0 -49 42 -49 132c0 9 0 19 1 28z" />
    <glyph glyph-name="acute" unicode="&#xb4;" horiz-adv-x="156" 
d="M59 592h-16v4l71 169h21v-4z" />
    <glyph glyph-name="paragraph" unicode="&#xb6;" horiz-adv-x="239" 
d="M207 -102h-20v839h-64v-839h-20v564h-26c-43 0 -55 39 -55 150c0 108 12 145 55 145h130v-859z" />
    <glyph glyph-name="periodcentered" unicode="&#xb7;" horiz-adv-x="84" 
d="M52 324h-20v101h20v-101z" />
    <glyph glyph-name="cedilla" unicode="&#xb8;" horiz-adv-x="141" 
d="M48 -238h-16v4l56 193h21v-4z" />
    <glyph glyph-name="onesuperior" unicode="&#xb9;" horiz-adv-x="148" 
d="M120 348h-93v20h36v314h-36v20h26c9 0 12 4 12 17l1 48h17v-399h37v-20z" />
    <glyph glyph-name="ordmasculine" unicode="&#xba;" horiz-adv-x="142" 
d="M110 413c-6 -23 -17 -30 -40 -30s-34 7 -40 30c-5 16 -7 36 -7 135c0 96 1 115 7 134c6 21 18 28 40 28s35 -7 40 -28c5 -19 6 -37 6 -134c0 -99 -2 -118 -6 -135zM91 418c3 14 5 32 5 130c0 96 -1 113 -5 129c-2 10 -9 13 -21 13s-18 -4 -21 -14c-5 -16 -6 -35 -6 -128
c0 -97 2 -116 6 -130c3 -11 9 -15 21 -15s18 4 21 15z" />
    <glyph glyph-name="guillemotright" unicode="&#xbb;" horiz-adv-x="204" 
d="M29 235h-4v33l64 109v4l-64 110v33h4l79 -138v-13zM99 235h-4v33l64 109v4l-64 110v33h4l79 -138v-13z" />
    <glyph glyph-name="onequarter" unicode="&#xbc;" horiz-adv-x="280" 
d="M106 348h-93v20h36v314h-36v20h26c9 0 12 4 12 17l1 48h17v-399h37v-20zM59 0h-19v4l192 753h20v-4zM249 -10h-20v96h-70v21l62 302h28v-303h14v-20h-14v-96zM229 106v233h-4l-47 -233h51z" />
    <glyph glyph-name="onehalf" unicode="&#xbd;" horiz-adv-x="280" 
d="M102 348h-93v20h36v314h-36v20h26c9 0 12 4 12 17l1 48h17v-399h37v-20zM47 0h-19v4l192 753h20v-4zM268 -10h-101v23l51 113c23 52 33 85 33 152c0 98 -11 119 -31 119c-23 0 -29 -22 -29 -106c0 -19 0 -34 1 -47h-20c-1 13 -1 28 -1 47c0 95 7 126 49 126
c37 0 50 -25 50 -139c0 -66 -3 -93 -34 -160l-50 -108h82v-20z" />
    <glyph glyph-name="threequarters" unicode="&#xbe;" horiz-adv-x="280" 
d="M20 501h20c-1 -9 -1 -19 -1 -28c0 -85 6 -112 29 -112c26 0 31 27 31 103c0 82 -6 92 -30 92h-29v20h29c24 0 28 5 28 80c0 84 -7 99 -29 99c-21 0 -29 -21 -29 -107c0 -6 0 -13 1 -23h-20c-1 10 -1 17 -1 23c0 100 10 127 49 127c41 0 49 -16 49 -119
c0 -64 -3 -78 -15 -89c16 -16 17 -30 17 -103c0 -92 -7 -123 -51 -123c-43 0 -49 42 -49 132c0 9 0 19 1 28zM63 0h-19v4l192 753h20v-4zM247 -10h-20v96h-70v21l62 302h28v-303h14v-20h-14v-96zM227 106v233h-4l-47 -233h51z" />
    <glyph glyph-name="questiondown" unicode="&#xbf;" horiz-adv-x="201" 
d="M152 38h20c2 -19 2 -28 2 -81c0 -128 -19 -167 -73 -167c-60 0 -75 49 -75 191c0 66 7 104 22 143s30 57 39 82c9 24 10 35 10 75c0 33 0 42 -1 52h20c1 -10 1 -19 1 -52c0 -42 -1 -56 -12 -84c-9 -24 -23 -43 -39 -82c-15 -37 -20 -70 -20 -134c0 -127 11 -171 55 -171
c39 0 53 34 53 147c0 52 0 62 -2 81zM116 409h-20v151h20v-151z" />
    <glyph glyph-name="Agrave" unicode="&#xc0;" horiz-adv-x="210" 
d="M189 0h-20l-20 238h-87l-21 -238h-20l69 757h36zM148 258l-32 387c-2 33 -5 61 -6 91h-4c-1 -30 -4 -58 -7 -91l-35 -387h84zM117 789h-16l-76 169v4h21l71 -169v-4z" />
    <glyph glyph-name="Aacute" unicode="&#xc1;" horiz-adv-x="210" 
d="M189 0h-20l-20 238h-87l-21 -238h-20l69 757h36zM148 258l-32 387c-2 33 -5 61 -6 91h-4c-1 -30 -4 -58 -7 -91l-35 -387h84zM113 789h-16v4l71 169h21v-4z" />
    <glyph glyph-name="Acircumflex" unicode="&#xc2;" horiz-adv-x="210" 
d="M189 0h-20l-20 238h-87l-21 -238h-20l69 757h36zM148 258l-32 387c-2 33 -5 61 -6 91h-4c-1 -30 -4 -58 -7 -91l-35 -387h84zM177 789h-20l-48 141h-4l-48 -141h-20v4l60 169h20l60 -169v-4z" />
    <glyph glyph-name="Atilde" unicode="&#xc3;" horiz-adv-x="210" 
d="M189 0h-20l-20 238h-87l-21 -238h-20l69 757h36zM148 258l-32 387c-2 33 -5 61 -6 91h-4c-1 -30 -4 -58 -7 -91l-35 -387h84zM187 893v-24c-7 -17 -21 -27 -37 -27c-20 0 -35 11 -48 26s-22 21 -38 21c-10 0 -15 -2 -23 -11c-5 -6 -8 -12 -10 -20h-4v24c7 17 21 27 37 27
c21 0 37 -13 51 -29c10 -13 20 -18 35 -18c10 0 15 2 23 11c5 6 8 12 10 20h4z" />
    <glyph glyph-name="Adieresis" unicode="&#xc4;" horiz-adv-x="210" 
d="M189 0h-20l-20 238h-87l-21 -238h-20l69 757h36zM148 258l-32 387c-2 33 -5 61 -6 91h-4c-1 -30 -4 -58 -7 -91l-35 -387h84zM162 820h-20v102h20v-102zM72 820h-20v102h20v-102z" />
    <glyph glyph-name="Aring" unicode="&#xc5;" horiz-adv-x="210" 
d="M189 0h-20l-20 238h-87l-21 -238h-20l69 757h36zM148 258l-32 387c-2 33 -5 61 -6 91h-4c-1 -30 -4 -58 -7 -91l-35 -387h84zM141 790c-6 -11 -13 -15 -34 -15s-28 4 -34 15s-8 19 -8 79s2 67 8 78s13 15 34 15s28 -4 34 -15s8 -18 8 -78s-2 -68 -8 -79zM125 801
c3 6 4 10 4 68s-1 61 -4 67c-3 5 -6 6 -18 6s-15 -1 -18 -6c-3 -6 -4 -9 -4 -67s1 -62 4 -68c3 -5 6 -6 18 -6s15 1 18 6z" />
    <glyph glyph-name="AE" unicode="&#xc6;" horiz-adv-x="310" 
d="M279 0h-133v238h-84l-21 -238h-20l69 757h190v-20h-114v-342h112v-20h-112v-355h113v-20zM146 258v479h-39l-43 -479h82z" />
    <glyph glyph-name="Ccedilla" unicode="&#xc7;" horiz-adv-x="216" 
d="M167 290h20c1 -22 1 -43 1 -68c0 -87 -3 -149 -17 -187c-12 -32 -30 -48 -61 -48c-40 0 -58 16 -69 62c-10 44 -15 102 -15 336s4 279 15 325c10 45 29 60 67 60c35 0 55 -17 66 -54c11 -36 13 -90 13 -169c0 -32 0 -45 -1 -67h-20c1 22 1 35 1 67c0 78 -2 130 -12 162
c-9 29 -23 41 -47 41c-27 0 -40 -11 -48 -45c-10 -43 -14 -87 -14 -320c0 -234 5 -291 14 -332c8 -34 21 -46 50 -46c22 0 35 13 44 39c11 35 14 93 14 176c0 27 0 45 -1 68zM56 -238h-16v4l56 193h21v-4z" />
    <glyph glyph-name="Egrave" unicode="&#xc8;" horiz-adv-x="191" 
d="M165 0h-133v757h134v-20h-114v-342h112v-20h-112v-355h113v-20zM109 789h-16l-76 169v4h21l71 -169v-4z" />
    <glyph glyph-name="Eacute" unicode="&#xc9;" horiz-adv-x="191" 
d="M165 0h-133v757h134v-20h-114v-342h112v-20h-112v-355h113v-20zM105 789h-16v4l71 169h21v-4z" />
    <glyph glyph-name="Ecircumflex" unicode="&#xca;" horiz-adv-x="191" 
d="M165 0h-133v757h134v-20h-114v-342h112v-20h-112v-355h113v-20zM169 789h-20l-48 141h-4l-48 -141h-20v4l60 169h20l60 -169v-4z" />
    <glyph glyph-name="Edieresis" unicode="&#xcb;" horiz-adv-x="191" 
d="M165 0h-133v757h134v-20h-114v-342h112v-20h-112v-355h113v-20zM153 820h-20v102h20v-102zM63 820h-20v102h20v-102z" />
    <glyph glyph-name="Igrave" unicode="&#xcc;" horiz-adv-x="104" 
d="M71 0h-20v757h20v-757zM71 789h-16l-76 169v4h21l71 -169v-4z" />
    <glyph glyph-name="Iacute" unicode="&#xcd;" horiz-adv-x="104" 
d="M53 0h-20v757h20v-757zM49 789h-16v4l71 169h21v-4z" />
    <glyph glyph-name="Icircumflex" unicode="&#xce;" horiz-adv-x="110" 
d="M65 0h-20v757h20v-757zM125 789h-20l-48 141h-4l-48 -141h-20v4l60 169h20l60 -169v-4z" />
    <glyph glyph-name="Idieresis" unicode="&#xcf;" horiz-adv-x="115" 
d="M67 0h-20v757h20v-757zM112 820h-20v102h20v-102zM22 820h-20v102h20v-102z" />
    <glyph glyph-name="Eth" unicode="&#xd0;" horiz-adv-x="221" 
d="M113 0h-84v375h-14v20h14v362h84c38 0 54 -14 67 -60c13 -45 15 -89 15 -318c0 -244 -4 -277 -14 -321c-11 -45 -26 -58 -68 -58zM49 20h64c30 0 40 9 48 42c10 44 14 77 14 317c0 227 -2 270 -14 312c-10 35 -21 46 -48 46h-64v-342h83v-20h-83v-355z" />
    <glyph glyph-name="Ntilde" unicode="&#xd1;" horiz-adv-x="226" 
d="M195 0h-16l-124 723h-4v-723h-20v757h39l88 -520c6 -34 11 -69 15 -102h4c-2 33 -2 75 -2 112v510h20v-757zM193 893v-24c-7 -17 -21 -27 -37 -27c-20 0 -35 11 -48 26s-22 21 -38 21c-10 0 -15 -2 -23 -11c-5 -6 -8 -12 -10 -20h-4v24c7 17 21 27 37 27
c21 0 37 -13 51 -29c10 -13 20 -18 35 -18c10 0 15 2 23 11c5 6 8 12 10 20h4z" />
    <glyph glyph-name="Ograve" unicode="&#xd2;" 
d="M41 49c-11 46 -15 92 -15 330s4 282 15 329c10 46 28 62 67 62c38 0 56 -16 67 -62c10 -47 14 -91 14 -329s-4 -284 -14 -330c-11 -47 -29 -62 -67 -62c-39 0 -57 15 -67 62zM155 53c10 46 14 92 14 326s-3 278 -13 324c-7 35 -21 47 -48 47s-39 -12 -47 -46
c-10 -45 -15 -88 -15 -325c0 -238 4 -283 14 -326c8 -35 21 -46 48 -46s40 11 47 46zM117 789h-16l-76 169v4h21l71 -169v-4z" />
    <glyph glyph-name="Oacute" unicode="&#xd3;" 
d="M41 49c-11 46 -15 92 -15 330s4 282 15 329c10 46 28 62 67 62c38 0 56 -16 67 -62c10 -47 14 -91 14 -329s-4 -284 -14 -330c-11 -47 -29 -62 -67 -62c-39 0 -57 15 -67 62zM155 53c10 46 14 92 14 326s-3 278 -13 324c-7 35 -21 47 -48 47s-39 -12 -47 -46
c-10 -45 -15 -88 -15 -325c0 -238 4 -283 14 -326c8 -35 21 -46 48 -46s40 11 47 46zM113 789h-16v4l71 169h21v-4z" />
    <glyph glyph-name="Ocircumflex" unicode="&#xd4;" 
d="M41 49c-11 46 -15 92 -15 330s4 282 15 329c10 46 28 62 67 62c38 0 56 -16 67 -62c10 -47 14 -91 14 -329s-4 -284 -14 -330c-11 -47 -29 -62 -67 -62c-39 0 -57 15 -67 62zM155 53c10 46 14 92 14 326s-3 278 -13 324c-7 35 -21 47 -48 47s-39 -12 -47 -46
c-10 -45 -15 -88 -15 -325c0 -238 4 -283 14 -326c8 -35 21 -46 48 -46s40 11 47 46zM177 789h-20l-48 141h-4l-48 -141h-20v4l60 169h20l60 -169v-4z" />
    <glyph glyph-name="Otilde" unicode="&#xd5;" 
d="M41 49c-11 46 -15 92 -15 330s4 282 15 329c10 46 28 62 67 62c38 0 56 -16 67 -62c10 -47 14 -91 14 -329s-4 -284 -14 -330c-11 -47 -29 -62 -67 -62c-39 0 -57 15 -67 62zM155 53c10 46 14 92 14 326s-3 278 -13 324c-7 35 -21 47 -48 47s-39 -12 -47 -46
c-10 -45 -15 -88 -15 -325c0 -238 4 -283 14 -326c8 -35 21 -46 48 -46s40 11 47 46zM188 893v-24c-7 -17 -21 -27 -37 -27c-20 0 -35 11 -48 26s-22 21 -38 21c-10 0 -15 -2 -23 -11c-5 -6 -8 -12 -10 -20h-4v24c7 17 21 27 37 27c21 0 37 -13 51 -29c10 -13 20 -18 35 -18
c10 0 15 2 23 11c5 6 8 12 10 20h4z" />
    <glyph glyph-name="Odieresis" unicode="&#xd6;" 
d="M41 49c-11 46 -15 92 -15 330s4 282 15 329c10 46 28 62 67 62c38 0 56 -16 67 -62c10 -47 14 -91 14 -329s-4 -284 -14 -330c-11 -47 -29 -62 -67 -62c-39 0 -57 15 -67 62zM155 53c10 46 14 92 14 326s-3 278 -13 324c-7 35 -21 47 -48 47s-39 -12 -47 -46
c-10 -45 -15 -88 -15 -325c0 -238 4 -283 14 -326c8 -35 21 -46 48 -46s40 11 47 46zM162 820h-20v102h20v-102zM72 820h-20v102h20v-102z" />
    <glyph glyph-name="multiply" unicode="&#xd7;" 
d="M168 304l-60 61l-60 -61l-15 15l61 60l-60 59l14 14l60 -59l59 59l14 -14l-59 -59l60 -60z" />
    <glyph glyph-name="Oslash" unicode="&#xd8;" 
d="M49 -130h-20l20 151c-4 8 -6 17 -8 28c-11 46 -15 92 -15 330s4 282 15 329c10 46 28 62 67 62c16 0 29 -3 39 -10l13 93h20l-16 -115c4 -8 8 -18 11 -30c10 -47 14 -91 14 -329s-4 -284 -14 -330c-11 -47 -29 -62 -67 -62c-18 0 -32 3 -42 11zM151 641l-82 -616
c8 -13 21 -18 39 -18c27 0 40 11 47 46c10 46 14 92 14 326c0 146 -2 218 -5 262c-1 15 -2 33 -4 45h-4c-1 -15 -3 -30 -5 -45zM54 75h3c1 13 3 28 5 42l82 617c-8 11 -20 16 -36 16c-27 0 -39 -12 -47 -46c-10 -45 -15 -88 -15 -325c0 -188 2 -263 8 -304z" />
    <glyph glyph-name="Ugrave" unicode="&#xd9;" horiz-adv-x="220" 
d="M171 188v569h20v-569c0 -102 -4 -128 -14 -156c-12 -34 -32 -45 -67 -45s-55 11 -67 45c-10 28 -15 54 -15 156v569h20v-569c0 -98 5 -123 14 -149c8 -24 23 -32 48 -32s40 8 48 32c9 26 13 50 13 149zM120 789h-16l-76 169v4h21l71 -169v-4z" />
    <glyph glyph-name="Uacute" unicode="&#xda;" horiz-adv-x="220" 
d="M171 188v569h20v-569c0 -102 -4 -128 -14 -156c-12 -34 -32 -45 -67 -45s-55 11 -67 45c-10 28 -15 54 -15 156v569h20v-569c0 -98 5 -123 14 -149c8 -24 23 -32 48 -32s40 8 48 32c9 26 13 50 13 149zM116 789h-16v4l71 169h21v-4z" />
    <glyph glyph-name="Ucircumflex" unicode="&#xdb;" horiz-adv-x="220" 
d="M171 188v569h20v-569c0 -102 -4 -128 -14 -156c-12 -34 -32 -45 -67 -45s-55 11 -67 45c-10 28 -15 54 -15 156v569h20v-569c0 -98 5 -123 14 -149c8 -24 23 -32 48 -32s40 8 48 32c9 26 13 50 13 149zM180 789h-20l-48 141h-4l-48 -141h-20v4l60 169h20l60 -169v-4z" />
    <glyph glyph-name="Udieresis" unicode="&#xdc;" horiz-adv-x="220" 
d="M171 188v569h20v-569c0 -102 -4 -128 -14 -156c-12 -34 -32 -45 -67 -45s-55 11 -67 45c-10 28 -15 54 -15 156v569h20v-569c0 -98 5 -123 14 -149c8 -24 23 -32 48 -32s40 8 48 32c9 26 13 50 13 149zM165 820h-20v102h20v-102zM75 820h-20v102h20v-102z" />
    <glyph glyph-name="Yacute" unicode="&#xdd;" horiz-adv-x="203" 
d="M111 0h-20v385l-77 368v4h20l55 -274c4 -22 8 -43 10 -59h4c2 16 6 37 10 59l56 274h20v-4l-78 -368v-385zM107 789h-16v4l71 169h21v-4z" />
    <glyph glyph-name="Thorn" unicode="&#xde;" 
d="M52 0h-20v757h20v-116h70c54 0 69 -66 69 -261c0 -198 -15 -269 -69 -269h-70v-111zM52 131h70c38 0 49 66 49 249c0 180 -11 241 -49 241h-70v-490z" />
    <glyph glyph-name="germandbls" unicode="&#xdf;" horiz-adv-x="294" 
d="M62 0h-20v640c0 45 2 73 13 93c14 26 33 34 66 34c31 0 53 -8 63 -34c8 -20 11 -51 11 -93v-118c0 -31 5 -41 15 -54c17 -23 28 -34 40 -54c15 -26 18 -64 18 -146c0 -174 -6 -205 -14 -234c-10 -36 -28 -47 -62 -47c-33 0 -49 11 -58 47c-10 40 -12 89 -12 134
c0 14 0 30 1 46h20c-1 -16 -1 -31 -1 -46c0 -44 2 -92 11 -129c6 -24 17 -32 39 -32c24 0 36 8 43 32c7 27 13 58 13 229c0 76 -3 114 -15 136s-19 29 -39 52c-12 14 -19 32 -19 66v118c0 43 -3 66 -10 83c-8 18 -22 24 -44 24c-26 0 -39 -5 -49 -24c-9 -18 -10 -39 -10 -83
v-640z" />
    <glyph glyph-name="agrave" unicode="&#xe0;" horiz-adv-x="210" 
d="M189 0h-20l-20 238h-87l-21 -238h-20l69 757h36zM148 258l-32 387c-2 33 -5 61 -6 91h-4c-1 -30 -4 -58 -7 -91l-35 -387h84zM117 789h-16l-76 169v4h21l71 -169v-4z" />
    <glyph glyph-name="aacute" unicode="&#xe1;" horiz-adv-x="210" 
d="M189 0h-20l-20 238h-87l-21 -238h-20l69 757h36zM148 258l-32 387c-2 33 -5 61 -6 91h-4c-1 -30 -4 -58 -7 -91l-35 -387h84zM113 789h-16v4l71 169h21v-4z" />
    <glyph glyph-name="acircumflex" unicode="&#xe2;" horiz-adv-x="210" 
d="M189 0h-20l-20 238h-87l-21 -238h-20l69 757h36zM148 258l-32 387c-2 33 -5 61 -6 91h-4c-1 -30 -4 -58 -7 -91l-35 -387h84zM177 789h-20l-48 141h-4l-48 -141h-20v4l60 169h20l60 -169v-4z" />
    <glyph glyph-name="atilde" unicode="&#xe3;" horiz-adv-x="210" 
d="M189 0h-20l-20 238h-87l-21 -238h-20l69 757h36zM148 258l-32 387c-2 33 -5 61 -6 91h-4c-1 -30 -4 -58 -7 -91l-35 -387h84zM187 893v-24c-7 -17 -21 -27 -37 -27c-20 0 -35 11 -48 26s-22 21 -38 21c-10 0 -15 -2 -23 -11c-5 -6 -8 -12 -10 -20h-4v24c7 17 21 27 37 27
c21 0 37 -13 51 -29c10 -13 20 -18 35 -18c10 0 15 2 23 11c5 6 8 12 10 20h4z" />
    <glyph glyph-name="adieresis" unicode="&#xe4;" horiz-adv-x="210" 
d="M189 0h-20l-20 238h-87l-21 -238h-20l69 757h36zM148 258l-32 387c-2 33 -5 61 -6 91h-4c-1 -30 -4 -58 -7 -91l-35 -387h84zM162 820h-20v102h20v-102zM72 820h-20v102h20v-102z" />
    <glyph glyph-name="aring" unicode="&#xe5;" horiz-adv-x="210" 
d="M189 0h-20l-20 238h-87l-21 -238h-20l69 757h36zM148 258l-32 387c-2 33 -5 61 -6 91h-4c-1 -30 -4 -58 -7 -91l-35 -387h84zM141 790c-6 -11 -13 -15 -34 -15s-28 4 -34 15s-8 19 -8 79s2 67 8 78s13 15 34 15s28 -4 34 -15s8 -18 8 -78s-2 -68 -8 -79zM125 801
c3 6 4 10 4 68s-1 61 -4 67c-3 5 -6 6 -18 6s-15 -1 -18 -6c-3 -6 -4 -9 -4 -67s1 -62 4 -68c3 -5 6 -6 18 -6s15 1 18 6z" />
    <glyph glyph-name="ae" unicode="&#xe6;" horiz-adv-x="310" 
d="M279 0h-133v238h-84l-21 -238h-20l69 757h190v-20h-114v-342h112v-20h-112v-355h113v-20zM146 258v479h-39l-43 -479h82z" />
    <glyph glyph-name="ccedilla" unicode="&#xe7;" horiz-adv-x="216" 
d="M167 290h20c1 -22 1 -43 1 -68c0 -87 -3 -149 -17 -187c-12 -32 -30 -48 -61 -48c-40 0 -58 16 -69 62c-10 44 -15 102 -15 336s4 279 15 325c10 45 29 60 67 60c35 0 55 -17 66 -54c11 -36 13 -90 13 -169c0 -32 0 -45 -1 -67h-20c1 22 1 35 1 67c0 78 -2 130 -12 162
c-9 29 -23 41 -47 41c-27 0 -40 -11 -48 -45c-10 -43 -14 -87 -14 -320c0 -234 5 -291 14 -332c8 -34 21 -46 50 -46c22 0 35 13 44 39c11 35 14 93 14 176c0 27 0 45 -1 68zM56 -238h-16v4l56 193h21v-4z" />
    <glyph glyph-name="egrave" unicode="&#xe8;" horiz-adv-x="191" 
d="M165 0h-133v757h134v-20h-114v-342h112v-20h-112v-355h113v-20zM109 789h-16l-76 169v4h21l71 -169v-4z" />
    <glyph glyph-name="eacute" unicode="&#xe9;" horiz-adv-x="191" 
d="M165 0h-133v757h134v-20h-114v-342h112v-20h-112v-355h113v-20zM105 789h-16v4l71 169h21v-4z" />
    <glyph glyph-name="ecircumflex" unicode="&#xea;" horiz-adv-x="191" 
d="M165 0h-133v757h134v-20h-114v-342h112v-20h-112v-355h113v-20zM169 789h-20l-48 141h-4l-48 -141h-20v4l60 169h20l60 -169v-4z" />
    <glyph glyph-name="edieresis" unicode="&#xeb;" horiz-adv-x="191" 
d="M165 0h-133v757h134v-20h-114v-342h112v-20h-112v-355h113v-20zM153 820h-20v102h20v-102zM63 820h-20v102h20v-102z" />
    <glyph glyph-name="igrave" unicode="&#xec;" horiz-adv-x="104" 
d="M71 0h-20v757h20v-757zM71 789h-16l-76 169v4h21l71 -169v-4z" />
    <glyph glyph-name="iacute" unicode="&#xed;" horiz-adv-x="104" 
d="M53 0h-20v757h20v-757zM49 789h-16v4l71 169h21v-4z" />
    <glyph glyph-name="icircumflex" unicode="&#xee;" horiz-adv-x="110" 
d="M65 0h-20v757h20v-757zM125 789h-20l-48 141h-4l-48 -141h-20v4l60 169h20l60 -169v-4z" />
    <glyph glyph-name="idieresis" unicode="&#xef;" horiz-adv-x="115" 
d="M67 0h-20v757h20v-757zM112 820h-20v102h20v-102zM22 820h-20v102h20v-102z" />
    <glyph glyph-name="eth" unicode="&#xf0;" horiz-adv-x="221" 
d="M113 0h-84v375h-14v20h14v362h84c38 0 54 -14 67 -60c13 -45 15 -89 15 -318c0 -244 -4 -277 -14 -321c-11 -45 -26 -58 -68 -58zM49 20h64c30 0 40 9 48 42c10 44 14 77 14 317c0 227 -2 270 -14 312c-10 35 -21 46 -48 46h-64v-342h83v-20h-83v-355z" />
    <glyph glyph-name="ntilde" unicode="&#xf1;" horiz-adv-x="226" 
d="M195 0h-16l-124 723h-4v-723h-20v757h39l88 -520c6 -34 11 -69 15 -102h4c-2 33 -2 75 -2 112v510h20v-757zM193 893v-24c-7 -17 -21 -27 -37 -27c-20 0 -35 11 -48 26s-22 21 -38 21c-10 0 -15 -2 -23 -11c-5 -6 -8 -12 -10 -20h-4v24c7 17 21 27 37 27
c21 0 37 -13 51 -29c10 -13 20 -18 35 -18c10 0 15 2 23 11c5 6 8 12 10 20h4z" />
    <glyph glyph-name="ograve" unicode="&#xf2;" 
d="M41 49c-11 46 -15 92 -15 330s4 282 15 329c10 46 28 62 67 62c38 0 56 -16 67 -62c10 -47 14 -91 14 -329s-4 -284 -14 -330c-11 -47 -29 -62 -67 -62c-39 0 -57 15 -67 62zM155 53c10 46 14 92 14 326s-3 278 -13 324c-7 35 -21 47 -48 47s-39 -12 -47 -46
c-10 -45 -15 -88 -15 -325c0 -238 4 -283 14 -326c8 -35 21 -46 48 -46s40 11 47 46zM117 789h-16l-76 169v4h21l71 -169v-4z" />
    <glyph glyph-name="oacute" unicode="&#xf3;" 
d="M41 49c-11 46 -15 92 -15 330s4 282 15 329c10 46 28 62 67 62c38 0 56 -16 67 -62c10 -47 14 -91 14 -329s-4 -284 -14 -330c-11 -47 -29 -62 -67 -62c-39 0 -57 15 -67 62zM155 53c10 46 14 92 14 326s-3 278 -13 324c-7 35 -21 47 -48 47s-39 -12 -47 -46
c-10 -45 -15 -88 -15 -325c0 -238 4 -283 14 -326c8 -35 21 -46 48 -46s40 11 47 46zM113 789h-16v4l71 169h21v-4z" />
    <glyph glyph-name="ocircumflex" unicode="&#xf4;" 
d="M41 49c-11 46 -15 92 -15 330s4 282 15 329c10 46 28 62 67 62c38 0 56 -16 67 -62c10 -47 14 -91 14 -329s-4 -284 -14 -330c-11 -47 -29 -62 -67 -62c-39 0 -57 15 -67 62zM155 53c10 46 14 92 14 326s-3 278 -13 324c-7 35 -21 47 -48 47s-39 -12 -47 -46
c-10 -45 -15 -88 -15 -325c0 -238 4 -283 14 -326c8 -35 21 -46 48 -46s40 11 47 46zM177 789h-20l-48 141h-4l-48 -141h-20v4l60 169h20l60 -169v-4z" />
    <glyph glyph-name="otilde" unicode="&#xf5;" 
d="M41 49c-11 46 -15 92 -15 330s4 282 15 329c10 46 28 62 67 62c38 0 56 -16 67 -62c10 -47 14 -91 14 -329s-4 -284 -14 -330c-11 -47 -29 -62 -67 -62c-39 0 -57 15 -67 62zM155 53c10 46 14 92 14 326s-3 278 -13 324c-7 35 -21 47 -48 47s-39 -12 -47 -46
c-10 -45 -15 -88 -15 -325c0 -238 4 -283 14 -326c8 -35 21 -46 48 -46s40 11 47 46zM188 893v-24c-7 -17 -21 -27 -37 -27c-20 0 -35 11 -48 26s-22 21 -38 21c-10 0 -15 -2 -23 -11c-5 -6 -8 -12 -10 -20h-4v24c7 17 21 27 37 27c21 0 37 -13 51 -29c10 -13 20 -18 35 -18
c10 0 15 2 23 11c5 6 8 12 10 20h4z" />
    <glyph glyph-name="odieresis" unicode="&#xf6;" 
d="M41 49c-11 46 -15 92 -15 330s4 282 15 329c10 46 28 62 67 62c38 0 56 -16 67 -62c10 -47 14 -91 14 -329s-4 -284 -14 -330c-11 -47 -29 -62 -67 -62c-39 0 -57 15 -67 62zM155 53c10 46 14 92 14 326s-3 278 -13 324c-7 35 -21 47 -48 47s-39 -12 -47 -46
c-10 -45 -15 -88 -15 -325c0 -238 4 -283 14 -326c8 -35 21 -46 48 -46s40 11 47 46zM162 820h-20v102h20v-102zM72 820h-20v102h20v-102z" />
    <glyph glyph-name="divide" unicode="&#xf7;" 
d="M192 369h-169v20h169v-20zM117 489h-20v101h20v-101zM117 168h-20v101h20v-101z" />
    <glyph glyph-name="oslash" unicode="&#xf8;" 
d="M49 -130h-20l20 151c-4 8 -6 17 -8 28c-11 46 -15 92 -15 330s4 282 15 329c10 46 28 62 67 62c16 0 29 -3 39 -10l13 93h20l-16 -115c4 -8 8 -18 11 -30c10 -47 14 -91 14 -329s-4 -284 -14 -330c-11 -47 -29 -62 -67 -62c-18 0 -32 3 -42 11zM151 641l-82 -616
c8 -13 21 -18 39 -18c27 0 40 11 47 46c10 46 14 92 14 326c0 146 -2 218 -5 262c-1 15 -2 33 -4 45h-4c-1 -15 -3 -30 -5 -45zM54 75h3c1 13 3 28 5 42l82 617c-8 11 -20 16 -36 16c-27 0 -39 -12 -47 -46c-10 -45 -15 -88 -15 -325c0 -188 2 -263 8 -304z" />
    <glyph glyph-name="ugrave" unicode="&#xf9;" horiz-adv-x="220" 
d="M171 188v569h20v-569c0 -102 -4 -128 -14 -156c-12 -34 -32 -45 -67 -45s-55 11 -67 45c-10 28 -15 54 -15 156v569h20v-569c0 -98 5 -123 14 -149c8 -24 23 -32 48 -32s40 8 48 32c9 26 13 50 13 149zM120 789h-16l-76 169v4h21l71 -169v-4z" />
    <glyph glyph-name="uacute" unicode="&#xfa;" horiz-adv-x="220" 
d="M171 188v569h20v-569c0 -102 -4 -128 -14 -156c-12 -34 -32 -45 -67 -45s-55 11 -67 45c-10 28 -15 54 -15 156v569h20v-569c0 -98 5 -123 14 -149c8 -24 23 -32 48 -32s40 8 48 32c9 26 13 50 13 149zM116 789h-16v4l71 169h21v-4z" />
    <glyph glyph-name="ucircumflex" unicode="&#xfb;" horiz-adv-x="220" 
d="M171 188v569h20v-569c0 -102 -4 -128 -14 -156c-12 -34 -32 -45 -67 -45s-55 11 -67 45c-10 28 -15 54 -15 156v569h20v-569c0 -98 5 -123 14 -149c8 -24 23 -32 48 -32s40 8 48 32c9 26 13 50 13 149zM180 789h-20l-48 141h-4l-48 -141h-20v4l60 169h20l60 -169v-4z" />
    <glyph glyph-name="udieresis" unicode="&#xfc;" horiz-adv-x="220" 
d="M171 188v569h20v-569c0 -102 -4 -128 -14 -156c-12 -34 -32 -45 -67 -45s-55 11 -67 45c-10 28 -15 54 -15 156v569h20v-569c0 -98 5 -123 14 -149c8 -24 23 -32 48 -32s40 8 48 32c9 26 13 50 13 149zM165 820h-20v102h20v-102zM75 820h-20v102h20v-102z" />
    <glyph glyph-name="yacute" unicode="&#xfd;" horiz-adv-x="203" 
d="M111 0h-20v385l-77 368v4h20l55 -274c4 -22 8 -43 10 -59h4c2 16 6 37 10 59l56 274h20v-4l-78 -368v-385zM107 789h-16v4l71 169h21v-4z" />
    <glyph glyph-name="thorn" unicode="&#xfe;" 
d="M52 0h-20v757h20v-116h70c54 0 69 -66 69 -261c0 -198 -15 -269 -69 -269h-70v-111zM52 131h70c38 0 49 66 49 249c0 180 -11 241 -49 241h-70v-490z" />
    <glyph glyph-name="ydieresis" unicode="&#xff;" horiz-adv-x="203" 
d="M111 0h-20v385l-77 368v4h20l55 -274c4 -22 8 -43 10 -59h4c2 16 6 37 10 59l56 274h20v-4l-78 -368v-385zM156 820h-20v102h20v-102zM66 820h-20v102h20v-102z" />
    <glyph glyph-name="Amacron" unicode="&#x100;" horiz-adv-x="210" 
d="M189 0h-20l-20 238h-87l-21 -238h-20l69 757h36zM148 258l-32 387c-2 33 -5 61 -6 91h-4c-1 -30 -4 -58 -7 -91l-35 -387h84zM187 867h-160v20h160v-20z" />
    <glyph glyph-name="amacron" unicode="&#x101;" horiz-adv-x="210" 
d="M189 0h-20l-20 238h-87l-21 -238h-20l69 757h36zM148 258l-32 387c-2 33 -5 61 -6 91h-4c-1 -30 -4 -58 -7 -91l-35 -387h84zM187 867h-160v20h160v-20z" />
    <glyph glyph-name="Abreve" unicode="&#x102;" horiz-adv-x="210" 
d="M189 0h-20l-20 238h-87l-21 -238h-20l69 757h36zM148 258l-32 387c-2 33 -5 61 -6 91h-4c-1 -30 -4 -58 -7 -91l-35 -387h84zM153 962h20c0 -113 -4 -129 -13 -146s-21 -27 -53 -27s-44 10 -53 27s-13 33 -13 146h20c0 -113 2 -122 9 -136s13 -17 37 -17s30 3 37 17
s9 23 9 136z" />
    <glyph glyph-name="abreve" unicode="&#x103;" horiz-adv-x="210" 
d="M189 0h-20l-20 238h-87l-21 -238h-20l69 757h36zM148 258l-32 387c-2 33 -5 61 -6 91h-4c-1 -30 -4 -58 -7 -91l-35 -387h84zM153 962h20c0 -113 -4 -129 -13 -146s-21 -27 -53 -27s-44 10 -53 27s-13 33 -13 146h20c0 -113 2 -122 9 -136s13 -17 37 -17s30 3 37 17
s9 23 9 136z" />
    <glyph glyph-name="Aogonek" unicode="&#x104;" horiz-adv-x="210" 
d="M189 -207v-18c-6 -5 -21 -13 -42 -13c-43 0 -61 36 -61 109c0 35 7 69 25 91c15 19 33 29 58 38l-20 238h-87l-21 -238h-20l69 757h36l63 -757c-41 -18 -52 -29 -65 -48c-16 -23 -18 -51 -18 -81c0 -60 12 -89 41 -89c19 0 27 3 38 11h4zM148 258l-32 387
c-2 33 -5 61 -6 91h-4c-1 -30 -4 -58 -7 -91l-35 -387h84z" />
    <glyph glyph-name="aogonek" unicode="&#x105;" horiz-adv-x="210" 
d="M189 -207v-18c-6 -5 -21 -13 -42 -13c-43 0 -61 36 -61 109c0 35 7 69 25 91c15 19 33 29 58 38l-20 238h-87l-21 -238h-20l69 757h36l63 -757c-41 -18 -52 -29 -65 -48c-16 -23 -18 -51 -18 -81c0 -60 12 -89 41 -89c19 0 27 3 38 11h4zM148 258l-32 387
c-2 33 -5 61 -6 91h-4c-1 -30 -4 -58 -7 -91l-35 -387h84z" />
    <glyph glyph-name="Cacute" unicode="&#x106;" horiz-adv-x="216" 
d="M167 290h20c1 -22 1 -43 1 -68c0 -87 -3 -149 -17 -187c-12 -32 -30 -48 -61 -48c-40 0 -58 16 -69 62c-10 44 -15 102 -15 336s4 279 15 325c10 45 29 60 67 60c35 0 55 -17 66 -54c11 -36 13 -90 13 -169c0 -32 0 -45 -1 -67h-20c1 22 1 35 1 67c0 78 -2 130 -12 162
c-9 29 -23 41 -47 41c-27 0 -40 -11 -48 -45c-10 -43 -14 -87 -14 -320c0 -234 5 -291 14 -332c8 -34 21 -46 50 -46c22 0 35 13 44 39c11 35 14 93 14 176c0 27 0 45 -1 68zM114 789h-16v4l71 169h21v-4z" />
    <glyph glyph-name="cacute" unicode="&#x107;" horiz-adv-x="216" 
d="M167 290h20c1 -22 1 -43 1 -68c0 -87 -3 -149 -17 -187c-12 -32 -30 -48 -61 -48c-40 0 -58 16 -69 62c-10 44 -15 102 -15 336s4 279 15 325c10 45 29 60 67 60c35 0 55 -17 66 -54c11 -36 13 -90 13 -169c0 -32 0 -45 -1 -67h-20c1 22 1 35 1 67c0 78 -2 130 -12 162
c-9 29 -23 41 -47 41c-27 0 -40 -11 -48 -45c-10 -43 -14 -87 -14 -320c0 -234 5 -291 14 -332c8 -34 21 -46 50 -46c22 0 35 13 44 39c11 35 14 93 14 176c0 27 0 45 -1 68zM114 789h-16v4l71 169h21v-4z" />
    <glyph glyph-name="Cdotaccent" unicode="&#x10a;" horiz-adv-x="216" 
d="M167 290h20c1 -22 1 -43 1 -68c0 -87 -3 -149 -17 -187c-12 -32 -30 -48 -61 -48c-40 0 -58 16 -69 62c-10 44 -15 102 -15 336s4 279 15 325c10 45 29 60 67 60c35 0 55 -17 66 -54c11 -36 13 -90 13 -169c0 -32 0 -45 -1 -67h-20c1 22 1 35 1 67c0 78 -2 130 -12 162
c-9 29 -23 41 -47 41c-27 0 -40 -11 -48 -45c-10 -43 -14 -87 -14 -320c0 -234 5 -291 14 -332c8 -34 21 -46 50 -46c22 0 35 13 44 39c11 35 14 93 14 176c0 27 0 45 -1 68zM118 820h-20v102h20v-102z" />
    <glyph glyph-name="cdotaccent" unicode="&#x10b;" horiz-adv-x="216" 
d="M167 290h20c1 -22 1 -43 1 -68c0 -87 -3 -149 -17 -187c-12 -32 -30 -48 -61 -48c-40 0 -58 16 -69 62c-10 44 -15 102 -15 336s4 279 15 325c10 45 29 60 67 60c35 0 55 -17 66 -54c11 -36 13 -90 13 -169c0 -32 0 -45 -1 -67h-20c1 22 1 35 1 67c0 78 -2 130 -12 162
c-9 29 -23 41 -47 41c-27 0 -40 -11 -48 -45c-10 -43 -14 -87 -14 -320c0 -234 5 -291 14 -332c8 -34 21 -46 50 -46c22 0 35 13 44 39c11 35 14 93 14 176c0 27 0 45 -1 68zM118 820h-20v102h20v-102z" />
    <glyph glyph-name="Ccaron" unicode="&#x10c;" horiz-adv-x="216" 
d="M167 290h20c1 -22 1 -43 1 -68c0 -87 -3 -149 -17 -187c-12 -32 -30 -48 -61 -48c-40 0 -58 16 -69 62c-10 44 -15 102 -15 336s4 279 15 325c10 45 29 60 67 60c35 0 55 -17 66 -54c11 -36 13 -90 13 -169c0 -32 0 -45 -1 -67h-20c1 22 1 35 1 67c0 78 -2 130 -12 162
c-9 29 -23 41 -47 41c-27 0 -40 -11 -48 -45c-10 -43 -14 -87 -14 -320c0 -234 5 -291 14 -332c8 -34 21 -46 50 -46c22 0 35 13 44 39c11 35 14 93 14 176c0 27 0 45 -1 68zM118 789h-20l-60 169v4h20l48 -141h4l48 141h20v-4z" />
    <glyph glyph-name="ccaron" unicode="&#x10d;" horiz-adv-x="216" 
d="M167 290h20c1 -22 1 -43 1 -68c0 -87 -3 -149 -17 -187c-12 -32 -30 -48 -61 -48c-40 0 -58 16 -69 62c-10 44 -15 102 -15 336s4 279 15 325c10 45 29 60 67 60c35 0 55 -17 66 -54c11 -36 13 -90 13 -169c0 -32 0 -45 -1 -67h-20c1 22 1 35 1 67c0 78 -2 130 -12 162
c-9 29 -23 41 -47 41c-27 0 -40 -11 -48 -45c-10 -43 -14 -87 -14 -320c0 -234 5 -291 14 -332c8 -34 21 -46 50 -46c22 0 35 13 44 39c11 35 14 93 14 176c0 27 0 45 -1 68zM118 789h-20l-60 169v4h20l48 -141h4l48 141h20v-4z" />
    <glyph glyph-name="Dcaron" unicode="&#x10e;" horiz-adv-x="224" 
d="M116 0h-84v757h84c38 0 54 -14 67 -60c13 -45 15 -89 15 -318c0 -244 -4 -277 -14 -321c-11 -45 -26 -58 -68 -58zM52 20h64c30 0 40 9 48 42c10 44 14 77 14 317c0 227 -2 270 -14 312c-10 35 -21 46 -48 46h-64v-717zM117 789h-20l-60 169v4h20l48 -141h4l48 141h20v-4
z" />
    <glyph glyph-name="dcaron" unicode="&#x10f;" horiz-adv-x="224" 
d="M116 0h-84v757h84c38 0 54 -14 67 -60c13 -45 15 -89 15 -318c0 -244 -4 -277 -14 -321c-11 -45 -26 -58 -68 -58zM52 20h64c30 0 40 9 48 42c10 44 14 77 14 317c0 227 -2 270 -14 312c-10 35 -21 46 -48 46h-64v-717zM117 789h-20l-60 169v4h20l48 -141h4l48 141h20v-4
z" />
    <glyph glyph-name="Dcroat" unicode="&#x110;" horiz-adv-x="221" 
d="M113 0h-84v375h-14v20h14v362h84c38 0 54 -14 67 -60c13 -45 15 -89 15 -318c0 -244 -4 -277 -14 -321c-11 -45 -26 -58 -68 -58zM49 20h64c30 0 40 9 48 42c10 44 14 77 14 317c0 227 -2 270 -14 312c-10 35 -21 46 -48 46h-64v-342h83v-20h-83v-355z" />
    <glyph glyph-name="dcroat" unicode="&#x111;" horiz-adv-x="221" 
d="M113 0h-84v375h-14v20h14v362h84c38 0 54 -14 67 -60c13 -45 15 -89 15 -318c0 -244 -4 -277 -14 -321c-11 -45 -26 -58 -68 -58zM49 20h64c30 0 40 9 48 42c10 44 14 77 14 317c0 227 -2 270 -14 312c-10 35 -21 46 -48 46h-64v-342h83v-20h-83v-355z" />
    <glyph glyph-name="Emacron" unicode="&#x112;" horiz-adv-x="191" 
d="M165 0h-133v757h134v-20h-114v-342h112v-20h-112v-355h113v-20zM180 867h-160v20h160v-20z" />
    <glyph glyph-name="emacron" unicode="&#x113;" horiz-adv-x="191" 
d="M165 0h-133v757h134v-20h-114v-342h112v-20h-112v-355h113v-20zM180 867h-160v20h160v-20z" />
    <glyph glyph-name="Ebreve" unicode="&#x114;" horiz-adv-x="191" 
d="M165 0h-133v757h134v-20h-114v-342h112v-20h-112v-355h113v-20zM146 962h20c0 -113 -4 -129 -13 -146s-21 -27 -53 -27s-44 10 -53 27s-13 33 -13 146h20c0 -113 2 -122 9 -136s13 -17 37 -17s30 3 37 17s9 23 9 136z" />
    <glyph glyph-name="ebreve" unicode="&#x115;" horiz-adv-x="191" 
d="M165 0h-133v757h134v-20h-114v-342h112v-20h-112v-355h113v-20zM146 962h20c0 -113 -4 -129 -13 -146s-21 -27 -53 -27s-44 10 -53 27s-13 33 -13 146h20c0 -113 2 -122 9 -136s13 -17 37 -17s30 3 37 17s9 23 9 136z" />
    <glyph glyph-name="Edotaccent" unicode="&#x116;" horiz-adv-x="191" 
d="M165 0h-133v757h134v-20h-114v-342h112v-20h-112v-355h113v-20zM109 820h-20v102h20v-102z" />
    <glyph glyph-name="edotaccent" unicode="&#x117;" horiz-adv-x="191" 
d="M165 0h-133v757h134v-20h-114v-342h112v-20h-112v-355h113v-20zM109 820h-20v102h20v-102z" />
    <glyph glyph-name="Eogonek" unicode="&#x118;" horiz-adv-x="191" 
d="M165 -207v-18c-6 -5 -21 -13 -42 -13c-43 0 -61 36 -61 109c0 35 7 69 25 91c15 19 33 29 58 38h-113v757h134v-20h-114v-342h112v-20h-112v-355h113v-20c-41 -18 -52 -29 -65 -48c-16 -23 -18 -51 -18 -81c0 -60 12 -89 41 -89c19 0 27 3 38 11h4z" />
    <glyph glyph-name="eogonek" unicode="&#x119;" horiz-adv-x="191" 
d="M165 -207v-18c-6 -5 -21 -13 -42 -13c-43 0 -61 36 -61 109c0 35 7 69 25 91c15 19 33 29 58 38h-113v757h134v-20h-114v-342h112v-20h-112v-355h113v-20c-41 -18 -52 -29 -65 -48c-16 -23 -18 -51 -18 -81c0 -60 12 -89 41 -89c19 0 27 3 38 11h4z" />
    <glyph glyph-name="Ecaron" unicode="&#x11a;" horiz-adv-x="191" 
d="M165 0h-133v757h134v-20h-114v-342h112v-20h-112v-355h113v-20zM110 789h-20l-60 169v4h20l48 -141h4l48 141h20v-4z" />
    <glyph glyph-name="ecaron" unicode="&#x11b;" horiz-adv-x="191" 
d="M165 0h-133v757h134v-20h-114v-342h112v-20h-112v-355h113v-20zM110 789h-20l-60 169v4h20l48 -141h4l48 141h20v-4z" />
    <glyph glyph-name="Gbreve" unicode="&#x11e;" horiz-adv-x="214" 
d="M156 54l-1 -1c9 40 14 81 14 243c0 48 0 68 -1 79h-80v20h99c2 -24 2 -51 2 -99c0 -166 -5 -207 -14 -247c-11 -47 -29 -62 -67 -62c-39 0 -57 15 -67 62c-11 46 -15 92 -15 336c0 234 4 279 13 315c12 55 31 70 69 70c44 0 65 -26 70 -70c7 -53 9 -90 9 -135
c0 -21 0 -30 -1 -39h-20c1 6 1 13 1 39c0 43 -2 79 -9 132c-4 33 -19 53 -50 53c-27 0 -41 -12 -50 -55c-8 -33 -12 -77 -12 -310c0 -244 4 -289 14 -332c8 -35 21 -46 48 -46s40 11 48 47zM153 962h20c0 -113 -4 -129 -13 -146s-21 -27 -53 -27s-44 10 -53 27
s-13 33 -13 146h20c0 -113 2 -122 9 -136s13 -17 37 -17s30 3 37 17s9 23 9 136z" />
    <glyph glyph-name="gbreve" unicode="&#x11f;" horiz-adv-x="214" 
d="M156 54l-1 -1c9 40 14 81 14 243c0 48 0 68 -1 79h-80v20h99c2 -24 2 -51 2 -99c0 -166 -5 -207 -14 -247c-11 -47 -29 -62 -67 -62c-39 0 -57 15 -67 62c-11 46 -15 92 -15 336c0 234 4 279 13 315c12 55 31 70 69 70c44 0 65 -26 70 -70c7 -53 9 -90 9 -135
c0 -21 0 -30 -1 -39h-20c1 6 1 13 1 39c0 43 -2 79 -9 132c-4 33 -19 53 -50 53c-27 0 -41 -12 -50 -55c-8 -33 -12 -77 -12 -310c0 -244 4 -289 14 -332c8 -35 21 -46 48 -46s40 11 48 47zM153 962h20c0 -113 -4 -129 -13 -146s-21 -27 -53 -27s-44 10 -53 27
s-13 33 -13 146h20c0 -113 2 -122 9 -136s13 -17 37 -17s30 3 37 17s9 23 9 136z" />
    <glyph glyph-name="Gdotaccent" unicode="&#x120;" horiz-adv-x="214" 
d="M156 54l-1 -1c9 40 14 81 14 243c0 48 0 68 -1 79h-80v20h99c2 -24 2 -51 2 -99c0 -166 -5 -207 -14 -247c-11 -47 -29 -62 -67 -62c-39 0 -57 15 -67 62c-11 46 -15 92 -15 336c0 234 4 279 13 315c12 55 31 70 69 70c44 0 65 -26 70 -70c7 -53 9 -90 9 -135
c0 -21 0 -30 -1 -39h-20c1 6 1 13 1 39c0 43 -2 79 -9 132c-4 33 -19 53 -50 53c-27 0 -41 -12 -50 -55c-8 -33 -12 -77 -12 -310c0 -244 4 -289 14 -332c8 -35 21 -46 48 -46s40 11 48 47zM117 820h-20v102h20v-102z" />
    <glyph glyph-name="gdotaccent" unicode="&#x121;" horiz-adv-x="214" 
d="M156 54l-1 -1c9 40 14 81 14 243c0 48 0 68 -1 79h-80v20h99c2 -24 2 -51 2 -99c0 -166 -5 -207 -14 -247c-11 -47 -29 -62 -67 -62c-39 0 -57 15 -67 62c-11 46 -15 92 -15 336c0 234 4 279 13 315c12 55 31 70 69 70c44 0 65 -26 70 -70c7 -53 9 -90 9 -135
c0 -21 0 -30 -1 -39h-20c1 6 1 13 1 39c0 43 -2 79 -9 132c-4 33 -19 53 -50 53c-27 0 -41 -12 -50 -55c-8 -33 -12 -77 -12 -310c0 -244 4 -289 14 -332c8 -35 21 -46 48 -46s40 11 48 47zM117 820h-20v102h20v-102z" />
    <glyph glyph-name="Gcommaaccent" unicode="&#x122;" horiz-adv-x="214" 
d="M156 54l-1 -1c9 40 14 81 14 243c0 48 0 68 -1 79h-80v20h99c2 -24 2 -51 2 -99c0 -166 -5 -207 -14 -247c-11 -47 -29 -62 -67 -62c-39 0 -57 15 -67 62c-11 46 -15 92 -15 336c0 234 4 279 13 315c12 55 31 70 69 70c44 0 65 -26 70 -70c7 -53 9 -90 9 -135
c0 -21 0 -30 -1 -39h-20c1 6 1 13 1 39c0 43 -2 79 -9 132c-4 33 -19 53 -50 53c-27 0 -41 -12 -50 -55c-8 -33 -12 -77 -12 -310c0 -244 4 -289 14 -332c8 -35 21 -46 48 -46s40 11 48 47zM57 -238h-16v4l56 193h21v-4z" />
    <glyph glyph-name="gcommaaccent" unicode="&#x123;" horiz-adv-x="214" 
d="M156 54l-1 -1c9 40 14 81 14 243c0 48 0 68 -1 79h-80v20h99c2 -24 2 -51 2 -99c0 -166 -5 -207 -14 -247c-11 -47 -29 -62 -67 -62c-39 0 -57 15 -67 62c-11 46 -15 92 -15 336c0 234 4 279 13 315c12 55 31 70 69 70c44 0 65 -26 70 -70c7 -53 9 -90 9 -135
c0 -21 0 -30 -1 -39h-20c1 6 1 13 1 39c0 43 -2 79 -9 132c-4 33 -19 53 -50 53c-27 0 -41 -12 -50 -55c-8 -33 -12 -77 -12 -310c0 -244 4 -289 14 -332c8 -35 21 -46 48 -46s40 11 48 47zM57 -238h-16v4l56 193h21v-4z" />
    <glyph glyph-name="Hbar" unicode="&#x126;" horiz-adv-x="230" 
d="M199 0h-20v375h-128v-375h-20v757h20v-160h128v160h20v-757zM179 395v182h-128v-182h128z" />
    <glyph glyph-name="hbar" unicode="&#x127;" horiz-adv-x="230" 
d="M199 0h-20v375h-128v-375h-20v757h20v-160h128v160h20v-757zM179 395v182h-128v-182h128z" />
    <glyph glyph-name="Imacron" unicode="&#x12a;" horiz-adv-x="124" 
d="M72 0h-20v757h20v-757zM142 867h-160v20h160v-20z" />
    <glyph glyph-name="imacron" unicode="&#x12b;" horiz-adv-x="124" 
d="M72 0h-20v757h20v-757zM142 867h-160v20h160v-20z" />
    <glyph glyph-name="Ibreve" unicode="&#x12c;" horiz-adv-x="123" 
d="M72 0h-20v757h20v-757zM108 962h20c0 -113 -4 -129 -13 -146s-21 -27 -53 -27s-44 10 -53 27s-13 33 -13 146h20c0 -113 2 -122 9 -136s13 -17 37 -17s30 3 37 17s9 23 9 136z" />
    <glyph glyph-name="ibreve" unicode="&#x12d;" horiz-adv-x="123" 
d="M72 0h-20v757h20v-757zM108 962h20c0 -113 -4 -129 -13 -146s-21 -27 -53 -27s-44 10 -53 27s-13 33 -13 146h20c0 -113 2 -122 9 -136s13 -17 37 -17s30 3 37 17s9 23 9 136z" />
    <glyph glyph-name="Iogonek" unicode="&#x12e;" horiz-adv-x="86" 
d="M53 -207v-18c-6 -5 -21 -13 -42 -13c-43 0 -61 36 -61 109c0 35 7 69 25 91c15 19 33 29 58 38v757h20v-757c-41 -18 -52 -29 -65 -48c-16 -23 -18 -51 -18 -81c0 -60 12 -89 41 -89c19 0 27 3 38 11h4z" />
    <glyph glyph-name="iogonek" unicode="&#x12f;" horiz-adv-x="86" 
d="M53 -207v-18c-6 -5 -21 -13 -42 -13c-43 0 -61 36 -61 109c0 35 7 69 25 91c15 19 33 29 58 38v757h20v-757c-41 -18 -52 -29 -65 -48c-16 -23 -18 -51 -18 -81c0 -60 12 -89 41 -89c19 0 27 3 38 11h4z" />
    <glyph glyph-name="Idotaccent" unicode="&#x130;" horiz-adv-x="86" 
d="M53 0h-20v757h20v-757zM53 820h-20v102h20v-102z" />
    <glyph glyph-name="dotlessi" unicode="&#x131;" horiz-adv-x="86" 
d="M53 0h-20v757h20v-757z" />
    <glyph glyph-name="IJ" unicode="&#x132;" horiz-adv-x="296" 
d="M53 0h-20v757h20v-757zM248 390v367h20v-367c0 -230 -4 -298 -14 -341c-10 -46 -29 -62 -69 -62c-68 0 -78 74 -78 235c0 48 1 56 2 68h20c-1 -12 -2 -20 -2 -68c0 -147 7 -215 58 -215c28 0 42 12 49 46c10 43 14 110 14 337z" />
    <glyph glyph-name="ij" unicode="&#x133;" horiz-adv-x="296" 
d="M53 0h-20v757h20v-757zM248 390v367h20v-367c0 -230 -4 -298 -14 -341c-10 -46 -29 -62 -69 -62c-68 0 -78 74 -78 235c0 48 1 56 2 68h20c-1 -12 -2 -20 -2 -68c0 -147 7 -215 58 -215c28 0 42 12 49 46c10 43 14 110 14 337z" />
    <glyph glyph-name="Kcommaaccent" unicode="&#x136;" horiz-adv-x="225" 
d="M209 0h-19l-119 360c-8 23 -12 37 -16 51h-4c1 -16 1 -31 1 -54v-357h-20v757h20v-286c0 -20 -1 -37 -1 -52h4c5 14 11 31 18 48l113 290h20v-4l-134 -339l137 -410v-4zM72 -238h-16v4l56 193h21v-4z" />
    <glyph glyph-name="kcommaaccent" unicode="&#x137;" horiz-adv-x="225" 
d="M209 0h-19l-119 360c-8 23 -12 37 -16 51h-4c1 -16 1 -31 1 -54v-357h-20v757h20v-286c0 -20 -1 -37 -1 -52h4c5 14 11 31 18 48l113 290h20v-4l-134 -339l137 -410v-4zM72 -238h-16v4l56 193h21v-4z" />
    <glyph glyph-name="Lacute" unicode="&#x139;" horiz-adv-x="171" 
d="M159 0h-127v757h20v-737h107v-20zM91 789h-16v4l71 169h21v-4z" />
    <glyph glyph-name="lacute" unicode="&#x13a;" horiz-adv-x="171" 
d="M159 0h-127v757h20v-737h107v-20zM91 789h-16v4l71 169h21v-4z" />
    <glyph glyph-name="Lcommaaccent" unicode="&#x13b;" horiz-adv-x="171" 
d="M159 0h-127v757h20v-737h107v-20zM46 -238h-16v4l56 193h21v-4z" />
    <glyph glyph-name="lcommaaccent" unicode="&#x13c;" horiz-adv-x="171" 
d="M159 0h-127v757h20v-737h107v-20zM46 -238h-16v4l56 193h21v-4z" />
    <glyph glyph-name="Lcaron" unicode="&#x13d;" horiz-adv-x="171" 
d="M159 0h-127v757h20v-737h107v-20zM115 591h-16v4l56 193h21v-4z" />
    <glyph glyph-name="lcaron" unicode="&#x13e;" horiz-adv-x="171" 
d="M159 0h-127v757h20v-737h107v-20zM115 591h-16v4l56 193h21v-4z" />
    <glyph glyph-name="Ldot" unicode="&#x13f;" horiz-adv-x="171" 
d="M159 0h-127v757h20v-737h107v-20zM138 341h-20v102h20v-102z" />
    <glyph glyph-name="ldot" unicode="&#x140;" horiz-adv-x="171" 
d="M159 0h-127v757h20v-737h107v-20zM138 341h-20v102h20v-102z" />
    <glyph glyph-name="Lslash" unicode="&#x141;" horiz-adv-x="178" 
d="M156 0h-127v466l-10 -10h-4v24l14 14v263h20v-243l74 75h4v-24l-78 -79v-466h107v-20z" />
    <glyph glyph-name="lslash" unicode="&#x142;" horiz-adv-x="178" 
d="M156 0h-127v466l-10 -10h-4v24l14 14v263h20v-243l74 75h4v-24l-78 -79v-466h107v-20z" />
    <glyph glyph-name="Nacute" unicode="&#x143;" horiz-adv-x="226" 
d="M195 0h-16l-124 723h-4v-723h-20v757h39l88 -520c6 -34 11 -69 15 -102h4c-2 33 -2 75 -2 112v510h20v-757zM119 789h-16v4l71 169h21v-4z" />
    <glyph glyph-name="nacute" unicode="&#x144;" horiz-adv-x="226" 
d="M195 0h-16l-124 723h-4v-723h-20v757h39l88 -520c6 -34 11 -69 15 -102h4c-2 33 -2 75 -2 112v510h20v-757zM119 789h-16v4l71 169h21v-4z" />
    <glyph glyph-name="Ncommaaccent" unicode="&#x145;" horiz-adv-x="226" 
d="M195 0h-16l-124 723h-4v-723h-20v757h39l88 -520c6 -34 11 -69 15 -102h4c-2 33 -2 75 -2 112v510h20v-757zM65 -238h-16v4l56 193h21v-4z" />
    <glyph glyph-name="ncommaaccent" unicode="&#x146;" horiz-adv-x="226" 
d="M195 0h-16l-124 723h-4v-723h-20v757h39l88 -520c6 -34 11 -69 15 -102h4c-2 33 -2 75 -2 112v510h20v-757zM65 -238h-16v4l56 193h21v-4z" />
    <glyph glyph-name="Ncaron" unicode="&#x147;" horiz-adv-x="226" 
d="M195 0h-16l-124 723h-4v-723h-20v757h39l88 -520c6 -34 11 -69 15 -102h4c-2 33 -2 75 -2 112v510h20v-757zM123 789h-20l-60 169v4h20l48 -141h4l48 141h20v-4z" />
    <glyph glyph-name="ncaron" unicode="&#x148;" horiz-adv-x="226" 
d="M195 0h-16l-124 723h-4v-723h-20v757h39l88 -520c6 -34 11 -69 15 -102h4c-2 33 -2 75 -2 112v510h20v-757zM123 789h-20l-60 169v4h20l48 -141h4l48 141h20v-4z" />
    <glyph glyph-name="Eng" unicode="&#x14a;" horiz-adv-x="226" 
d="M87 -229v19h4c8 -5 15 -8 28 -8c23 0 36 5 46 24c9 18 10 39 10 83v134l-120 700h-4v-723h-20v757h39l88 -520c6 -34 11 -69 15 -102h4c-2 33 -2 75 -2 112v510h20v-868c0 -45 -2 -73 -13 -93c-14 -26 -33 -34 -63 -34c-15 0 -25 4 -32 9z" />
    <glyph glyph-name="eng" unicode="&#x14b;" horiz-adv-x="226" 
d="M87 -229v19h4c8 -5 15 -8 28 -8c23 0 36 5 46 24c9 18 10 39 10 83v134l-120 700h-4v-723h-20v757h39l88 -520c6 -34 11 -69 15 -102h4c-2 33 -2 75 -2 112v510h20v-868c0 -45 -2 -73 -13 -93c-14 -26 -33 -34 -63 -34c-15 0 -25 4 -32 9z" />
    <glyph glyph-name="Omacron" unicode="&#x14c;" 
d="M41 49c-11 46 -15 92 -15 330s4 282 15 329c10 46 28 62 67 62c38 0 56 -16 67 -62c10 -47 14 -91 14 -329s-4 -284 -14 -330c-11 -47 -29 -62 -67 -62c-39 0 -57 15 -67 62zM155 53c10 46 14 92 14 326s-3 278 -13 324c-7 35 -21 47 -48 47s-39 -12 -47 -46
c-10 -45 -15 -88 -15 -325c0 -238 4 -283 14 -326c8 -35 21 -46 48 -46s40 11 47 46zM188 867h-160v20h160v-20z" />
    <glyph glyph-name="omacron" unicode="&#x14d;" 
d="M41 49c-11 46 -15 92 -15 330s4 282 15 329c10 46 28 62 67 62c38 0 56 -16 67 -62c10 -47 14 -91 14 -329s-4 -284 -14 -330c-11 -47 -29 -62 -67 -62c-39 0 -57 15 -67 62zM155 53c10 46 14 92 14 326s-3 278 -13 324c-7 35 -21 47 -48 47s-39 -12 -47 -46
c-10 -45 -15 -88 -15 -325c0 -238 4 -283 14 -326c8 -35 21 -46 48 -46s40 11 47 46zM188 867h-160v20h160v-20z" />
    <glyph glyph-name="Obreve" unicode="&#x14e;" 
d="M41 49c-11 46 -15 92 -15 330s4 282 15 329c10 46 28 62 67 62c38 0 56 -16 67 -62c10 -47 14 -91 14 -329s-4 -284 -14 -330c-11 -47 -29 -62 -67 -62c-39 0 -57 15 -67 62zM155 53c10 46 14 92 14 326s-3 278 -13 324c-7 35 -21 47 -48 47s-39 -12 -47 -46
c-10 -45 -15 -88 -15 -325c0 -238 4 -283 14 -326c8 -35 21 -46 48 -46s40 11 47 46zM153 962h20c0 -113 -4 -129 -13 -146s-21 -27 -53 -27s-44 10 -53 27s-13 33 -13 146h20c0 -113 2 -122 9 -136s13 -17 37 -17s30 3 37 17s9 23 9 136z" />
    <glyph glyph-name="obreve" unicode="&#x14f;" 
d="M41 49c-11 46 -15 92 -15 330s4 282 15 329c10 46 28 62 67 62c38 0 56 -16 67 -62c10 -47 14 -91 14 -329s-4 -284 -14 -330c-11 -47 -29 -62 -67 -62c-39 0 -57 15 -67 62zM155 53c10 46 14 92 14 326s-3 278 -13 324c-7 35 -21 47 -48 47s-39 -12 -47 -46
c-10 -45 -15 -88 -15 -325c0 -238 4 -283 14 -326c8 -35 21 -46 48 -46s40 11 47 46zM153 962h20c0 -113 -4 -129 -13 -146s-21 -27 -53 -27s-44 10 -53 27s-13 33 -13 146h20c0 -113 2 -122 9 -136s13 -17 37 -17s30 3 37 17s9 23 9 136z" />
    <glyph glyph-name="Ohungarumlaut" unicode="&#x150;" 
d="M41 49c-11 46 -15 92 -15 330s4 282 15 329c10 46 28 62 67 62c38 0 56 -16 67 -62c10 -47 14 -91 14 -329s-4 -284 -14 -330c-11 -47 -29 -62 -67 -62c-39 0 -57 15 -67 62zM155 53c10 46 14 92 14 326s-3 278 -13 324c-7 35 -21 47 -48 47s-39 -12 -47 -46
c-10 -45 -15 -88 -15 -325c0 -238 4 -283 14 -326c8 -35 21 -46 48 -46s40 11 47 46zM152 789h-16v4l71 169h21v-4zM74 789h-16v4l71 169h21v-4z" />
    <glyph glyph-name="ohungarumlaut" unicode="&#x151;" 
d="M41 49c-11 46 -15 92 -15 330s4 282 15 329c10 46 28 62 67 62c38 0 56 -16 67 -62c10 -47 14 -91 14 -329s-4 -284 -14 -330c-11 -47 -29 -62 -67 -62c-39 0 -57 15 -67 62zM155 53c10 46 14 92 14 326s-3 278 -13 324c-7 35 -21 47 -48 47s-39 -12 -47 -46
c-10 -45 -15 -88 -15 -325c0 -238 4 -283 14 -326c8 -35 21 -46 48 -46s40 11 47 46zM152 789h-16v4l71 169h21v-4zM74 789h-16v4l71 169h21v-4z" />
    <glyph glyph-name="OE" unicode="&#x152;" horiz-adv-x="335" 
d="M305 0h-197c-42 0 -57 13 -68 58c-10 44 -14 77 -14 321c0 229 2 273 15 318c13 46 29 60 67 60h198v-20h-114v-342h112v-20h-112v-355h113v-20zM172 20v717h-64c-27 0 -38 -11 -48 -46c-12 -42 -14 -85 -14 -312c0 -240 4 -273 14 -317c8 -33 18 -42 48 -42h64z" />
    <glyph glyph-name="oe" unicode="&#x153;" horiz-adv-x="335" 
d="M305 0h-197c-42 0 -57 13 -68 58c-10 44 -14 77 -14 321c0 229 2 273 15 318c13 46 29 60 67 60h198v-20h-114v-342h112v-20h-112v-355h113v-20zM172 20v717h-64c-27 0 -38 -11 -48 -46c-12 -42 -14 -85 -14 -312c0 -240 4 -273 14 -317c8 -33 18 -42 48 -42h64z" />
    <glyph glyph-name="Racute" unicode="&#x154;" horiz-adv-x="220" 
d="M198 0h-20c-3 28 -4 41 -10 166c-4 85 -8 129 -12 151c-3 19 -15 29 -45 29h-59v-346h-20v757h91c25 0 41 -11 52 -37c13 -32 17 -86 17 -167c0 -127 -10 -160 -24 -180c-6 -9 -13 -12 -18 -15v-4c11 -3 22 -14 26 -35s8 -64 12 -152c6 -124 7 -139 10 -163v-4zM52 366
h58c23 0 34 4 44 19c13 19 18 45 18 168c0 78 -3 128 -14 156c-8 19 -19 28 -35 28h-71v-371zM112 789h-16v4l71 169h21v-4z" />
    <glyph glyph-name="racute" unicode="&#x155;" horiz-adv-x="220" 
d="M198 0h-20c-3 28 -4 41 -10 166c-4 85 -8 129 -12 151c-3 19 -15 29 -45 29h-59v-346h-20v757h91c25 0 41 -11 52 -37c13 -32 17 -86 17 -167c0 -127 -10 -160 -24 -180c-6 -9 -13 -12 -18 -15v-4c11 -3 22 -14 26 -35s8 -64 12 -152c6 -124 7 -139 10 -163v-4zM52 366
h58c23 0 34 4 44 19c13 19 18 45 18 168c0 78 -3 128 -14 156c-8 19 -19 28 -35 28h-71v-371zM112 789h-16v4l71 169h21v-4z" />
    <glyph glyph-name="Rcommaaccent" unicode="&#x156;" horiz-adv-x="220" 
d="M198 0h-20c-3 28 -4 41 -10 166c-4 85 -8 129 -12 151c-3 19 -15 29 -45 29h-59v-346h-20v757h91c25 0 41 -11 52 -37c13 -32 17 -86 17 -167c0 -127 -10 -160 -24 -180c-6 -9 -13 -12 -18 -15v-4c11 -3 22 -14 26 -35s8 -64 12 -152c6 -124 7 -139 10 -163v-4zM52 366
h58c23 0 34 4 44 19c13 19 18 45 18 168c0 78 -3 128 -14 156c-8 19 -19 28 -35 28h-71v-371zM62 -238h-16v4l56 193h21v-4z" />
    <glyph glyph-name="rcommaaccent" unicode="&#x157;" horiz-adv-x="220" 
d="M198 0h-20c-3 28 -4 41 -10 166c-4 85 -8 129 -12 151c-3 19 -15 29 -45 29h-59v-346h-20v757h91c25 0 41 -11 52 -37c13 -32 17 -86 17 -167c0 -127 -10 -160 -24 -180c-6 -9 -13 -12 -18 -15v-4c11 -3 22 -14 26 -35s8 -64 12 -152c6 -124 7 -139 10 -163v-4zM52 366
h58c23 0 34 4 44 19c13 19 18 45 18 168c0 78 -3 128 -14 156c-8 19 -19 28 -35 28h-71v-371zM62 -238h-16v4l56 193h21v-4z" />
    <glyph glyph-name="Rcaron" unicode="&#x158;" horiz-adv-x="220" 
d="M198 0h-20c-3 28 -4 41 -10 166c-4 85 -8 129 -12 151c-3 19 -15 29 -45 29h-59v-346h-20v757h91c25 0 41 -11 52 -37c13 -32 17 -86 17 -167c0 -127 -10 -160 -24 -180c-6 -9 -13 -12 -18 -15v-4c11 -3 22 -14 26 -35s8 -64 12 -152c6 -124 7 -139 10 -163v-4zM52 366
h58c23 0 34 4 44 19c13 19 18 45 18 168c0 78 -3 128 -14 156c-8 19 -19 28 -35 28h-71v-371zM115 789h-20l-60 169v4h20l48 -141h4l48 141h20v-4z" />
    <glyph glyph-name="rcaron" unicode="&#x159;" horiz-adv-x="220" 
d="M198 0h-20c-3 28 -4 41 -10 166c-4 85 -8 129 -12 151c-3 19 -15 29 -45 29h-59v-346h-20v757h91c25 0 41 -11 52 -37c13 -32 17 -86 17 -167c0 -127 -10 -160 -24 -180c-6 -9 -13 -12 -18 -15v-4c11 -3 22 -14 26 -35s8 -64 12 -152c6 -124 7 -139 10 -163v-4zM52 366
h58c23 0 34 4 44 19c13 19 18 45 18 168c0 78 -3 128 -14 156c-8 19 -19 28 -35 28h-71v-371zM115 789h-20l-60 169v4h20l48 -141h4l48 141h20v-4z" />
    <glyph glyph-name="Sacute" unicode="&#x15a;" horiz-adv-x="203" 
d="M28 253h20c-2 -19 -3 -47 -3 -91c0 -57 3 -91 11 -117c9 -26 20 -38 41 -38c23 0 36 10 45 35c11 28 15 68 15 148c0 103 -4 130 -21 153c-16 24 -45 41 -68 64c-12 12 -23 24 -31 42c-11 25 -13 47 -13 159c0 64 4 101 16 126s29 36 58 36s46 -11 59 -34
c13 -24 18 -56 18 -122c0 -45 -2 -76 -4 -92h-20c2 16 4 47 4 92c0 60 -5 91 -16 112c-8 15 -21 24 -41 24c-21 0 -32 -7 -40 -24c-10 -23 -14 -56 -14 -118c0 -111 2 -130 11 -151c6 -13 18 -27 27 -36c23 -23 51 -41 70 -66c20 -28 25 -53 25 -165c0 -81 -4 -124 -17 -156
c-13 -31 -32 -47 -63 -47c-33 0 -50 15 -61 52c-8 26 -11 61 -11 123c0 45 1 71 3 91zM107 789h-16v4l71 169h21v-4z" />
    <glyph glyph-name="sacute" unicode="&#x15b;" horiz-adv-x="203" 
d="M28 253h20c-2 -19 -3 -47 -3 -91c0 -57 3 -91 11 -117c9 -26 20 -38 41 -38c23 0 36 10 45 35c11 28 15 68 15 148c0 103 -4 130 -21 153c-16 24 -45 41 -68 64c-12 12 -23 24 -31 42c-11 25 -13 47 -13 159c0 64 4 101 16 126s29 36 58 36s46 -11 59 -34
c13 -24 18 -56 18 -122c0 -45 -2 -76 -4 -92h-20c2 16 4 47 4 92c0 60 -5 91 -16 112c-8 15 -21 24 -41 24c-21 0 -32 -7 -40 -24c-10 -23 -14 -56 -14 -118c0 -111 2 -130 11 -151c6 -13 18 -27 27 -36c23 -23 51 -41 70 -66c20 -28 25 -53 25 -165c0 -81 -4 -124 -17 -156
c-13 -31 -32 -47 -63 -47c-33 0 -50 15 -61 52c-8 26 -11 61 -11 123c0 45 1 71 3 91zM107 789h-16v4l71 169h21v-4z" />
    <glyph glyph-name="Scedilla" unicode="&#x15e;" horiz-adv-x="203" 
d="M28 253h20c-2 -19 -3 -47 -3 -91c0 -57 3 -91 11 -117c9 -26 20 -38 41 -38c23 0 36 10 45 35c11 28 15 68 15 148c0 103 -4 130 -21 153c-16 24 -45 41 -68 64c-12 12 -23 24 -31 42c-11 25 -13 47 -13 159c0 64 4 101 16 126s29 36 58 36s46 -11 59 -34
c13 -24 18 -56 18 -122c0 -45 -2 -76 -4 -92h-20c2 16 4 47 4 92c0 60 -5 91 -16 112c-8 15 -21 24 -41 24c-21 0 -32 -7 -40 -24c-10 -23 -14 -56 -14 -118c0 -111 2 -130 11 -151c6 -13 18 -27 27 -36c23 -23 51 -41 70 -66c20 -28 25 -53 25 -165c0 -81 -4 -124 -17 -156
c-13 -31 -32 -47 -63 -47c-33 0 -50 15 -61 52c-8 26 -11 61 -11 123c0 45 1 71 3 91zM50 -238h-16v4l56 193h21v-4z" />
    <glyph glyph-name="scedilla" unicode="&#x15f;" horiz-adv-x="203" 
d="M28 253h20c-2 -19 -3 -47 -3 -91c0 -57 3 -91 11 -117c9 -26 20 -38 41 -38c23 0 36 10 45 35c11 28 15 68 15 148c0 103 -4 130 -21 153c-16 24 -45 41 -68 64c-12 12 -23 24 -31 42c-11 25 -13 47 -13 159c0 64 4 101 16 126s29 36 58 36s46 -11 59 -34
c13 -24 18 -56 18 -122c0 -45 -2 -76 -4 -92h-20c2 16 4 47 4 92c0 60 -5 91 -16 112c-8 15 -21 24 -41 24c-21 0 -32 -7 -40 -24c-10 -23 -14 -56 -14 -118c0 -111 2 -130 11 -151c6 -13 18 -27 27 -36c23 -23 51 -41 70 -66c20 -28 25 -53 25 -165c0 -81 -4 -124 -17 -156
c-13 -31 -32 -47 -63 -47c-33 0 -50 15 -61 52c-8 26 -11 61 -11 123c0 45 1 71 3 91zM50 -238h-16v4l56 193h21v-4z" />
    <glyph glyph-name="Scaron" unicode="&#x160;" horiz-adv-x="203" 
d="M28 253h20c-2 -19 -3 -47 -3 -91c0 -57 3 -91 11 -117c9 -26 20 -38 41 -38c23 0 36 10 45 35c11 28 15 68 15 148c0 103 -4 130 -21 153c-16 24 -45 41 -68 64c-12 12 -23 24 -31 42c-11 25 -13 47 -13 159c0 64 4 101 16 126s29 36 58 36s46 -11 59 -34
c13 -24 18 -56 18 -122c0 -45 -2 -76 -4 -92h-20c2 16 4 47 4 92c0 60 -5 91 -16 112c-8 15 -21 24 -41 24c-21 0 -32 -7 -40 -24c-10 -23 -14 -56 -14 -118c0 -111 2 -130 11 -151c6 -13 18 -27 27 -36c23 -23 51 -41 70 -66c20 -28 25 -53 25 -165c0 -81 -4 -124 -17 -156
c-13 -31 -32 -47 -63 -47c-33 0 -50 15 -61 52c-8 26 -11 61 -11 123c0 45 1 71 3 91zM112 789h-20l-60 169v4h20l48 -141h4l48 141h20v-4z" />
    <glyph glyph-name="scaron" unicode="&#x161;" horiz-adv-x="203" 
d="M28 253h20c-2 -19 -3 -47 -3 -91c0 -57 3 -91 11 -117c9 -26 20 -38 41 -38c23 0 36 10 45 35c11 28 15 68 15 148c0 103 -4 130 -21 153c-16 24 -45 41 -68 64c-12 12 -23 24 -31 42c-11 25 -13 47 -13 159c0 64 4 101 16 126s29 36 58 36s46 -11 59 -34
c13 -24 18 -56 18 -122c0 -45 -2 -76 -4 -92h-20c2 16 4 47 4 92c0 60 -5 91 -16 112c-8 15 -21 24 -41 24c-21 0 -32 -7 -40 -24c-10 -23 -14 -56 -14 -118c0 -111 2 -130 11 -151c6 -13 18 -27 27 -36c23 -23 51 -41 70 -66c20 -28 25 -53 25 -165c0 -81 -4 -124 -17 -156
c-13 -31 -32 -47 -63 -47c-33 0 -50 15 -61 52c-8 26 -11 61 -11 123c0 45 1 71 3 91zM112 789h-20l-60 169v4h20l48 -141h4l48 141h20v-4z" />
    <glyph glyph-name="uni0162" unicode="&#x162;" horiz-adv-x="180" 
d="M101 0h-20v737h-70v20h158v-20h-68v-737zM43 -238h-16v4l56 193h21v-4z" />
    <glyph glyph-name="uni0163" unicode="&#x163;" horiz-adv-x="180" 
d="M101 0h-20v737h-70v20h158v-20h-68v-737zM43 -238h-16v4l56 193h21v-4z" />
    <glyph glyph-name="Tcaron" unicode="&#x164;" horiz-adv-x="180" 
d="M101 0h-20v737h-70v20h158v-20h-68v-737zM100 789h-20l-60 169v4h20l48 -141h4l48 141h20v-4z" />
    <glyph glyph-name="tcaron" unicode="&#x165;" horiz-adv-x="180" 
d="M101 0h-20v737h-70v20h158v-20h-68v-737zM100 789h-20l-60 169v4h20l48 -141h4l48 141h20v-4z" />
    <glyph glyph-name="Tbar" unicode="&#x166;" horiz-adv-x="180" 
d="M101 0h-20v461h-56v20h56v256h-70v20h158v-20h-68v-256h54v-20h-54v-461z" />
    <glyph glyph-name="tbar" unicode="&#x167;" horiz-adv-x="180" 
d="M101 0h-20v461h-56v20h56v256h-70v20h158v-20h-68v-256h54v-20h-54v-461z" />
    <glyph glyph-name="Utilde" unicode="&#x168;" horiz-adv-x="220" 
d="M171 188v569h20v-569c0 -102 -4 -128 -14 -156c-12 -34 -32 -45 -67 -45s-55 11 -67 45c-10 28 -15 54 -15 156v569h20v-569c0 -98 5 -123 14 -149c8 -24 23 -32 48 -32s40 8 48 32c9 26 13 50 13 149zM190 893v-24c-7 -17 -21 -27 -37 -27c-20 0 -35 11 -48 26
s-22 21 -38 21c-10 0 -15 -2 -23 -11c-5 -6 -8 -12 -10 -20h-4v24c7 17 21 27 37 27c21 0 37 -13 51 -29c10 -13 20 -18 35 -18c10 0 15 2 23 11c5 6 8 12 10 20h4z" />
    <glyph glyph-name="utilde" unicode="&#x169;" horiz-adv-x="220" 
d="M171 188v569h20v-569c0 -102 -4 -128 -14 -156c-12 -34 -32 -45 -67 -45s-55 11 -67 45c-10 28 -15 54 -15 156v569h20v-569c0 -98 5 -123 14 -149c8 -24 23 -32 48 -32s40 8 48 32c9 26 13 50 13 149zM190 893v-24c-7 -17 -21 -27 -37 -27c-20 0 -35 11 -48 26
s-22 21 -38 21c-10 0 -15 -2 -23 -11c-5 -6 -8 -12 -10 -20h-4v24c7 17 21 27 37 27c21 0 37 -13 51 -29c10 -13 20 -18 35 -18c10 0 15 2 23 11c5 6 8 12 10 20h4z" />
    <glyph glyph-name="Umacron" unicode="&#x16a;" horiz-adv-x="220" 
d="M171 188v569h20v-569c0 -102 -4 -128 -14 -156c-12 -34 -32 -45 -67 -45s-55 11 -67 45c-10 28 -15 54 -15 156v569h20v-569c0 -98 5 -123 14 -149c8 -24 23 -32 48 -32s40 8 48 32c9 26 13 50 13 149zM190 867h-160v20h160v-20z" />
    <glyph glyph-name="umacron" unicode="&#x16b;" horiz-adv-x="220" 
d="M171 188v569h20v-569c0 -102 -4 -128 -14 -156c-12 -34 -32 -45 -67 -45s-55 11 -67 45c-10 28 -15 54 -15 156v569h20v-569c0 -98 5 -123 14 -149c8 -24 23 -32 48 -32s40 8 48 32c9 26 13 50 13 149zM190 867h-160v20h160v-20z" />
    <glyph glyph-name="Ubreve" unicode="&#x16c;" horiz-adv-x="220" 
d="M171 188v569h20v-569c0 -102 -4 -128 -14 -156c-12 -34 -32 -45 -67 -45s-55 11 -67 45c-10 28 -15 54 -15 156v569h20v-569c0 -98 5 -123 14 -149c8 -24 23 -32 48 -32s40 8 48 32c9 26 13 50 13 149zM156 962h20c0 -113 -4 -129 -13 -146s-21 -27 -53 -27
s-44 10 -53 27s-13 33 -13 146h20c0 -113 2 -122 9 -136s13 -17 37 -17s30 3 37 17s9 23 9 136z" />
    <glyph glyph-name="ubreve" unicode="&#x16d;" horiz-adv-x="220" 
d="M171 188v569h20v-569c0 -102 -4 -128 -14 -156c-12 -34 -32 -45 -67 -45s-55 11 -67 45c-10 28 -15 54 -15 156v569h20v-569c0 -98 5 -123 14 -149c8 -24 23 -32 48 -32s40 8 48 32c9 26 13 50 13 149zM156 962h20c0 -113 -4 -129 -13 -146s-21 -27 -53 -27
s-44 10 -53 27s-13 33 -13 146h20c0 -113 2 -122 9 -136s13 -17 37 -17s30 3 37 17s9 23 9 136z" />
    <glyph glyph-name="Uring" unicode="&#x16e;" horiz-adv-x="220" 
d="M171 188v569h20v-569c0 -102 -4 -128 -14 -156c-12 -34 -32 -45 -67 -45s-55 11 -67 45c-10 28 -15 54 -15 156v569h20v-569c0 -98 5 -123 14 -149c8 -24 23 -32 48 -32s40 8 48 32c9 26 13 50 13 149zM144 790c-6 -11 -13 -15 -34 -15s-28 4 -34 15s-8 19 -8 79
s2 67 8 78s13 15 34 15s28 -4 34 -15s8 -18 8 -78s-2 -68 -8 -79zM128 801c3 6 4 10 4 68s-1 61 -4 67c-3 5 -6 6 -18 6s-15 -1 -18 -6c-3 -6 -4 -9 -4 -67s1 -62 4 -68c3 -5 6 -6 18 -6s15 1 18 6z" />
    <glyph glyph-name="uring" unicode="&#x16f;" horiz-adv-x="220" 
d="M171 188v569h20v-569c0 -102 -4 -128 -14 -156c-12 -34 -32 -45 -67 -45s-55 11 -67 45c-10 28 -15 54 -15 156v569h20v-569c0 -98 5 -123 14 -149c8 -24 23 -32 48 -32s40 8 48 32c9 26 13 50 13 149zM144 790c-6 -11 -13 -15 -34 -15s-28 4 -34 15s-8 19 -8 79
s2 67 8 78s13 15 34 15s28 -4 34 -15s8 -18 8 -78s-2 -68 -8 -79zM128 801c3 6 4 10 4 68s-1 61 -4 67c-3 5 -6 6 -18 6s-15 -1 -18 -6c-3 -6 -4 -9 -4 -67s1 -62 4 -68c3 -5 6 -6 18 -6s15 1 18 6z" />
    <glyph glyph-name="Uhungarumlaut" unicode="&#x170;" horiz-adv-x="220" 
d="M171 188v569h20v-569c0 -102 -4 -128 -14 -156c-12 -34 -32 -45 -67 -45s-55 11 -67 45c-10 28 -15 54 -15 156v569h20v-569c0 -98 5 -123 14 -149c8 -24 23 -32 48 -32s40 8 48 32c9 26 13 50 13 149zM155 789h-16v4l71 169h21v-4zM77 789h-16v4l71 169h21v-4z" />
    <glyph glyph-name="uhungarumlaut" unicode="&#x171;" horiz-adv-x="220" 
d="M171 188v569h20v-569c0 -102 -4 -128 -14 -156c-12 -34 -32 -45 -67 -45s-55 11 -67 45c-10 28 -15 54 -15 156v569h20v-569c0 -98 5 -123 14 -149c8 -24 23 -32 48 -32s40 8 48 32c9 26 13 50 13 149zM155 789h-16v4l71 169h21v-4zM77 789h-16v4l71 169h21v-4z" />
    <glyph glyph-name="Uogonek" unicode="&#x172;" horiz-adv-x="220" 
d="M160 -207v-18c-6 -5 -21 -13 -42 -13c-43 0 -61 36 -61 109c0 35 7 69 25 91c8 11 17 19 28 25c-35 0 -55 11 -67 45c-10 28 -15 54 -15 156v569h20v-569c0 -98 5 -123 14 -149c8 -24 23 -32 48 -32s40 8 48 32c9 26 13 50 13 149v569h20v-569c0 -102 -4 -128 -14 -156
c-7 -21 -18 -32 -32 -39c-29 -14 -39 -24 -50 -41c-16 -23 -18 -51 -18 -81c0 -60 12 -89 41 -89c19 0 27 3 38 11h4z" />
    <glyph glyph-name="uogonek" unicode="&#x173;" horiz-adv-x="220" 
d="M160 -207v-18c-6 -5 -21 -13 -42 -13c-43 0 -61 36 -61 109c0 35 7 69 25 91c8 11 17 19 28 25c-35 0 -55 11 -67 45c-10 28 -15 54 -15 156v569h20v-569c0 -98 5 -123 14 -149c8 -24 23 -32 48 -32s40 8 48 32c9 26 13 50 13 149v569h20v-569c0 -102 -4 -128 -14 -156
c-7 -21 -18 -32 -32 -39c-29 -14 -39 -24 -50 -41c-16 -23 -18 -51 -18 -81c0 -60 12 -89 41 -89c19 0 27 3 38 11h4z" />
    <glyph glyph-name="Wcircumflex" unicode="&#x174;" horiz-adv-x="322" 
d="M246 0h-36l-44 577c-2 27 -3 47 -3 61h-4c0 -14 -1 -34 -3 -61l-44 -577h-36l-54 757h20l46 -676c2 -25 4 -40 4 -57h4c0 17 2 32 4 57l52 676h18l52 -676c2 -26 4 -40 4 -57h4c0 17 2 32 4 57l46 676h20zM231 789h-20l-48 141h-4l-48 -141h-20v4l60 169h20l60 -169v-4z
" />
    <glyph glyph-name="wcircumflex" unicode="&#x175;" horiz-adv-x="322" 
d="M246 0h-36l-44 577c-2 27 -3 47 -3 61h-4c0 -14 -1 -34 -3 -61l-44 -577h-36l-54 757h20l46 -676c2 -25 4 -40 4 -57h4c0 17 2 32 4 57l52 676h18l52 -676c2 -26 4 -40 4 -57h4c0 17 2 32 4 57l46 676h20zM231 789h-20l-48 141h-4l-48 -141h-20v4l60 169h20l60 -169v-4z
" />
    <glyph glyph-name="Ycircumflex" unicode="&#x176;" horiz-adv-x="203" 
d="M111 0h-20v385l-77 368v4h20l55 -274c4 -22 8 -43 10 -59h4c2 16 6 37 10 59l56 274h20v-4l-78 -368v-385zM172 789h-20l-48 141h-4l-48 -141h-20v4l60 169h20l60 -169v-4z" />
    <glyph glyph-name="ycircumflex" unicode="&#x177;" horiz-adv-x="203" 
d="M111 0h-20v385l-77 368v4h20l55 -274c4 -22 8 -43 10 -59h4c2 16 6 37 10 59l56 274h20v-4l-78 -368v-385zM172 789h-20l-48 141h-4l-48 -141h-20v4l60 169h20l60 -169v-4z" />
    <glyph glyph-name="Ydieresis" unicode="&#x178;" horiz-adv-x="203" 
d="M111 0h-20v385l-77 368v4h20l55 -274c4 -22 8 -43 10 -59h4c2 16 6 37 10 59l56 274h20v-4l-78 -368v-385zM156 820h-20v102h20v-102zM66 820h-20v102h20v-102z" />
    <glyph glyph-name="Zacute" unicode="&#x179;" horiz-adv-x="216" 
d="M193 0h-170v24l152 710l-2 3h-147v20h170v-12l-153 -722l1 -3h149v-20zM117 789h-16v4l71 169h21v-4z" />
    <glyph glyph-name="zacute" unicode="&#x17a;" horiz-adv-x="216" 
d="M193 0h-170v24l152 710l-2 3h-147v20h170v-12l-153 -722l1 -3h149v-20zM117 789h-16v4l71 169h21v-4z" />
    <glyph glyph-name="Zdotaccent" unicode="&#x17b;" horiz-adv-x="216" 
d="M193 0h-170v24l152 710l-2 3h-147v20h170v-12l-153 -722l1 -3h149v-20zM121 820h-20v102h20v-102z" />
    <glyph glyph-name="zdotaccent" unicode="&#x17c;" horiz-adv-x="216" 
d="M193 0h-170v24l152 710l-2 3h-147v20h170v-12l-153 -722l1 -3h149v-20zM121 820h-20v102h20v-102z" />
    <glyph glyph-name="Zcaron" unicode="&#x17d;" horiz-adv-x="216" 
d="M193 0h-170v24l152 710l-2 3h-147v20h170v-12l-153 -722l1 -3h149v-20zM122 789h-20l-60 169v4h20l48 -141h4l48 141h20v-4z" />
    <glyph glyph-name="zcaron" unicode="&#x17e;" horiz-adv-x="216" 
d="M193 0h-170v24l152 710l-2 3h-147v20h170v-12l-153 -722l1 -3h149v-20zM122 789h-20l-60 169v4h20l48 -141h4l48 141h20v-4z" />
    <glyph glyph-name="florin" unicode="&#x192;" 
d="M30 -237v20c17 1 27 7 36 23c9 18 10 39 10 83v651h-32v20h32v114c0 45 2 73 13 93c14 26 33 34 63 34c15 0 25 -4 32 -9v-19h-4c-8 5 -15 8 -28 8c-23 0 -36 -5 -46 -24c-9 -18 -10 -39 -10 -83v-114h86v-20h-86v-651c0 -45 -2 -73 -13 -93c-13 -23 -29 -31 -53 -33z
" />
    <glyph glyph-name="Scommaaccent" unicode="&#x218;" horiz-adv-x="203" 
d="M28 253h20c-2 -19 -3 -47 -3 -91c0 -57 3 -91 11 -117c9 -26 20 -38 41 -38c23 0 36 10 45 35c11 28 15 68 15 148c0 103 -4 130 -21 153c-16 24 -45 41 -68 64c-12 12 -23 24 -31 42c-11 25 -13 47 -13 159c0 64 4 101 16 126s29 36 58 36s46 -11 59 -34
c13 -24 18 -56 18 -122c0 -45 -2 -76 -4 -92h-20c2 16 4 47 4 92c0 60 -5 91 -16 112c-8 15 -21 24 -41 24c-21 0 -32 -7 -40 -24c-10 -23 -14 -56 -14 -118c0 -111 2 -130 11 -151c6 -13 18 -27 27 -36c23 -23 51 -41 70 -66c20 -28 25 -53 25 -165c0 -81 -4 -124 -17 -156
c-13 -31 -32 -47 -63 -47c-33 0 -50 15 -61 52c-8 26 -11 61 -11 123c0 45 1 71 3 91zM50 -238h-16v4l56 193h21v-4z" />
    <glyph glyph-name="scommaaccent" unicode="&#x219;" horiz-adv-x="203" 
d="M28 253h20c-2 -19 -3 -47 -3 -91c0 -57 3 -91 11 -117c9 -26 20 -38 41 -38c23 0 36 10 45 35c11 28 15 68 15 148c0 103 -4 130 -21 153c-16 24 -45 41 -68 64c-12 12 -23 24 -31 42c-11 25 -13 47 -13 159c0 64 4 101 16 126s29 36 58 36s46 -11 59 -34
c13 -24 18 -56 18 -122c0 -45 -2 -76 -4 -92h-20c2 16 4 47 4 92c0 60 -5 91 -16 112c-8 15 -21 24 -41 24c-21 0 -32 -7 -40 -24c-10 -23 -14 -56 -14 -118c0 -111 2 -130 11 -151c6 -13 18 -27 27 -36c23 -23 51 -41 70 -66c20 -28 25 -53 25 -165c0 -81 -4 -124 -17 -156
c-13 -31 -32 -47 -63 -47c-33 0 -50 15 -61 52c-8 26 -11 61 -11 123c0 45 1 71 3 91zM50 -238h-16v4l56 193h21v-4z" />
    <glyph glyph-name="uni021A" unicode="&#x21a;" horiz-adv-x="180" 
d="M101 0h-20v737h-70v20h158v-20h-68v-737zM43 -238h-16v4l56 193h21v-4z" />
    <glyph glyph-name="uni021B" unicode="&#x21b;" horiz-adv-x="180" 
d="M101 0h-20v737h-70v20h158v-20h-68v-737zM43 -238h-16v4l56 193h21v-4z" />
    <glyph glyph-name="circumflex" unicode="&#x2c6;" horiz-adv-x="204" 
d="M172 592h-20l-48 141h-4l-48 -141h-20v4l60 169h20l60 -169v-4z" />
    <glyph glyph-name="caron" unicode="&#x2c7;" horiz-adv-x="204" 
d="M112 592h-20l-60 169v4h20l48 -141h4l48 141h20v-4z" />
    <glyph glyph-name="breve" unicode="&#x2d8;" horiz-adv-x="196" 
d="M144 765h20c0 -113 -4 -129 -13 -146s-21 -27 -53 -27s-44 10 -53 27s-13 33 -13 146h20c0 -113 2 -122 9 -136s13 -17 37 -17s30 3 37 17s9 23 9 136z" />
    <glyph glyph-name="dotaccent" unicode="&#x2d9;" horiz-adv-x="84" 
d="M52 623h-20v102h20v-102z" />
    <glyph glyph-name="ring" unicode="&#x2da;" horiz-adv-x="148" 
d="M108 593c-6 -11 -13 -15 -34 -15s-28 4 -34 15s-8 19 -8 79s2 67 8 78s13 15 34 15s28 -4 34 -15s8 -18 8 -78s-2 -68 -8 -79zM92 604c3 6 4 10 4 68s-1 61 -4 67c-3 5 -6 6 -18 6s-15 -1 -18 -6c-3 -6 -4 -9 -4 -67s1 -62 4 -68c3 -5 6 -6 18 -6s15 1 18 6z" />
    <glyph glyph-name="ogonek" unicode="&#x2db;" horiz-adv-x="167" 
d="M135 -207v-18c-6 -5 -21 -13 -42 -13c-43 0 -61 36 -61 109c0 35 7 69 25 91c15 19 33 29 58 38h20c-41 -18 -52 -29 -65 -48c-16 -23 -18 -51 -18 -81c0 -60 12 -89 41 -89c19 0 27 3 38 11h4z" />
    <glyph glyph-name="tilde" unicode="&#x2dc;" horiz-adv-x="224" 
d="M192 696v-24c-7 -17 -21 -27 -37 -27c-20 0 -35 11 -48 26s-22 21 -38 21c-10 0 -15 -2 -23 -11c-5 -6 -8 -12 -10 -20h-4v24c7 17 21 27 37 27c21 0 37 -13 51 -29c10 -13 20 -18 35 -18c10 0 15 2 23 11c5 6 8 12 10 20h4z" />
    <glyph glyph-name="hungarumlaut" unicode="&#x2dd;" horiz-adv-x="234" 
d="M137 592h-16v4l71 169h21v-4zM59 592h-16v4l71 169h21v-4z" />
    <glyph glyph-name="Delta" unicode="&#x394;" 
d="M193 0h-172l73 757h31zM171 20l-60 665h-4l-64 -665h128z" />
    <glyph glyph-name="Omega" unicode="&#x3a9;" 
d="M187 0h-71v14c33 66 54 158 54 488c0 154 -2 199 -10 223c-5 16 -15 25 -53 25s-48 -9 -53 -25c-8 -24 -10 -69 -10 -223c0 -330 21 -422 54 -488v-14h-71v20h51l1 2c-31 63 -55 142 -55 480c0 157 2 204 11 230c8 25 22 38 72 38s64 -13 72 -38c9 -26 11 -73 11 -230
c0 -338 -24 -417 -55 -480l1 -2h51v-20z" />
    <glyph glyph-name="mu" unicode="&#x3bc;" 
d="M50 -238h-20v798h20v-448c0 -73 11 -105 53 -105c23 0 36 9 46 22c8 11 12 19 16 33v498h20v-560h-19l-1 19l-2 1c-11 -18 -29 -33 -61 -33c-23 0 -38 10 -48 23h-4v-248z" />
    <glyph glyph-name="pi" unicode="&#x3c0;" horiz-adv-x="263" 
d="M237 24v-20c-6 -7 -17 -17 -50 -17c-21 0 -36 9 -45 26c-7 13 -8 29 -8 60v467h-82v-540h-20v560h122v-487c0 -31 1 -42 6 -51c6 -10 13 -15 31 -15c24 0 33 6 42 17h4z" />
    <glyph glyph-name="Wgrave" unicode="&#x1e80;" horiz-adv-x="322" 
d="M246 0h-36l-44 577c-2 27 -3 47 -3 61h-4c0 -14 -1 -34 -3 -61l-44 -577h-36l-54 757h20l46 -676c2 -25 4 -40 4 -57h4c0 17 2 32 4 57l52 676h18l52 -676c2 -26 4 -40 4 -57h4c0 17 2 32 4 57l46 676h20zM171 789h-16l-76 169v4h21l71 -169v-4z" />
    <glyph glyph-name="wgrave" unicode="&#x1e81;" horiz-adv-x="322" 
d="M246 0h-36l-44 577c-2 27 -3 47 -3 61h-4c0 -14 -1 -34 -3 -61l-44 -577h-36l-54 757h20l46 -676c2 -25 4 -40 4 -57h4c0 17 2 32 4 57l52 676h18l52 -676c2 -26 4 -40 4 -57h4c0 17 2 32 4 57l46 676h20zM171 789h-16l-76 169v4h21l71 -169v-4z" />
    <glyph glyph-name="Wacute" unicode="&#x1e82;" horiz-adv-x="322" 
d="M246 0h-36l-44 577c-2 27 -3 47 -3 61h-4c0 -14 -1 -34 -3 -61l-44 -577h-36l-54 757h20l46 -676c2 -25 4 -40 4 -57h4c0 17 2 32 4 57l52 676h18l52 -676c2 -26 4 -40 4 -57h4c0 17 2 32 4 57l46 676h20zM167 789h-16v4l71 169h21v-4z" />
    <glyph glyph-name="wacute" unicode="&#x1e83;" horiz-adv-x="322" 
d="M246 0h-36l-44 577c-2 27 -3 47 -3 61h-4c0 -14 -1 -34 -3 -61l-44 -577h-36l-54 757h20l46 -676c2 -25 4 -40 4 -57h4c0 17 2 32 4 57l52 676h18l52 -676c2 -26 4 -40 4 -57h4c0 17 2 32 4 57l46 676h20zM167 789h-16v4l71 169h21v-4z" />
    <glyph glyph-name="Wdieresis" unicode="&#x1e84;" horiz-adv-x="322" 
d="M246 0h-36l-44 577c-2 27 -3 47 -3 61h-4c0 -14 -1 -34 -3 -61l-44 -577h-36l-54 757h20l46 -676c2 -25 4 -40 4 -57h4c0 17 2 32 4 57l52 676h18l52 -676c2 -26 4 -40 4 -57h4c0 17 2 32 4 57l46 676h20zM216 820h-20v102h20v-102zM126 820h-20v102h20v-102z" />
    <glyph glyph-name="wdieresis" unicode="&#x1e85;" horiz-adv-x="322" 
d="M246 0h-36l-44 577c-2 27 -3 47 -3 61h-4c0 -14 -1 -34 -3 -61l-44 -577h-36l-54 757h20l46 -676c2 -25 4 -40 4 -57h4c0 17 2 32 4 57l52 676h18l52 -676c2 -26 4 -40 4 -57h4c0 17 2 32 4 57l46 676h20zM216 820h-20v102h20v-102zM126 820h-20v102h20v-102z" />
    <glyph glyph-name="Ygrave" unicode="&#x1ef2;" horiz-adv-x="203" 
d="M111 0h-20v385l-77 368v4h20l55 -274c4 -22 8 -43 10 -59h4c2 16 6 37 10 59l56 274h20v-4l-78 -368v-385zM112 789h-16l-76 169v4h21l71 -169v-4z" />
    <glyph glyph-name="ygrave" unicode="&#x1ef3;" horiz-adv-x="203" 
d="M111 0h-20v385l-77 368v4h20l55 -274c4 -22 8 -43 10 -59h4c2 16 6 37 10 59l56 274h20v-4l-78 -368v-385zM112 789h-16l-76 169v4h21l71 -169v-4z" />
    <glyph glyph-name="endash" unicode="&#x2013;" horiz-adv-x="254" 
d="M229 372h-204v20h204v-20z" />
    <glyph glyph-name="emdash" unicode="&#x2014;" horiz-adv-x="340" 
d="M315 372h-290v20h290v-20z" />
    <glyph glyph-name="quoteleft" unicode="&#x2018;" horiz-adv-x="87" 
d="M55 545h-23v97l14 146h9v-4l-10 -145l2 -3h8v-91z" />
    <glyph glyph-name="quoteright" unicode="&#x2019;" horiz-adv-x="87" 
d="M41 545h-9v4l10 145l-2 3h-8v91h23v-97z" />
    <glyph glyph-name="quotesinglbase" unicode="&#x201a;" horiz-adv-x="87" 
d="M41 -142h-9v4l10 145l-2 3h-8v91h23v-97z" />
    <glyph glyph-name="quotedblleft" unicode="&#x201c;" horiz-adv-x="174" 
d="M55 545h-23v97l14 146h9v-4l-10 -145l2 -3h8v-91zM142 545h-23v97l14 146h9v-4l-10 -145l2 -3h8v-91z" />
    <glyph glyph-name="quotedblright" unicode="&#x201d;" horiz-adv-x="174" 
d="M41 545h-9v4l10 145l-2 3h-8v91h23v-97zM128 545h-9v4l10 145l-2 3h-8v91h23v-97z" />
    <glyph glyph-name="quotedblbase" unicode="&#x201e;" horiz-adv-x="174" 
d="M41 -142h-9v4l10 145l-2 3h-8v91h23v-97zM128 -142h-9v4l10 145l-2 3h-8v91h23v-97z" />
    <glyph glyph-name="dagger" unicode="&#x2020;" horiz-adv-x="280" 
d="M144 0h-9l-5 114v476h-98v20h98v147h20v-147h98v-20h-98v-476z" />
    <glyph glyph-name="daggerdbl" unicode="&#x2021;" horiz-adv-x="280" 
d="M150 0h-20v147h-98v20h98v117l5 95l-5 94v117h-98v20h98v147h20v-147h98v-20h-98v-117l-6 -94l6 -95v-117h98v-20h-98v-147z" />
    <glyph glyph-name="bullet" unicode="&#x2022;" horiz-adv-x="170" 
d="M129 318c-7 -8 -19 -11 -44 -11s-37 3 -44 11c-6 7 -9 16 -9 56c0 41 2 49 9 57s19 10 44 10s37 -2 44 -10s9 -16 9 -57c0 -40 -2 -48 -9 -56z" />
    <glyph glyph-name="ellipsis" unicode="&#x2026;" horiz-adv-x="241" 
d="M57 0h-20v101h20v-101zM130 0h-20v101h20v-101zM203 0h-20v101h20v-101z" />
    <glyph glyph-name="perthousand" unicode="&#x2030;" horiz-adv-x="351" 
d="M98 366c-7 -22 -20 -25 -40 -25s-33 3 -40 25c-9 26 -10 80 -10 192s2 167 11 193c7 22 19 24 39 24s32 -2 39 -24c9 -26 11 -81 11 -193s-1 -166 -10 -192zM79 372c8 23 9 76 9 186c0 109 -2 162 -10 186c-3 10 -9 11 -20 11s-17 -1 -20 -11c-8 -24 -10 -77 -10 -186
c0 -110 1 -163 9 -186c3 -10 10 -11 21 -11s17 1 21 11zM33 0h-19v4l192 753h20v-4zM223 8c-7 -22 -20 -25 -40 -25s-33 3 -40 25c-9 26 -10 80 -10 192s2 167 11 193c7 22 19 24 39 24s32 -2 39 -24c9 -26 11 -81 11 -193s-1 -166 -10 -192zM204 14c8 23 9 76 9 186
c0 109 -2 162 -10 186c-3 10 -9 11 -20 11s-17 -1 -20 -11c-8 -24 -10 -77 -10 -186c0 -110 1 -163 9 -186c3 -10 10 -11 21 -11s17 1 21 11zM333 8c-7 -22 -20 -25 -40 -25s-33 3 -40 25c-9 26 -10 80 -10 192s2 167 11 193c7 22 19 24 39 24s32 -2 39 -24
c9 -26 11 -81 11 -193s-1 -166 -10 -192zM314 14c8 23 9 76 9 186c0 109 -2 162 -10 186c-3 10 -9 11 -20 11s-17 -1 -20 -11c-8 -24 -10 -77 -10 -186c0 -110 1 -163 9 -186c3 -10 10 -11 21 -11s17 1 21 11z" />
    <glyph glyph-name="minute" unicode="&#x2032;" horiz-adv-x="113" 
d="M37 484h-17l53 304h20z" />
    <glyph glyph-name="second" unicode="&#x2033;" horiz-adv-x="183" 
d="M107 484h-17l53 304h20zM37 484h-17l53 304h20z" />
    <glyph glyph-name="guilsinglleft" unicode="&#x2039;" horiz-adv-x="134" 
d="M108 235h-4l-79 138v13l79 138h4v-33l-64 -110v-4l64 -109v-33z" />
    <glyph glyph-name="guilsinglright" unicode="&#x203a;" horiz-adv-x="134" 
d="M29 235h-4v33l64 109v4l-64 110v33h4l79 -138v-13z" />
    <glyph glyph-name="fraction" unicode="&#x2044;" horiz-adv-x="69" 
d="M-53 0h-19v4l192 753h20v-4z" />
    <glyph glyph-name="zerosuperior" unicode="&#x2070;" horiz-adv-x="148" 
d="M113 366c-7 -22 -20 -25 -40 -25s-33 3 -40 25c-9 26 -10 80 -10 192s2 167 11 193c7 22 19 24 39 24s32 -2 39 -24c9 -26 11 -81 11 -193s-1 -166 -10 -192zM94 372c8 23 9 76 9 186c0 109 -2 162 -10 186c-3 10 -9 11 -20 11s-17 -1 -20 -11c-8 -24 -10 -77 -10 -186
c0 -110 1 -163 9 -186c3 -10 10 -11 21 -11s17 1 21 11z" />
    <glyph glyph-name="foursuperior" unicode="&#x2074;" horiz-adv-x="148" 
d="M111 348h-20v96h-70v21l62 302h28v-303h14v-20h-14v-96zM91 464v233h-4l-47 -233h51z" />
    <glyph glyph-name="fivesuperior" unicode="&#x2075;" horiz-adv-x="148" 
d="M24 515h20c-1 -11 -1 -29 -1 -42c0 -98 8 -109 27 -109c27 0 32 11 32 154c0 98 -5 103 -26 103c-12 0 -20 -9 -26 -28l-23 5l6 169h87v-20h-68l-5 -124l3 -1c6 14 17 19 32 19c32 0 40 -15 40 -123c0 -155 -8 -177 -52 -177c-36 0 -47 23 -47 132c0 13 0 30 1 42z" />
    <glyph glyph-name="sixsuperior" unicode="&#x2076;" horiz-adv-x="148" 
d="M120 644h-20c1 13 1 20 1 30c0 65 -3 81 -28 81s-30 -16 -30 -152l3 -2c6 7 16 13 33 13c36 0 44 -31 44 -124c0 -134 -9 -149 -50 -149c-39 0 -50 14 -50 217c0 199 2 217 50 217c38 0 48 -9 48 -101c0 -10 0 -17 -1 -30zM43 565c0 -192 6 -204 30 -204
c26 0 30 6 30 129c0 63 -3 104 -29 104c-12 0 -23 -5 -31 -29z" />
    <glyph glyph-name="sevensuperior" unicode="&#x2077;" horiz-adv-x="148" 
d="M60 348h-19l61 396l-2 3h-77v20h99v-14z" />
    <glyph glyph-name="eightsuperior" unicode="&#x2078;" horiz-adv-x="148" 
d="M41 566c-11 10 -16 15 -16 90c0 103 7 119 48 119s48 -16 48 -119c0 -75 -5 -80 -16 -90c14 -10 19 -30 19 -102c0 -92 -7 -123 -51 -123s-51 31 -51 123c0 72 5 92 19 102zM73 361c23 0 31 15 31 103c0 86 -4 91 -31 91s-31 -5 -31 -91c0 -88 8 -103 31 -103zM73 575
c25 0 28 4 28 81c0 87 -6 99 -28 99s-28 -12 -28 -99c0 -77 3 -81 28 -81z" />
    <glyph glyph-name="ninesuperior" unicode="&#x2079;" horiz-adv-x="148" 
d="M68 348l-23 1v4c23 54 40 108 47 156l-3 2c-5 -3 -13 -7 -21 -7c-41 0 -45 29 -45 135c0 116 9 136 50 136c40 0 50 -13 50 -139c0 -108 -17 -182 -55 -288zM98 542c3 25 5 52 5 94c0 92 -3 119 -30 119s-30 -27 -30 -116c0 -90 3 -115 25 -115c16 0 26 6 30 18z" />
    <glyph glyph-name="zeroinferior" unicode="&#x2080;" horiz-adv-x="148" 
d="M113 8c-7 -22 -20 -25 -40 -25s-33 3 -40 25c-9 26 -10 80 -10 192s2 167 11 193c7 22 19 24 39 24s32 -2 39 -24c9 -26 11 -81 11 -193s-1 -166 -10 -192zM94 14c8 23 9 76 9 186c0 109 -2 162 -10 186c-3 10 -9 11 -20 11s-17 -1 -20 -11c-8 -24 -10 -77 -10 -186
c0 -110 1 -163 9 -186c3 -10 10 -11 21 -11s17 1 21 11z" />
    <glyph glyph-name="oneinferior" unicode="&#x2081;" horiz-adv-x="148" 
d="M120 -10h-93v20h36v314h-36v20h26c9 0 12 4 12 17l1 48h17v-399h37v-20z" />
    <glyph glyph-name="twoinferior" unicode="&#x2082;" horiz-adv-x="148" 
d="M123 -10h-101v23l51 113c23 52 33 85 33 152c0 98 -11 119 -31 119c-23 0 -29 -22 -29 -106c0 -19 0 -34 1 -47h-20c-1 13 -1 28 -1 47c0 95 7 126 49 126c37 0 50 -25 50 -139c0 -66 -3 -93 -34 -160l-50 -108h82v-20z" />
    <glyph glyph-name="threeinferior" unicode="&#x2083;" horiz-adv-x="148" 
d="M24 143h20c-1 -9 -1 -19 -1 -28c0 -85 6 -112 29 -112c26 0 31 27 31 103c0 82 -6 92 -30 92h-29v20h29c24 0 28 5 28 80c0 84 -7 99 -29 99c-21 0 -29 -21 -29 -107c0 -6 0 -13 1 -23h-20c-1 10 -1 17 -1 23c0 100 10 127 49 127c41 0 49 -16 49 -119
c0 -64 -3 -78 -15 -89c16 -16 17 -30 17 -103c0 -92 -7 -123 -51 -123c-43 0 -49 42 -49 132c0 9 0 19 1 28z" />
    <glyph glyph-name="fourinferior" unicode="&#x2084;" horiz-adv-x="148" 
d="M111 -10h-20v96h-70v21l62 302h28v-303h14v-20h-14v-96zM91 106v233h-4l-47 -233h51z" />
    <glyph glyph-name="fiveinferior" unicode="&#x2085;" horiz-adv-x="148" 
d="M24 157h20c-1 -11 -1 -29 -1 -42c0 -98 8 -109 27 -109c27 0 32 11 32 154c0 98 -5 103 -26 103c-12 0 -20 -9 -26 -28l-23 5l6 169h87v-20h-68l-5 -124l3 -1c6 14 17 19 32 19c32 0 40 -15 40 -123c0 -155 -8 -177 -52 -177c-36 0 -47 23 -47 132c0 13 0 30 1 42z" />
    <glyph glyph-name="sixinferior" unicode="&#x2086;" horiz-adv-x="148" 
d="M120 286h-20c1 13 1 20 1 30c0 65 -3 81 -28 81s-30 -16 -30 -152l3 -2c6 7 16 13 33 13c36 0 44 -31 44 -124c0 -134 -9 -149 -50 -149c-39 0 -50 14 -50 217c0 199 2 217 50 217c38 0 48 -9 48 -101c0 -10 0 -17 -1 -30zM43 207c0 -192 6 -204 30 -204
c26 0 30 6 30 129c0 63 -3 104 -29 104c-12 0 -23 -5 -31 -29z" />
    <glyph glyph-name="seveninferior" unicode="&#x2087;" horiz-adv-x="148" 
d="M60 -10h-19l61 396l-2 3h-77v20h99v-14z" />
    <glyph glyph-name="eightinferior" unicode="&#x2088;" horiz-adv-x="148" 
d="M41 208c-11 10 -16 15 -16 90c0 103 7 119 48 119s48 -16 48 -119c0 -75 -5 -80 -16 -90c14 -10 19 -30 19 -102c0 -92 -7 -123 -51 -123s-51 31 -51 123c0 72 5 92 19 102zM73 3c23 0 31 15 31 103c0 86 -4 91 -31 91s-31 -5 -31 -91c0 -88 8 -103 31 -103zM73 217
c25 0 28 4 28 81c0 87 -6 99 -28 99s-28 -12 -28 -99c0 -77 3 -81 28 -81z" />
    <glyph glyph-name="nineinferior" unicode="&#x2089;" horiz-adv-x="148" 
d="M68 -10l-23 1v4c23 54 40 108 47 156l-3 2c-5 -3 -13 -7 -21 -7c-41 0 -45 29 -45 135c0 116 9 136 50 136c40 0 50 -13 50 -139c0 -108 -17 -182 -55 -288zM98 184c3 25 5 52 5 94c0 92 -3 119 -30 119s-30 -27 -30 -116c0 -90 3 -115 25 -115c16 0 26 6 30 18z" />
    <glyph glyph-name="Euro" unicode="&#x20ac;" 
d="M168 207h20c2 -26 2 -42 2 -75c0 -95 -13 -145 -72 -145c-48 0 -68 6 -76 111c-4 53 -5 110 -5 207h-19l2 20h17v119h-19l2 20h17c0 85 2 123 4 177c4 111 28 129 81 129c39 0 52 -25 57 -46l-4 -28h-4c-9 33 -18 54 -49 54c-40 0 -56 -15 -61 -110
c-3 -53 -4 -93 -4 -176h98l-2 -20h-96v-119h85l-2 -20h-83c0 -97 1 -153 5 -205c6 -88 21 -93 56 -93c43 0 52 43 52 125c0 33 0 49 -2 75z" />
    <glyph glyph-name="uni20B9" unicode="&#x20b9;" 
d="M173 0h-19c-5 40 -7 102 -10 166c-2 38 -2 62 -7 81c-6 24 -25 40 -52 40h-56l3 20h53c45 0 62 68 62 171h-121l3 20h118c0 137 -2 183 -8 205c-5 17 -20 34 -40 34h-72l3 20h159l-3 -20h-43l-1 -3c5 -2 13 -11 16 -25c6 -25 9 -72 9 -211h20l-3 -20h-17
c0 -106 -18 -166 -52 -178v-4c23 -6 39 -26 43 -51c3 -17 4 -41 6 -78c5 -123 7 -141 9 -163v-4z" />
    <glyph glyph-name="uni20BA" unicode="&#x20ba;" 
d="M111 0h-75v323l-10 -10h-4v24l14 14v115l-10 -10h-4v24l14 14v263h20v-243l116 117h4v-24l-120 -121v-115l116 117h4v-24l-120 -121v-323h55c30 0 40 9 48 42c8 35 12 63 13 193h20c-1 -133 -5 -162 -13 -197c-11 -45 -26 -58 -68 -58z" />
    <glyph glyph-name="trademark" unicode="&#x2122;" horiz-adv-x="329" 
d="M84 398h-20v339h-40v20h99v-20h-39v-339zM297 398h-20v328h-4l-48 -328h-17l-47 328h-4v-328h-20v359h39l38 -287h4l42 287h37v-359z" />
    <glyph glyph-name="onethird" unicode="&#x2153;" horiz-adv-x="280" 
d="M107 348h-93v20h36v314h-36v20h26c9 0 12 4 12 17l1 48h17v-399h37v-20zM52 0h-19v4l192 753h20v-4zM167 143h20c-1 -9 -1 -19 -1 -28c0 -85 6 -112 29 -112c26 0 31 27 31 103c0 82 -6 92 -30 92h-29v20h29c24 0 28 5 28 80c0 84 -7 99 -29 99c-21 0 -29 -21 -29 -107
c0 -6 0 -13 1 -23h-20c-1 10 -1 17 -1 23c0 100 10 127 49 127c41 0 49 -16 49 -119c0 -64 -3 -78 -15 -89c16 -16 17 -30 17 -103c0 -92 -7 -123 -51 -123c-43 0 -49 42 -49 132c0 9 0 19 1 28z" />
    <glyph glyph-name="twothirds" unicode="&#x2154;" horiz-adv-x="280" 
d="M109 348h-101v23l51 113c23 52 33 85 33 152c0 98 -11 119 -31 119c-23 0 -29 -22 -29 -106c0 -19 0 -34 1 -47h-20c-1 13 -1 28 -1 47c0 95 7 126 49 126c37 0 50 -25 50 -139c0 -66 -3 -93 -34 -160l-50 -108h82v-20zM56 0h-19v4l192 753h20v-4zM172 143h20
c-1 -9 -1 -19 -1 -28c0 -85 6 -112 29 -112c26 0 31 27 31 103c0 82 -6 92 -30 92h-29v20h29c24 0 28 5 28 80c0 84 -7 99 -29 99c-21 0 -29 -21 -29 -107c0 -6 0 -13 1 -23h-20c-1 10 -1 17 -1 23c0 100 10 127 49 127c41 0 49 -16 49 -119c0 -64 -3 -78 -15 -89
c16 -16 17 -30 17 -103c0 -92 -7 -123 -51 -123c-43 0 -49 42 -49 132c0 9 0 19 1 28z" />
    <glyph glyph-name="oneeighth" unicode="&#x215b;" horiz-adv-x="280" 
d="M106 348h-93v20h36v314h-36v20h26c9 0 12 4 12 17l1 48h17v-399h37v-20zM51 0h-19v4l192 753h20v-4zM183 208c-11 10 -16 15 -16 90c0 103 7 119 48 119s48 -16 48 -119c0 -75 -5 -80 -16 -90c14 -10 19 -30 19 -102c0 -92 -7 -123 -51 -123s-51 31 -51 123
c0 72 5 92 19 102zM215 3c23 0 31 15 31 103c0 86 -4 91 -31 91s-31 -5 -31 -91c0 -88 8 -103 31 -103zM215 217c25 0 28 4 28 81c0 87 -6 99 -28 99s-28 -12 -28 -99c0 -77 3 -81 28 -81z" />
    <glyph glyph-name="threeeighths" unicode="&#x215c;" horiz-adv-x="280" 
d="M17 501h20c-1 -9 -1 -19 -1 -28c0 -85 6 -112 29 -112c26 0 31 27 31 103c0 82 -6 92 -30 92h-29v20h29c24 0 28 5 28 80c0 84 -7 99 -29 99c-21 0 -29 -21 -29 -107c0 -6 0 -13 1 -23h-20c-1 10 -1 17 -1 23c0 100 10 127 49 127c41 0 49 -16 49 -119
c0 -64 -3 -78 -15 -89c16 -16 17 -30 17 -103c0 -92 -7 -123 -51 -123c-43 0 -49 42 -49 132c0 9 0 19 1 28zM53 0h-19v4l192 753h20v-4zM181 208c-11 10 -16 15 -16 90c0 103 7 119 48 119s48 -16 48 -119c0 -75 -5 -80 -16 -90c14 -10 19 -30 19 -102
c0 -92 -7 -123 -51 -123s-51 31 -51 123c0 72 5 92 19 102zM213 3c23 0 31 15 31 103c0 86 -4 91 -31 91s-31 -5 -31 -91c0 -88 8 -103 31 -103zM213 217c25 0 28 4 28 81c0 87 -6 99 -28 99s-28 -12 -28 -99c0 -77 3 -81 28 -81z" />
    <glyph glyph-name="fiveeighths" unicode="&#x215d;" horiz-adv-x="280" 
d="M17 515h20c-1 -11 -1 -29 -1 -42c0 -98 8 -109 27 -109c27 0 32 11 32 154c0 98 -5 103 -26 103c-12 0 -20 -9 -26 -28l-23 5l6 169h87v-20h-68l-5 -124l3 -1c6 14 17 19 32 19c32 0 40 -15 40 -123c0 -155 -8 -177 -52 -177c-36 0 -47 23 -47 132c0 13 0 30 1 42zM53 0
h-19v4l192 753h20v-4zM181 208c-11 10 -16 15 -16 90c0 103 7 119 48 119s48 -16 48 -119c0 -75 -5 -80 -16 -90c14 -10 19 -30 19 -102c0 -92 -7 -123 -51 -123s-51 31 -51 123c0 72 5 92 19 102zM213 3c23 0 31 15 31 103c0 86 -4 91 -31 91s-31 -5 -31 -91
c0 -88 8 -103 31 -103zM213 217c25 0 28 4 28 81c0 87 -6 99 -28 99s-28 -12 -28 -99c0 -77 3 -81 28 -81z" />
    <glyph glyph-name="seveneighths" unicode="&#x215e;" horiz-adv-x="280" 
d="M60 348h-19l61 396l-2 3h-77v20h99v-14zM43 0h-19v4l192 753h20v-4zM181 208c-11 10 -16 15 -16 90c0 103 7 119 48 119s48 -16 48 -119c0 -75 -5 -80 -16 -90c14 -10 19 -30 19 -102c0 -92 -7 -123 -51 -123s-51 31 -51 123c0 72 5 92 19 102zM213 3c23 0 31 15 31 103
c0 86 -4 91 -31 91s-31 -5 -31 -91c0 -88 8 -103 31 -103zM213 217c25 0 28 4 28 81c0 87 -6 99 -28 99s-28 -12 -28 -99c0 -77 3 -81 28 -81z" />
    <glyph glyph-name="partialdiff" unicode="&#x2202;" 
d="M170 427h4c0 70 -5 146 -15 212c-13 85 -30 111 -45 111c-9 0 -15 -1 -21 -3h-3v17c6 3 13 6 25 6c24 0 44 -22 61 -125c9 -53 15 -124 15 -218c0 -247 -20 -442 -94 -442c-47 0 -73 86 -73 241c0 197 31 266 82 266c28 0 51 -17 64 -65zM170 372c-16 73 -34 100 -64 100
c-39 0 -62 -64 -62 -246c0 -142 19 -221 53 -221c53 0 71 158 73 367z" />
    <glyph glyph-name="product" unicode="&#x220f;" 
d="M190 -238h-20v1180h-125v-1180h-20v1200h165v-1200z" />
    <glyph glyph-name="summation" unicode="&#x2211;" 
d="M189 -238h-163v13l99 484l-99 487v11h163v-20h-142l99 -478l-99 -477h142v-20z" />
    <glyph glyph-name="minus" unicode="&#x2212;" 
d="M192 369h-169v20h169v-20z" />
    <glyph glyph-name="radical" unicode="&#x221a;" 
d="M120 0h-36l-37 369h-29v20h48l34 -359h4l71 727h21z" />
    <glyph glyph-name="infinity" unicode="&#x221e;" horiz-adv-x="355" 
d="M177 361c-26 -64 -58 -83 -89 -83c-34 0 -56 25 -56 100s22 100 56 100c31 0 63 -19 89 -83c27 64 58 83 90 83c34 0 56 -25 56 -100s-22 -100 -56 -100c-32 0 -63 19 -90 83zM185 378c26 -59 56 -80 82 -80c22 0 36 20 36 80s-14 80 -36 80c-26 0 -56 -21 -82 -80z
M170 378c-26 59 -56 80 -82 80c-22 0 -36 -20 -36 -80s14 -80 36 -80c26 0 56 21 82 80z" />
    <glyph glyph-name="integral" unicode="&#x222b;" 
d="M45 -238h-16v20h16c37 0 52 22 52 79v1002c0 67 24 99 72 99h16v-20h-16c-37 0 -52 -22 -52 -79v-1002c0 -67 -24 -99 -72 -99z" />
    <glyph glyph-name="approxequal" unicode="&#x2248;" 
d="M192 491v-24c-7 -17 -22 -27 -39 -27c-21 0 -37 11 -51 26c-13 15 -23 21 -40 21c-10 0 -16 -2 -24 -11c-5 -6 -9 -12 -11 -20h-4v24c7 17 22 27 39 27c22 0 39 -13 54 -29c11 -13 21 -18 37 -18c10 0 16 2 24 11c5 6 9 12 11 20h4zM192 311v-24c-7 -17 -22 -27 -39 -27
c-21 0 -37 11 -51 26c-13 15 -23 21 -40 21c-10 0 -16 -2 -24 -11c-5 -6 -9 -12 -11 -20h-4v24c7 17 22 27 39 27c22 0 39 -13 54 -29c11 -13 21 -18 37 -18c10 0 16 2 24 11c5 6 9 12 11 20h4z" />
    <glyph glyph-name="notequal" unicode="&#x2260;" 
d="M19 0h-19v4l68 265h-45v20h50l47 180h-97v20h102l70 268h20v-4l-69 -264h46v-20h-51l-47 -180h98v-20h-103z" />
    <glyph glyph-name="lessequal" unicode="&#x2264;" 
d="M192 187h-4l-165 184v17l165 184h4v-25l-150 -166v-4l150 -165v-25zM192 89h-169v20h169v-20z" />
    <glyph glyph-name="greaterequal" unicode="&#x2265;" 
d="M27 187h-4v25l150 165v4l-150 166v25h4l165 -184v-17zM192 89h-169v20h169v-20z" />
    <glyph glyph-name="lozenge" unicode="&#x25ca;" 
d="M122 0h-29l-63 378l63 379h29l63 -379zM109 44l55 335l-54 334h-4l-56 -335l55 -334h4z" />
    <glyph glyph-name=".null" horiz-adv-x="0" 
 />
    <glyph glyph-name="CR" horiz-adv-x="99" 
 />
    </font>
</defs>
</svg>
